<?xml version="1.0" encoding="utf-8"?>
<!-- Generator: Adobe Illustrator 26.4.1, SVG Export Plug-In . SVG Version: 6.00 Build 0)  -->
<svg version="1.1" id="Layer_1" xmlns="http://www.w3.org/2000/svg" xmlns:xlink="http://www.w3.org/1999/xlink" x="0px" y="0px"
	 viewBox="0 0 1000 1000" style="enable-background:new 0 0 1000 1000;" xml:space="preserve">
<style type="text/css">
	.st0{fill-rule:evenodd;clip-rule:evenodd;}
</style>
<g>
	<path class="st0" d="M563.7,500.2v-1.9c34.5-5.6,61.5-37.6,61.5-73.4c0-51-40.2-84.2-101.5-84.2H399.4c-7.5,0-13.5,6-13.5,13.5
		v310.3c0,7.5,6,13.5,13.5,13.5h125.1c73.5,0,117.8-36,117.8-95.4C642.2,537.8,610.6,505.3,563.7,500.2z M439.5,383.5h71.3
		c38.8,0,60.8,17.3,60.8,48.6c0,33.4-25.6,52.1-72.1,52.1h-60.1V383.5z M513.4,635.3h-74v-111v0h70.8c50.7,0,77.1,18.7,77.1,55.2
		S561.8,635.3,513.4,635.3z"/>
	<path class="st0" d="M850,0H150C67.2,0,0,67.2,0,150v700c0,82.8,67.2,150,150,150h700c82.8,0,150-67.2,150-150V150
		C1000,67.2,932.8,0,850,0z M898.6,529.5c-37.4,3.6-60.3,31.4-73.8,75.2c-13.5,43.7-15.4,97.4-13.9,138.8
		c1.5,43.1-32.1,82.9-77.5,82.9H267.9c-45.4,0-79-39.8-77.5-82.9c1.4-41.4-0.4-95.1-13.9-138.8c-13.6-43.9-36.5-71.7-73.9-75.2
		v-40.3c37.4-3.6,60.3-31.4,73.9-75.2c13.5-43.7,15.4-97.4,13.9-138.8c-1.5-43.1,32.1-82.9,77.5-82.9h465.4
		c45.4,0,79,39.8,77.5,82.9c-1.4,41.4,0.4,95.1,13.9,138.8c13.6,43.9,36.4,71.7,73.8,75.2V529.5z"/>
</g>
</svg>
