<?xml version="1.0" encoding="utf-8"?>
<!-- Generator: Adobe Illustrator 26.4.1, SVG Export Plug-In . SVG Version: 6.00 Build 0)  -->
<svg version="1.1" id="Layer_1" xmlns="http://www.w3.org/2000/svg" xmlns:xlink="http://www.w3.org/1999/xlink" x="0px" y="0px"
	 viewBox="0 0 1000 1000" style="enable-background:new 0 0 1000 1000;" xml:space="preserve">
<style type="text/css">
	.st0{fill-rule:evenodd;clip-rule:evenodd;}
</style>
<path class="st0" d="M267.9,192.3c-45.4,0-79,39.8-77.5,82.9c1.4,41.4-0.4,95.1-13.9,138.8c-13.6,43.9-36.5,71.7-73.9,75.2v40.3
	c37.4,3.6,60.3,31.4,73.9,75.2c13.5,43.7,15.4,97.4,13.9,138.8c-1.5,43.1,32.1,82.9,77.5,82.9h465.4c45.4,0,79-39.8,77.5-82.9
	c-1.4-41.4,0.4-95.1,13.9-138.8c13.6-43.9,36.4-71.7,73.8-75.2v-40.3c-37.4-3.6-60.3-31.4-73.8-75.2
	c-13.5-43.7-15.4-97.4-13.9-138.8c1.5-43.1-32.1-82.9-77.5-82.9L267.9,192.3L267.9,192.3z M642.2,582.7c0,59.4-44.3,95.4-117.8,95.4
	H399.4c-7.5,0-13.5-6-13.5-13.5l0,0V354.2c0-7.5,6-13.5,13.5-13.5h124.4c61.3,0,101.5,33.2,101.5,84.2c0,35.8-27.1,67.8-61.5,73.4
	v1.9C610.6,505.3,642.2,537.8,642.2,582.7z M510.8,383.5h-71.3v100.8h60.1c46.4,0,72.1-18.7,72.1-52.1
	C571.6,400.8,549.6,383.5,510.8,383.5z M439.5,524.2v111h74c48.4,0,74-19.4,74-55.9s-26.3-55.2-77.1-55.2L439.5,524.2L439.5,524.2z"
	/>
</svg>
