<?xml version="1.0" encoding="utf-8"?>
<!-- Generator: Adobe Illustrator 26.4.1, SVG Export Plug-In . SVG Version: 6.00 Build 0)  -->
<svg version="1.1" id="Layer_1" xmlns="http://www.w3.org/2000/svg" xmlns:xlink="http://www.w3.org/1999/xlink" x="0px" y="0px"
	 viewBox="0 0 1000 1000" style="enable-background:new 0 0 1000 1000;" xml:space="preserve">
<path d="M850,0H150C67.2,0,0,67.2,0,150v700c0,82.8,67.2,150,150,150h700c82.8,0,150-67.2,150-150V150C1000,67.2,932.8,0,850,0z
	 M519,783.8L519,783.8L519,783.8L519,783.8c-156.5,0-283.8-127.3-283.8-283.8S362.5,216.2,519,216.2c101,0,195.2,54.3,245.8,141.8
	L642,429.1c-25.3-43.8-72.5-71-123-71c-78.3,0-141.9,63.7-141.9,141.9c0,78.3,63.7,141.9,141.9,141.9c50.5,0,97.6-27.2,123-71
	L764.8,642C714.2,729.5,620,783.8,519,783.8z"/>
</svg>
