<?xml version="1.0" encoding="utf-8"?>
<!-- Generator: Adobe Illustrator 26.4.1, SVG Export Plug-In . SVG Version: 6.00 Build 0)  -->
<svg version="1.1" id="Layer_1" xmlns="http://www.w3.org/2000/svg" xmlns:xlink="http://www.w3.org/1999/xlink" x="0px" y="0px"
	 viewBox="0 0 1000 1000" style="enable-background:new 0 0 1000 1000;" xml:space="preserve">
<style type="text/css">
	.st0{fill:#FAAE40;}
</style>
<path class="st0" d="M740,476.2l-7.9,0.2c-1.9,0-3.5,1.4-4.2,3.2l-11.1,38.8c-4.9,16.7-3,32.1,5.1,43.4c7.4,10.5,20,16.5,35.1,17.2
	l60.9,3.7c1.9,0,3.5,0.9,4.4,2.3c0.9,1.4,1.2,3.5,0.7,5.1c-0.9,2.8-3.7,4.9-6.7,5.1l-63.4,3.7c-34.4,1.6-71.3,29.3-84.3,63.2
	l-4.7,11.8c-0.9,2.3,0.7,4.7,3.2,4.7h217.9c2.6,0,4.9-1.7,5.6-4.2c3.9-13.7,5.9-27.9,5.9-42.2C896.1,546.1,826.2,476.3,740,476.2"/>
</svg>
