<?xml version="1.0" encoding="utf-8"?>
<!-- Generator: Adobe Illustrator 26.4.1, SVG Export Plug-In . SVG Version: 6.00 Build 0)  -->
<svg version="1.1" id="Layer_1" xmlns="http://www.w3.org/2000/svg" xmlns:xlink="http://www.w3.org/1999/xlink" x="0px" y="0px"
	 viewBox="0 0 1000 1000" style="enable-background:new 0 0 1000 1000;" xml:space="preserve">
<style type="text/css">
	.st0{fill:#FAAE40;}
</style>
<path class="st0" d="M850,0H150C67.2,0,0,67.2,0,150v700c0,82.8,67.2,150,150,150h700c82.8,0,150-67.2,150-150V150
	C1000,67.2,932.8,0,850,0z M648.9,659.9l-4,14.2c-0.9,3-3.6,5-6.7,5.1H110.4c-2.8,0-5.1-2.1-5.6-4.9c-0.7-5.8-1.2-11.6-1.2-17.4
	c-0.1-65,51.6-118.3,116.6-120c-2.3-9.6-3-19.6-2.1-29.5c3.7-39.7,35.8-71.5,75.5-75.5c22.1-2.1,43,4.4,59.2,16.5
	c25.1-74.1,95.2-127.6,177.9-127.6c89.7,0,164.7,62.7,183.3,146.8c0.4,1.9,0.2,3.8-0.5,5.6l-16.5,43c-13,33.9-50.1,61.5-84.3,63.2
	L324.4,583c-3,0.2-5.8,2.3-6.7,5.1c-0.5,1.9-0.2,3.7,0.7,5.1c0.9,1.4,2.6,2.3,4.4,2.3l286,3.7c15.1,0.7,27.6,6.7,35.1,17.2
	C651.9,627.9,653.8,643.2,648.9,659.9z M890.4,674.5c-0.7,2.5-3,4.2-5.6,4.2H666.9c-2.5,0-4.2-2.3-3.2-4.7l4.7-11.8
	c13-33.9,49.9-61.5,84.3-63.2l63.4-3.7c3-0.2,5.8-2.3,6.7-5.1c0.5-1.6,0.2-3.7-0.7-5.1c-0.9-1.4-2.6-2.3-4.4-2.3l-60.9-3.7
	c-15.1-0.7-27.6-6.7-35.1-17.2c-8.1-11.4-10-26.7-5.1-43.4l11.1-38.8c0.7-1.8,2.4-3.2,4.2-3.2l7.9-0.2v0
	c86.2,0.1,156.1,69.9,156.3,156.1C896.3,646.6,894.3,660.8,890.4,674.5z"/>
</svg>
