<?xml version="1.0" encoding="utf-8"?>
<!-- Generator: Adobe Illustrator 26.4.1, SVG Export Plug-In . SVG Version: 6.00 Build 0)  -->
<svg version="1.1" id="Layer_1" xmlns="http://www.w3.org/2000/svg" xmlns:xlink="http://www.w3.org/1999/xlink" x="0px" y="0px"
	 viewBox="0 0 1000 1000" style="enable-background:new 0 0 1000 1000;" xml:space="preserve">
<style type="text/css">
	.st0{fill:#F38020;}
</style>
<path class="st0" d="M648.9,659.9c4.9-16.7,3-32.1-5.1-43.4c-7.4-10.5-20-16.5-35.1-17.2l-286-3.7c-1.9,0-3.5-0.9-4.4-2.3
	c-0.9-1.4-1.2-3.2-0.7-5.1c0.9-2.8,3.7-4.9,6.7-5.1l288.5-3.7c34.2-1.6,71.3-29.3,84.3-63.2l16.5-43c0.7-1.8,0.9-3.7,0.5-5.6
	c-18.6-84.1-93.6-146.8-183.3-146.8c-82.7,0-152.8,53.4-177.9,127.6c-16.3-12.1-37.2-18.6-59.2-16.5c-39.7,4-71.8,35.8-75.5,75.5
	c-1,9.9-0.3,19.9,2.1,29.5c-65,1.8-116.7,55-116.6,120c0,5.8,0.5,11.6,1.2,17.4c0.5,2.8,2.8,4.9,5.6,4.9h527.8
	c3.1-0.1,5.8-2.1,6.7-5.1L648.9,659.9z"/>
</svg>
