<?xml version="1.0" encoding="utf-8"?>
<!-- Generator: Adobe Illustrator 26.4.1, SVG Export Plug-In . SVG Version: 6.00 Build 0)  -->
<svg version="1.1" id="Layer_1" xmlns="http://www.w3.org/2000/svg" xmlns:xlink="http://www.w3.org/1999/xlink" x="0px" y="0px"
	 viewBox="0 0 1000 1000" style="enable-background:new 0 0 1000 1000;" xml:space="preserve">
<path d="M493.7,783.8c-156.5,0-283.8-127.3-283.8-283.8s127.3-283.8,283.8-283.8c101,0,195.2,54.3,245.8,141.8l-122.8,71.1
	c-25.3-43.8-72.5-71-123-71c-78.3,0-141.9,63.7-141.9,141.9c0,78.3,63.7,141.9,141.9,141.9c50.5,0,97.6-27.2,123-71L739.6,642
	C688.9,729.5,594.7,783.8,493.7,783.8L493.7,783.8z"/>
<path d="M746,452.7h-31.5v31.5H683v31.5h31.5v31.5H746v-31.5h31.5v-31.5H746V452.7z M864.3,452.7h-31.5v31.5h-31.5v31.5h31.5v31.5
	h31.5v-31.5h31.5v-31.5h-31.5V452.7z"/>
</svg>
