<?xml version="1.0" encoding="utf-8"?>
<!-- Generator: Adobe Illustrator 26.4.1, SVG Export Plug-In . SVG Version: 6.00 Build 0)  -->
<svg version="1.1" id="Layer_1" xmlns="http://www.w3.org/2000/svg" xmlns:xlink="http://www.w3.org/1999/xlink" x="0px" y="0px"
	 viewBox="0 0 1000 1000" style="enable-background:new 0 0 1000 1000;" xml:space="preserve">
<style type="text/css">
	.st0{fill:#019B8F;}
</style>
<g>
	<path class="st0" d="M702.2,665H485.4v0H199c2.7,5.5,5.6,10.8,8.6,16.1c64.1,116.8,188.2,196,330.9,196
		c122.6,0,231.5-58.5,300.4-149C805.9,689.5,757,665,702.2,665z"/>
	<path class="st0" d="M657.4,606.1c57.8,0,106.1-47.1,106.1-106.1s-47.1-106.1-106.1-106.1H491.3H176.4
		c-9.8,33.6-15.1,69.2-15.1,106.1s5.3,72.4,15.1,106.1h314.9H657.4z"/>
	<path class="st0" d="M199.2,335h278h222.8c55.2,0,104.5-25.3,137.6-64.8c-69-89.6-177.3-147.3-299.1-147.3
		c-69,0-133.7,18.6-189.4,51c-0.1-0.1-0.2-0.2-0.4-0.3c-18.6,11-36.3,23.7-52.9,37.8c-27.4,23.1-51.5,50-71.4,79.9
		c-9.4,14-17.9,28.6-25.3,43.8H199.2z"/>
</g>
</svg>
