<?xml version="1.0" encoding="utf-8"?>
<!-- Generator: Adobe Illustrator 26.4.1, SVG Export Plug-In . SVG Version: 6.00 Build 0)  -->
<svg version="1.1" id="Layer_1" xmlns="http://www.w3.org/2000/svg" xmlns:xlink="http://www.w3.org/1999/xlink" x="0px" y="0px"
	 viewBox="0 0 1000 1000" style="enable-background:new 0 0 1000 1000;" xml:space="preserve">
<path d="M850,0H150C67.2,0,0,67.2,0,150v700c0,82.8,67.2,150,150,150h700c82.8,0,150-67.2,150-150V150C1000,67.2,932.8,0,850,0z
	 M224.3,291.2c19.9-29.9,44-56.8,71.4-79.9c16.6-14.1,34.3-26.7,52.9-37.8c0.1,0.1,0.2,0.2,0.4,0.3c55.7-32.4,120.4-51,189.4-51
	c121.8,0,230.1,57.7,299.1,147.3c-33.1,39.5-82.4,64.8-137.6,64.8H477.1h-278H199C206.4,319.8,214.9,305.2,224.3,291.2z M161.2,500
	c0-36.8,5.3-72.4,15.1-106.1h314.9h166.2c58.9,0,106.1,47.1,106.1,106.1s-48.3,106.1-106.1,106.1H491.3H176.4
	C166.5,572.4,161.2,536.8,161.2,500z M538.4,877.2c-142.6,0-266.8-79.2-330.9-196c-3-5.3-5.8-10.7-8.6-16.1h286.4v0h216.9
	c54.7,0,103.7,24.5,136.5,63.1C769.9,818.7,661,877.2,538.4,877.2z"/>
</svg>
