<?xml version="1.0" encoding="utf-8"?>
<!-- Generator: Adobe Illustrator 26.4.1, SVG Export Plug-In . SVG Version: 6.00 Build 0)  -->
<svg version="1.1" id="Layer_1" xmlns="http://www.w3.org/2000/svg" xmlns:xlink="http://www.w3.org/1999/xlink" x="0px" y="0px"
	 viewBox="0 0 1000 1000" style="enable-background:new 0 0 1000 1000;" xml:space="preserve">
<g>
	<path d="M212.5,661.6c-14.9,0-27,12.1-27,27c0,14.9,12.1,27,27,27c14.9,0,27-12.1,27-27C239.6,673.7,227.5,661.6,212.5,661.6z"/>
	<path d="M500.3,211.4c14.9,0,27-12.1,27-27c0-14.9-12.1-27-27-27c-14.9,0-27,12.1-27,27C473.3,199.3,485.4,211.4,500.3,211.4z"/>
	<path d="M787.5,661.6c-14.9,0-27,12.1-27,27c0,6.6,2.4,12.7,6.4,17.4c1,0.7,1.9,1.5,2.7,2.6c0.1,0.1,0.1,0.2,0.2,0.3
		c4.8,4.2,11,6.7,17.8,6.7c14.9,0,27-12.1,27-27C814.5,673.7,802.4,661.6,787.5,661.6z"/>
	<path d="M850,0H150C67.2,0,0,67.2,0,150v700c0,82.8,67.2,150,150,150h700c82.8,0,150-67.2,150-150V150C1000,67.2,932.8,0,850,0z
		 M668.2,287.9c61.5,0.8,107.8,20.8,129.7,58.7c29.7,51.5,8.1,125.1-53.8,198.3l0,0c-3.5,4.1-9.6,4.6-13.7,1.1
		c-4.1-3.5-4.6-9.6-1.1-13.7c57.3-67.6,76.5-133.3,51.8-176.1c-17.9-31.1-57.7-48.3-113.1-49c-5.3-0.1-9.6-4.5-9.6-9.8
		C658.5,292.1,662.9,287.8,668.2,287.9z M500.3,138.1c25.6,0,46.4,20.7,46.4,46.3c0,0.7,0,1.4-0.1,2.1
		C623.6,226.3,677,361.8,677,518.4c0,64.4-9,126.2-25.8,179.8l0,0c-1.6,5.1-7,7.9-12.2,6.4c-5.1-1.6-7.9-7-6.4-12.2
		c16.2-51.7,24.9-111.5,24.9-174c0-147.5-49-274.4-116-312.6c-7.7,14.9-23.3,25-41.2,25c-25.6,0-46.4-20.7-46.4-46.3
		C453.9,158.9,474.7,138.1,500.3,138.1z M202.4,346.1c29.8-51.6,104.6-69.7,199.2-52.4v0c5.3,1,8.7,6,7.8,11.3
		c-1,5.3-6,8.7-11.3,7.8c-87.5-15.9-154,0.2-178.9,43c-18.2,31.6-12.7,75.7,15.4,124.9c2.7,4.6,1.1,10.6-3.6,13.2
		c-4.6,2.7-10.6,1.1-13.2-3.6C186.5,435.7,180.2,384.6,202.4,346.1z M212.5,735.1C212.6,735.1,212.6,735.1,212.5,735.1L212.5,735.1
		C212.5,735.1,212.5,735.1,212.5,735.1c-25.6,0-46.4-20.8-46.4-46.4c0-17.5,9.6-32.7,23.9-40.6c-7-86.7,84.2-203.1,222-282.7
		c57.2-33,116.9-56.5,172.9-68.5l0-0.1c5.2-1.1,10.4,2.2,11.5,7.5c1.1,5.2-2.2,10.4-7.5,11.5C535,327.3,477.1,350,421.7,382
		c-129.8,75.1-215.6,183.1-212.6,260.3c1.1-0.1,2.3-0.1,3.5-0.1c25.6,0,46.4,20.8,46.4,46.4C259,714.3,238.2,735.1,212.5,735.1z
		 M507.8,551.1c-0.1,0-0.3,0.1-0.4,0.1c-18.1,4-36.1-7.4-40.1-25.5c-4-18.1,7.4-36.1,25.5-40.1c0.1,0,0.3-0.1,0.4-0.1
		c18.1-4,36.1,7.4,40.1,25.5C537.4,529.1,526,547.1,507.8,551.1z M615.3,780.2c-31.3,52.1-71.5,81.8-115,81.8
		c-59.6,0-112.6-55.7-144.9-146.1c-1.8-5,0.8-10.6,5.9-12.4c5-1.8,10.6,0.8,12.4,5.9c29.9,83.5,77.2,133.2,126.7,133.2
		c35.6,0,70.1-25.5,98.4-72.4c2.8-4.6,8.7-6.1,13.3-3.3C616.6,769.6,618.1,775.6,615.3,780.2z M833.8,688.6
		c0,25.6-20.8,46.4-46.4,46.4c-10.1,0-19.5-3.2-27.1-8.7c-74,43.5-215.4,21.2-348.6-55.6C354.9,638,305.3,598.6,267,556.6l-0.1,0.1
		c-3.6-4-3.3-10.1,0.6-13.7c4-3.6,10.1-3.3,13.7,0.6c36.9,40.5,85,78.7,140,110.4c125.7,72.5,258,94.1,325.7,57.6
		c-3.8-6.8-6-14.6-6-22.9c0-25.8,20.9-46.4,46.5-46.4s46.4,20.8,46.4,46.4H833.8z"/>
</g>
</svg>
