<?xml version="1.0" encoding="utf-8"?>
<!-- Generator: Adobe Illustrator 26.4.1, SVG Export Plug-In . SVG Version: 6.00 Build 0)  -->
<svg version="1.1" id="Layer_1" xmlns="http://www.w3.org/2000/svg" xmlns:xlink="http://www.w3.org/1999/xlink" x="0px" y="0px"
	 viewBox="0 0 1000 1000" style="enable-background:new 0 0 1000 1000;" xml:space="preserve">
<style type="text/css">
	.st0{fill-rule:evenodd;clip-rule:evenodd;}
</style>
<path class="st0" d="M401.6,293.7c-94.6-17.2-169.4,0.8-199.2,52.4c-22.2,38.5-15.9,89.6,15.4,144.2c2.7,4.6,8.6,6.2,13.2,3.6
	c4.6-2.7,6.2-8.6,3.6-13.2c-28.2-49.2-33.7-93.3-15.4-124.9c24.9-42.9,91.5-59,178.9-43c5.3,0.9,10.3-2.5,11.3-7.8
	C410.3,299.7,406.9,294.6,401.6,293.7L401.6,293.7z M267,556.6c38.3,42,87.9,81.5,144.6,114.2C549,750,695,771.2,766.9,722.1
	c4.4-3,5.6-9.1,2.5-13.5c-3-4.4-9.1-5.6-13.5-2.5C691.6,750,552.8,729.9,421.2,654c-55-31.7-103.1-69.9-140-110.4
	c-3.6-4-9.7-4.2-13.7-0.6c-4,3.6-4.2,9.7-0.6,13.7L267,556.6z M744.1,544.9c61.9-73.2,83.6-146.8,53.8-198.3
	c-21.9-37.9-68.2-57.9-129.7-58.7c-5.4-0.1-9.7,4.2-9.8,9.6c-0.1,5.4,4.2,9.7,9.6,9.8c55.4,0.7,95.2,18,113.1,49
	c24.7,42.8,5.4,108.4-51.8,176.1c-3.4,4.1-2.9,10.2,1.1,13.7C734.4,549.5,740.6,549,744.1,544.9L744.1,544.9z M584.9,296.9
	c-56,12-115.6,35.5-172.9,68.5C270.4,447.1,178,567.9,190.8,655.2c0.8,5.3,5.7,9,11,8.2c5.3-0.8,9-5.7,8.2-11
	c-11.4-77.6,76.2-191.9,211.7-270.3c55.4-32.1,113.2-54.8,167.2-66.3c5.2-1.1,8.6-6.3,7.5-11.5c-1.1-5.2-6.3-8.6-11.5-7.5
	L584.9,296.9z"/>
<path class="st0" d="M355.4,715.8c32.4,90.4,85.4,146.1,144.9,146.1c43.5,0,83.7-29.6,115-81.8c2.7-4.6,1.3-10.5-3.3-13.3
	c-4.6-2.7-10.5-1.3-13.3,3.3c-28.3,46.9-62.8,72.4-98.4,72.4c-49.5,0-96.7-49.8-126.7-133.2c-1.8-5-7.4-7.7-12.4-5.9
	C356.2,705.2,353.6,710.8,355.4,715.8z M651.2,698.1C668,644.6,677,582.8,677,518.4c0-160.7-56.2-299.2-136.4-334.8
	c-4.9-2.2-10.6,0-12.8,4.9c-2.2,4.9,0,10.6,4.9,12.8c71.5,31.7,124.8,163.2,124.8,317.1c0,62.5-8.7,122.3-24.9,174
	c-1.6,5.1,1.3,10.5,6.4,12.2C644.1,706.1,649.6,703.3,651.2,698.1L651.2,698.1z M833.9,688.6c0-25.6-20.8-46.4-46.4-46.4
	s-46.5,20.7-46.5,46.4s20.8,46.4,46.4,46.4s46.4-20.8,46.4-46.4H833.9z M814.5,688.6c0,14.9-12.1,27-27,27c-14.9,0-27-12.1-27-27
	c0-14.9,12.1-27,27-27C802.4,661.6,814.5,673.7,814.5,688.6z"/>
<path class="st0" d="M212.5,735.1c25.6,0,46.4-20.8,46.4-46.4c0-25.6-20.8-46.4-46.4-46.4c-25.6,0-46.4,20.8-46.4,46.4
	C166.1,714.3,186.9,735.1,212.5,735.1L212.5,735.1z M212.5,715.7c-14.9,0-27-12.1-27-27c0-14.9,12.1-27,27-27c14.9,0,27,12.1,27,27
	C239.6,703.6,227.5,715.7,212.5,715.7z M500.3,230.8c25.6,0,46.4-20.8,46.4-46.4s-20.8-46.3-46.4-46.3s-46.4,20.8-46.4,46.4
	S474.7,230.8,500.3,230.8z M500.3,211.4c-14.9,0-27-12.1-27-27c0-14.9,12.1-27,27-27c14.9,0,27,12.1,27,27
	C527.4,199.3,515.3,211.4,500.3,211.4z M507.4,551.2c-18.1,4-36.1-7.4-40.1-25.5c-4-18.1,7.4-36.1,25.5-40.1c0.1,0,0.3-0.1,0.4-0.1
	c18.1-4,36.1,7.4,40.1,25.5c4,18.1-7.4,36.1-25.5,40.1C507.7,551.1,507.6,551.1,507.4,551.2z"/>
</svg>
