<?xml version="1.0" encoding="utf-8"?>
<!-- Generator: Adobe Illustrator 26.4.1, SVG Export Plug-In . SVG Version: 6.00 Build 0)  -->
<svg version="1.1" id="Layer_1" xmlns="http://www.w3.org/2000/svg" xmlns:xlink="http://www.w3.org/1999/xlink" x="0px" y="0px"
	 viewBox="0 0 1000 1000" style="enable-background:new 0 0 1000 1000;" xml:space="preserve">
<g>
	<path d="M303.2,318.1c-93-0.7-159.7,68.3-163.7,170.8h312.4C449.8,389.4,387.9,318.7,303.2,318.1z"/>
	<path d="M850,0H150C67.2,0,0,67.2,0,150v700c0,82.8,67.2,150,150,150h700c82.8,0,150-67.2,150-150V150C1000,67.2,932.8,0,850,0z
		 M484.5,518.1H138.8c-5.2,137.6,93.9,220.7,220.1,178.3c44.3-14.9,70.4-49.6,83.4-93c6.6-21.7,17.6-25.1,38-18.9
		c-10.4,54.3-34,99.6-83.7,128c-74.3,42.5-180.5,28.7-236.3-30.3c-33.3-34.2-47-77.6-53.2-124.1c-1-7.7-2.9-15-4.4-22.3
		c0.1-12.6,0.2-25.1,0.2-37.7v0l13.6-67.1C153.9,298.2,306,243.1,411,325.1C472.3,373.4,487.6,441.6,484.5,518.1z M818.2,702.2
		L706.7,548l-16.1-21.4L560.3,702.7c-14.9,21.2-30.5,30.4-58.3,22.9l166.7-223.8L513.6,299.6c26.7-5.2,45.1-2.5,61.5,21.4
		l115.7,156.2l116.5-155.3c14.9-21.2,31-29.2,57.8-21.4l-60.2,79.8l-81.6,106.2c-9.7,12.1-8.4,20.4,0.6,32.2l155.7,206.9
		C851.3,732.7,833.8,725.8,818.2,702.2z"/>
</g>
</svg>
