<?xml version="1.0" encoding="utf-8"?>
<!-- Generator: Adobe Illustrator 26.4.1, SVG Export Plug-In . SVG Version: 6.00 Build 0)  -->
<svg version="1.1" id="Layer_1" xmlns="http://www.w3.org/2000/svg" xmlns:xlink="http://www.w3.org/1999/xlink" x="0px" y="0px"
	 viewBox="0 0 1000 1000" style="enable-background:new 0 0 1000 1000;" xml:space="preserve">
<path d="M879.6,725.5c-28.3,7.2-45.7,0.3-61.4-23.2L706.7,548l-16.1-21.4L560.3,702.7c-14.9,21.2-30.5,30.4-58.3,22.9l166.7-223.8
	L513.6,299.6c26.7-5.2,45.1-2.5,61.5,21.4l115.7,156.2l116.5-155.3c14.9-21.2,31-29.2,57.8-21.4l-60.2,79.8l-81.6,106.2
	c-9.7,12.1-8.4,20.4,0.6,32.2L879.6,725.5z M103.1,498.1l13.6-67.1C153.9,298.2,306,243.1,411,325.1c61.3,48.3,76.6,116.5,73.5,193
	H138.8c-5.2,137.6,93.9,220.7,220.1,178.3c44.3-14.9,70.4-49.6,83.4-93c6.6-21.7,17.6-25.1,38-18.9c-10.4,54.3-34,99.6-83.7,128
	c-74.3,42.5-180.5,28.7-236.3-30.3c-33.3-34.2-47-77.6-53.2-124.1c-1-7.7-2.9-15-4.4-22.3C103,523.2,103.1,510.7,103.1,498.1
	L103.1,498.1z M139.4,488.9h312.4c-2-99.5-64-170.2-148.7-170.8C210.2,317.3,143.5,386.3,139.4,488.9z"/>
</svg>
