<?xml version="1.0" encoding="utf-8"?>
<!-- Generator: Adobe Illustrator 26.4.1, SVG Export Plug-In . SVG Version: 6.00 Build 0)  -->
<svg version="1.1" id="Layer_1" xmlns="http://www.w3.org/2000/svg" xmlns:xlink="http://www.w3.org/1999/xlink" x="0px" y="0px"
	 viewBox="0 0 1000 1000" style="enable-background:new 0 0 1000 1000;" xml:space="preserve">
<style type="text/css">
	.st0{fill:#F03C2E;}
</style>
<path class="st0" d="M850,0H150C67.2,0,0,67.2,0,150v700c0,82.8,67.2,150,150,150h700c82.8,0,150-67.2,150-150V150
	C1000,67.2,932.8,0,850,0z M889.8,538.1L537.7,889.7c0,0,0,0,0,0c-20.4,20.4-53.4,20.4-73.8,0L110.2,536c0,0,0,0,0,0
	c-20.4-20.4-20.3-53.4,0-73.8l242.6-242.3l91.9,91.9c-9.7,23.2-4.5,50.1,13.4,67.9c6,6,12.9,10.5,20.3,13.5v222.5
	c-7.7,3-14.3,7.6-20.3,13.5c0,0-0.1,0.1-0.1,0.1c-24.2,24.2-24.2,63.5,0.1,87.7c24.2,24.2,63.6,24.2,87.8,0
	c24.2-24.2,24.2-63.6,0-87.8c-4.8-4.8-10.4-8.7-16.5-11.7V397l83.8,83.8c-9.2,22.5-4.7,49.3,13.5,67.5c24.2,24.3,63.6,24.3,87.8,0
	c24.3-24.2,24.3-63.6,0-87.8c-17.3-17.4-42.4-22.2-64.1-14.7l-89.8-89.8c7.8-22.4,2.1-47.3-14.7-64.1
	c-17.3-17.3-42.1-22.5-63.8-14.9l-93.2-93.2l73.4-73.4c0,0,0,0,0,0c20.4-20.4,53.4-20.4,73.8,0l353.7,353.7v0.3c0,0,0,0,0,0
	C910.2,484.7,910.2,517.8,889.8,538.1z"/>
</svg>
