<?xml version="1.0" encoding="utf-8"?>
<!-- Generator: Adobe Illustrator 26.4.1, SVG Export Plug-In . SVG Version: 6.00 Build 0)  -->
<svg version="1.1" id="Layer_1" xmlns="http://www.w3.org/2000/svg" xmlns:xlink="http://www.w3.org/1999/xlink" x="0px" y="0px"
	 viewBox="0 0 1000 1000" style="enable-background:new 0 0 1000 1000;" xml:space="preserve">
<style type="text/css">
	.st0{fill:#F03C2E;}
</style>
<path class="st0" d="M889.8,464.1L536.1,110.3c-20.4-20.4-53.4-20.4-73.8,0c0,0,0,0,0,0l-73.4,73.4l93.2,93.2
	c21.7-7.6,46.5-2.4,63.8,14.9c16.8,16.8,22.5,41.7,14.7,64.1l89.8,89.8c21.7-7.5,46.8-2.7,64.1,14.7c24.2,24.3,24.2,63.6,0,87.8
	c-24.3,24.2-63.6,24.2-87.8,0c-18.2-18.2-22.7-45.1-13.5-67.5L529.4,397v220.4c6.1,3,11.6,7,16.5,11.7c24.2,24.2,24.2,63.6,0,87.8
	c-24.2,24.2-63.6,24.2-87.8,0l0,0c-24.2-24.2-24.3-63.5-0.1-87.7c0,0,0.1-0.1,0.1-0.1c6-6,12.7-10.5,20.3-13.5V393.1
	c-7.4-3-14.3-7.5-20.3-13.5c-17.8-17.8-23.1-44.6-13.4-67.9l-91.9-91.9L110.2,462.2c-20.4,20.4-20.4,53.4,0,73.8c0,0,0,0,0,0
	l353.8,353.7c20.4,20.4,53.4,20.4,73.8,0c0,0,0,0,0,0l352.1-351.6c20.4-20.4,20.4-53.4,0-73.8c0,0,0,0,0,0"/>
</svg>
