<?xml version="1.0" encoding="utf-8"?>
<!-- Generator: Adobe Illustrator 26.4.1, SVG Export Plug-In . SVG Version: 6.00 Build 0)  -->
<svg version="1.1" id="Layer_1" xmlns="http://www.w3.org/2000/svg" xmlns:xlink="http://www.w3.org/1999/xlink" x="0px" y="0px"
	 viewBox="0 0 1000 1000" style="enable-background:new 0 0 1000 1000;" xml:space="preserve">
<style type="text/css">
	.st0{fill-rule:evenodd;clip-rule:evenodd;fill:#181616;}
	.st1{fill:#181616;}
</style>
<g>
	<path class="st0" d="M500,116.7c-217,0-393,175.9-393,393c0,173.6,112.6,321,268.8,372.9c19.6,3.6,26.9-8.5,26.9-18.9
		c0-9.4-0.4-40.3-0.5-73.2c-109.3,23.8-132.4-46.4-132.4-46.4c-17.9-45.4-43.6-57.5-43.6-57.5c-35.7-24.4,2.7-23.9,2.7-23.9
		c39.5,2.8,60.2,40.5,60.2,40.5C324,763.4,380.9,746,403.3,736c3.5-25.4,13.7-42.7,25-52.6c-87.3-9.9-179.1-43.6-179.1-194.2
		c0-42.9,15.4-78,40.5-105.5c-4.1-9.9-17.5-49.9,3.8-104c0,0,33-10.6,108.1,40.3c31.4-8.7,65-13.1,98.4-13.2
		c33.4,0.2,67,4.5,98.5,13.2c75-50.8,108-40.3,108-40.3c21.4,54.1,7.9,94.1,3.9,104c25.2,27.5,40.4,62.6,40.4,105.5
		c0,150.9-91.9,184.2-179.5,193.9c14.1,12.2,26.7,36.1,26.7,72.8c0,52.6-0.5,94.9-0.5,107.9c0,10.5,7.1,22.7,27,18.9
		C780.5,830.5,893,683.3,893,509.7C893,292.6,717,116.7,500,116.7z"/>
	<path class="st1" d="M255.8,681c-0.9,2-3.9,2.5-6.7,1.2c-2.9-1.3-4.4-3.9-3.5-5.9c0.8-2,3.9-2.6,6.8-1.2
		C255.2,676.3,256.8,679,255.8,681L255.8,681z M251,677.4"/>
	<path class="st1" d="M271.8,698.7c-1.9,1.7-5.5,0.9-8-1.8c-2.6-2.7-3.1-6.4-1.2-8.2c1.9-1.7,5.5-0.9,8.1,1.8
		C273.2,693.3,273.7,697,271.8,698.7L271.8,698.7z M268,694.7"/>
	<path class="st1" d="M287.3,721.4c-2.4,1.7-6.3,0.1-8.8-3.4c-2.4-3.5-2.4-7.7,0.1-9.4c2.4-1.7,6.3-0.2,8.8,3.3
		C289.7,715.5,289.7,719.6,287.3,721.4L287.3,721.4z M287.3,721.4"/>
	<path class="st1" d="M308.5,743.2c-2.2,2.4-6.7,1.7-10.1-1.5c-3.4-3.2-4.4-7.7-2.2-10c2.2-2.4,6.8-1.7,10.2,1.5
		C309.7,736.3,310.8,740.9,308.5,743.2L308.5,743.2z M308.5,743.2"/>
	<path class="st1" d="M337.8,755.9c-1,3.1-5.4,4.5-9.8,3.2c-4.4-1.3-7.4-5-6.5-8.1c0.9-3.1,5.4-4.6,9.8-3.2
		C335.8,749.2,338.7,752.8,337.8,755.9L337.8,755.9z M337.8,755.9"/>
	<path class="st1" d="M369.9,758.3c0.1,3.2-3.7,5.9-8.3,6c-4.7,0.1-8.5-2.5-8.6-5.7c0-3.3,3.7-5.9,8.4-6
		C366.1,752.5,369.9,755.1,369.9,758.3L369.9,758.3z M369.9,758.3"/>
	<path class="st1" d="M399.9,753.2c0.6,3.2-2.7,6.4-7.3,7.3c-4.6,0.8-8.8-1.1-9.4-4.3c-0.6-3.2,2.7-6.5,7.3-7.3
		C395.1,748.1,399.3,750,399.9,753.2L399.9,753.2z M399.9,753.2"/>
</g>
</svg>
