<?xml version="1.0" encoding="utf-8"?>
<!-- Generator: Adobe Illustrator 26.4.1, SVG Export Plug-In . SVG Version: 6.00 Build 0)  -->
<svg version="1.1" id="Layer_1" xmlns="http://www.w3.org/2000/svg" xmlns:xlink="http://www.w3.org/1999/xlink" x="0px" y="0px"
	 viewBox="0 0 1000 1000" style="enable-background:new 0 0 1000 1000;" xml:space="preserve">
<style type="text/css">
	.st0{fill:#181616;}
</style>
<path class="st0" d="M850,0H150C67.2,0,0,67.2,0,150v700c0,82.8,67.2,150,150,150h700c82.8,0,150-67.2,150-150V150
	C1000,67.2,932.8,0,850,0z M624.5,882.6c-19.9,3.9-27-8.4-27-18.9c0-12.9,0.5-55.3,0.5-107.9c0-36.7-12.6-60.6-26.7-72.8
	c87.5-9.7,179.5-43,179.5-193.9c0-42.9-15.2-78-40.4-105.5c4.1-9.9,17.5-49.9-3.9-104c0,0-33-10.6-108,40.3
	c-31.4-8.7-65.1-13.1-98.5-13.2c-33.4,0.2-67,4.5-98.4,13.2c-75.1-50.8-108.1-40.3-108.1-40.3c-21.3,54.1-7.9,94.1-3.8,104
	c-25.1,27.5-40.5,62.6-40.5,105.5c0,150.6,91.8,184.3,179.1,194.2c-11.2,9.8-21.4,27.2-25,52.6c-22.4,10-79.3,27.4-114.4-32.7
	c0,0-20.8-37.7-60.2-40.5c0,0-38.3-0.5-2.7,23.9c0,0,25.8,12.1,43.6,57.5c0,0,23.1,70.1,132.4,46.4c0.2,32.8,0.5,63.8,0.5,73.2
	c0,10.4-7.2,22.5-26.9,18.9C219.6,830.7,107,683.3,107,509.7c0-217.1,176-393,393-393c217,0,393,175.9,393,393
	C893,683.3,780.5,830.5,624.5,882.6z M392.5,760.5c-4.6,0.8-8.8-1.1-9.4-4.3c-0.6-3.2,2.7-6.5,7.3-7.3c4.6-0.8,8.8,1.1,9.4,4.3
	C400.4,756.3,397.2,759.6,392.5,760.5z M369.9,758.3c0.1,3.2-3.7,5.9-8.3,6c-4.7,0.1-8.5-2.5-8.6-5.7c0-3.3,3.7-5.9,8.4-6
	C366.1,752.5,369.9,755.1,369.9,758.3z M337.8,755.9c-1,3.1-5.4,4.5-9.8,3.2c-4.4-1.3-7.4-5-6.5-8.1c0.9-3.1,5.4-4.6,9.8-3.2
	C335.8,749.2,338.7,752.8,337.8,755.9z M308.5,743.2c-2.2,2.4-6.7,1.7-10.1-1.5c-3.4-3.2-4.4-7.7-2.2-10c2.2-2.4,6.8-1.7,10.2,1.5
	C309.7,736.3,310.8,740.9,308.5,743.2z M287.3,721.4c-2.4,1.7-6.3,0.1-8.8-3.4c-2.4-3.5-2.4-7.7,0.1-9.4c2.4-1.7,6.3-0.2,8.8,3.3
	C289.7,715.5,289.7,719.6,287.3,721.4z M271.8,698.7c-1.9,1.7-5.5,0.9-8-1.8c-2.6-2.7-3.1-6.4-1.2-8.2c1.9-1.7,5.5-0.9,8.1,1.8
	C273.2,693.3,273.7,697,271.8,698.7z M255.8,681c-0.9,2-3.9,2.5-6.7,1.2c-2.9-1.3-4.4-3.9-3.5-5.9c0.8-2,3.9-2.6,6.8-1.2
	C255.2,676.3,256.8,679,255.8,681z"/>
</svg>
