<?xml version="1.0" encoding="utf-8"?>
<!-- Generator: Adobe Illustrator 26.4.1, SVG Export Plug-In . SVG Version: 6.00 Build 0)  -->
<svg version="1.1" id="Layer_1" xmlns="http://www.w3.org/2000/svg" xmlns:xlink="http://www.w3.org/1999/xlink" x="0px" y="0px"
	 viewBox="0 0 1000 1000" style="enable-background:new 0 0 1000 1000;" xml:space="preserve">
<path d="M850,0H150C67.2,0,0,67.2,0,150v700c0,82.8,67.2,150,150,150h700c82.8,0,150-67.2,150-150V150C1000,67.2,932.8,0,850,0z
	 M921.4,519c-4.8,34.8-21.6,67-74.2,79.7c-50.3,11.7-103.1,5.6-149.4-17.4l-155.4-64.8c-13.9-3.4-28.1-5.2-42.4-5.4
	c-14.3,0.2-28.5,2-42.4,5.4l-155.4,64.8c-46.3,23-99,29.1-149.4,17.4C100.2,586,83.4,553.9,78.6,519c-4.8-34.8,2.8-50.1,7.1-59.7
	c4.3-9.6,33.9-51,79.7-27.8c14.1,5.7,21,21.6,15.6,35.8c-2.7,9.2-8.1,17.3-15.4,23.4c0,0,0,0.1,0,0.1l-0.2,0.1
	c0.1-0.1,0.1-0.1,0.2-0.2c0.1-7.2-1.5-14.3-5-20.7c-5.6-7.9-12.6-9.6-21.6,0c-9,9.6-1.8,41,23.6,48.7s63.6-35.9,83.7-54.5
	s53.5-61.7,137.5-68.3c47.1-4.5,92.3,18.8,116.2,59.4c23.9-40.6,69.2-63.8,116.2-59.4c84,6.6,117.3,49.8,137.5,68.3
	c20.1,18.5,58.3,62.1,83.7,54.5c25.4-7.7,32.6-39,23.6-48.7c-9-9.6-16-7.9-21.6,0c-3.4,6.4-5.1,13.5-5,20.7c0.1,0.1,0.1,0.1,0.2,0.2
	l-0.2-0.1c0,0,0-0.1,0-0.1c-7.4-6.1-12.7-14.3-15.4-23.4c-5.4-14.2,1.5-30.1,15.6-35.8c45.8-23.2,75.4,18.1,79.7,27.8
	C918.6,468.9,926.2,484.2,921.4,519z"/>
</svg>
