<?xml version="1.0" encoding="utf-8"?>
<!-- Generator: Adobe Illustrator 26.4.1, SVG Export Plug-In . SVG Version: 6.00 Build 0)  -->
<svg version="1.1" id="Layer_1" xmlns="http://www.w3.org/2000/svg" xmlns:xlink="http://www.w3.org/1999/xlink" x="0px" y="0px"
	 viewBox="0 0 1000 1000" style="enable-background:new 0 0 1000 1000;" xml:space="preserve">
<style type="text/css">
	.st0{fill:#E34F26;}
</style>
<path class="st0" d="M164.9,132.3l60.9,683.5l273.4,77.3l274.9-77.3l60.9-683.5H164.9z M708.8,294.3l-4.5,43.1l-1.5,17.8H500.7h-1.5
	H381.9l7.4,86.2h110h1.5h170.9h23.8l-3,22.3l-19.3,221.4l-1.5,14.9l-170.9,47.1v0.4h-1.5l-172.4-47.5l-10.4-132.2h38.6h44.6
	l5.9,66.9l93.6,25.3l93.6-25.3l10.4-108.5H500.7h-1.5H312l-20.8-231.8l-1.5-22.3h209.5h1.5h209.5L708.8,294.3z"/>
</svg>
