<?xml version="1.0" encoding="utf-8"?>
<!-- Generator: Adobe Illustrator 26.4.1, SVG Export Plug-In . SVG Version: 6.00 Build 0)  -->
<svg version="1.1" id="Layer_1" xmlns="http://www.w3.org/2000/svg" xmlns:xlink="http://www.w3.org/1999/xlink" x="0px" y="0px"
	 viewBox="0 0 1000 1000" style="enable-background:new 0 0 1000 1000;" xml:space="preserve">
<style type="text/css">
	.st0{fill:#E34F26;}
</style>
<g>
	<polygon class="st0" points="312,526.1 499.3,526.1 500.7,526.1 603.3,526.1 592.9,634.6 499.3,659.8 405.6,634.6 399.7,567.7 
		355.1,567.7 316.5,567.7 326.9,699.9 499.3,747.5 500.7,747.5 500.7,747.1 671.6,699.9 673.1,685.1 692.4,463.7 695.4,441.4 
		671.6,441.4 500.7,441.4 499.3,441.4 389.3,441.4 381.9,355.2 499.3,355.2 500.7,355.2 702.8,355.2 704.3,337.4 708.8,294.3 
		710.3,272 500.7,272 499.3,272 289.7,272 291.2,294.3 	"/>
	<path class="st0" d="M850,0H150C67.2,0,0,67.2,0,150v700c0,82.8,67.2,150,150,150h700c82.8,0,150-67.2,150-150V150
		C1000,67.2,932.8,0,850,0z M774.2,815.8l-274.9,77.3l-273.4-77.3l-60.9-683.5h670.1L774.2,815.8z"/>
</g>
</svg>
