<?xml version="1.0" encoding="utf-8"?>
<!-- Generator: Adobe Illustrator 26.4.1, SVG Export Plug-In . SVG Version: 6.00 Build 0)  -->
<svg version="1.1" id="Layer_1" xmlns="http://www.w3.org/2000/svg" xmlns:xlink="http://www.w3.org/1999/xlink" x="0px" y="0px"
	 viewBox="0 0 1000 1000" style="enable-background:new 0 0 1000 1000;" xml:space="preserve">
<g>
	<path d="M423.2,838.2c66.8,0,112.6-35.5,112.6-113.6V467.2h-75.4v256.4c0,37.7-15.6,47.4-40.4,47.4c-25.9,0-36.7-17.8-48.5-38.8
		l-61.4,37.2C327.9,807,362.8,838.2,423.2,838.2z"/>
	<path d="M712.2,771.4c-37.2,0-58.2-19.4-74.4-45.8l-61.3,35.6c22.1,43.7,67.4,77.1,137.4,77.1c71.6,0,124.9-37.2,124.9-105.1
		c0-63-36.2-91-100.2-118.4l-18.8-8.1c-32.3-14-46.4-23.2-46.4-45.8c0-18.3,14-32.3,36.1-32.3c21.6,0,35.6,9.1,48.5,32.3l58.7-37.7
		c-24.8-43.7-59.3-60.4-107.2-60.4c-67.3,0-110.4,43-110.4,99.6c0,61.4,36.1,90.4,90.5,113.6l18.8,8.1c34.4,15,54.9,24.2,54.9,50
		C763.4,755.8,743.4,771.4,712.2,771.4z"/>
	<path d="M850,0H150C67.2,0,0,67.2,0,150v700c0,82.8,67.2,150,150,150h700c82.8,0,150-67.2,150-150V150C1000,67.2,932.8,0,850,0z
		 M901.1,901.1H98.9V98.9h802.3V901.1z"/>
</g>
</svg>
