<?xml version="1.0" encoding="utf-8"?>
<!-- Generator: Adobe Illustrator 26.4.1, SVG Export Plug-In . SVG Version: 6.00 Build 0)  -->
<svg version="1.1" id="Layer_1" xmlns="http://www.w3.org/2000/svg" xmlns:xlink="http://www.w3.org/1999/xlink" x="0px" y="0px"
	 viewBox="0 0 1000 1000" style="enable-background:new 0 0 1000 1000;" xml:space="preserve">
<style type="text/css">
	.st0{fill:#E9CA32;}
</style>
<g>
	<polygon class="st0" points="716.4,484.1 604.9,484.1 604.9,351.4 716.4,351.4 729.9,270.5 527.7,270.5 527.7,575.4 652.9,557.3 
		646.1,668.2 527.7,708.7 527.7,792.6 702.9,752 	"/>
	<polygon class="st0" points="473,270.5 399.9,270.5 399.9,692.5 343.1,681.7 343.1,624.9 275.5,614.1 275.5,741.2 473,792.6 	"/>
	<path class="st0" d="M850,0H150C67.2,0,0,67.2,0,150v700c0,82.8,67.2,150,150,150h700c82.8,0,150-67.2,150-150V150
		C1000,67.2,932.8,0,850,0z M776,816.4l-273.5,79.2l-281.8-79.2l-56.2-686.5l670.8,1.4L776,816.4z"/>
</g>
</svg>
