<?xml version="1.0" encoding="utf-8"?>
<!-- Generator: Adobe Illustrator 26.4.1, SVG Export Plug-In . SVG Version: 6.00 Build 0)  -->
<svg version="1.1" id="Layer_1" xmlns="http://www.w3.org/2000/svg" xmlns:xlink="http://www.w3.org/1999/xlink" x="0px" y="0px"
	 viewBox="0 0 1000 1000" style="enable-background:new 0 0 1000 1000;" xml:space="preserve">
<path d="M98.9,98.9v802.3h802.3V98.9H98.9z M535.8,724.6c0,78.1-45.8,113.6-112.6,113.6c-60.4,0-95.3-31.2-113.1-68.9l61.4-37.2
	c11.8,21,22.6,38.8,48.5,38.8c24.8,0,40.4-9.7,40.4-47.4V467.2h75.4V724.6z M713.9,838.3c-70,0-115.3-33.4-137.4-77.1l61.3-35.6
	c16.2,26.4,37.2,45.8,74.4,45.8c31.2,0,51.2-15.6,51.2-37.2c0-25.9-20.5-35-54.9-50l-18.8-8.1c-54.4-23.2-90.5-52.2-90.5-113.6
	c0-56.5,43.1-99.6,110.4-99.6c47.9,0,82.4,16.7,107.2,60.4L758,561c-12.9-23.2-26.9-32.3-48.5-32.3c-22.1,0-36.1,14-36.1,32.3
	c0,22.6,14,31.8,46.4,45.8l18.8,8.1c64.1,27.5,100.2,55.5,100.2,118.4C838.8,801.2,785.5,838.3,713.9,838.3z"/>
</svg>
