<?xml version="1.0" encoding="utf-8"?>
<!-- Generator: Adobe Illustrator 26.4.1, SVG Export Plug-In . SVG Version: 6.00 Build 0)  -->
<svg version="1.1" id="Layer_1" xmlns="http://www.w3.org/2000/svg" xmlns:xlink="http://www.w3.org/1999/xlink" x="0px" y="0px"
	 viewBox="0 0 1000 1000" style="enable-background:new 0 0 1000 1000;" xml:space="preserve">
<path d="M194.1,324c-62,87.6-54.3,201.5-6.9,294.8c1.1,2.2,2.3,4.4,3.5,6.6l2.2,4.2c0.4,0.8,0.9,1.6,1.4,2.4
	c0.8,1.5,1.6,2.9,2.5,4.3l4.5,7.6l2.6,4.2l5.3,8.1l2.2,3.4c2.5,3.6,5,7.2,7.6,10.8l1.5,2c2.3,3,4.6,6.1,6.9,9l2.6,3.3l6.4,7.7
	l2.5,2.9c2.9,3.4,5.9,6.7,8.9,10c0.3,0.3,0.4,0.4,0.5,0.6c3,3.2,6,6.3,9.1,9.4l2.9,2.9l7.2,7l3,2.8c3.3,3,6.6,6,9.9,8.9l10.9,9
	l3.7,2.9l7.5,5.8l4,3l8.4,5.9l3.9,2.7c2.7,1.8,5.4,3.6,8.2,5.3l3.5,2.3c4.2,2.6,8.5,5.2,12.8,7.7l3.5,2.2l9.6,5.3
	c1.8,0.9,3.5,1.8,5.3,2.7l6.9,3.5l1.6,0.8l2.8,1.3l10.9,4.9l2.3,1c4.2,1.8,8.5,3.5,12.7,5.2l3.1,1.2l12,4.4l1.5,0.5
	c4.4,1.5,8.9,2.9,13.4,4.3l3.2,0.9c4.4,1.4,9.1,3,13.8,3.8c300.1,53.7,387.2-177.1,387.2-177.1c-73.2,93.6-203.1,118.3-326.5,90.8
	c-4.7-1-9.2-2.5-13.7-3.8l-3.4-1c-4.4-1.3-8.8-2.8-13.2-4.2l-1.8-0.6c-3.9-1.4-7.8-2.8-11.7-4.2l-3.3-1.3c-4.2-1.6-8.4-3.4-12.6-5.2
	l-2.5-1.1L434,711l-3.1-1.4c-2.8-1.3-5.5-2.7-8.2-4.3l-5.5-2.8c-3.3-1.7-6.6-3.6-9.9-5.4l-3.3-1.8c-4.3-2.5-8.6-5.1-12.8-7.7
	c-1.2-0.7-2.3-1.5-3.5-2.3l-9.1-6c-1-0.6-2.2-1.4-2.9-2l-8.6-6.1l-3.8-2.8l-7.8-6l-3.5-2.7l-9.7-8c-0.4-0.3-0.7-0.6-1.1-0.9
	l-10.2-9.1l-2.8-2.7l-7.3-7.1l-2.8-2.8c-3.1-3.1-6-6.2-8.8-9.3c-0.2-0.2-0.3-0.3-0.4-0.5c-3.1-3.3-6.1-6.7-9.1-10.2l-2.2-2.8l-6.6-8
	l-2.2-2.9l-7.6-9.9c-68.8-91.5-93.3-218-38.7-321.7 M386.7,250.2c-44.9,63.4-42.4,148.5-7.5,215.3c5.9,11.3,12.5,22.1,19.9,32.5
	c6.7,9.5,14.2,20.7,23.1,28.3c3.2,3.5,6.6,6.9,10.1,10.3l2.6,2.6c3.3,3.2,6.8,6.3,10.3,9.4c0.2,0.1,0.3,0.3,0.4,0.4
	c4,3.4,8,6.5,12.1,9.9l2.7,2.1c4.1,3.1,8.3,6.1,12.6,9l0.4,0.3c1.9,1.3,3.8,2.5,5.7,3.7c0.9,0.6,1.8,1.2,2.7,1.8
	c3.1,1.9,6.2,3.8,9.3,5.6l1.3,0.8l8.2,4.3c1,0.5,2.2,1,2.9,1.5l5.8,2.9c0.3,0.2,0.6,0.3,0.9,0.4c4,1.9,8,3.8,12,5.5l2.6,1.1
	c3.3,1.4,6.6,2.7,9.9,3.9l4.2,1.5c3,1.1,6,2.1,9,3.1l4.1,1.3c4.3,1.3,8.8,3,13.1,3.7C796.9,649,850.4,473.6,850.4,473.6
	c-48.2,68.2-141.6,100.7-241.2,75.3c-4.4-1.1-8.8-2.4-13.1-3.7c-1.3-0.4-2.6-0.8-3.9-1.2l-9.2-3.1l-4.4-1.5
	c-3.3-1.3-6.6-2.6-9.9-3.9l-2.7-1.1c-4.1-1.7-8.1-3.6-12.1-5.5l-6.1-3l-3.5-1.8c-2.6-1.4-5.1-2.8-7.7-4.2l-1.8-1
	c-3.1-1.8-6.2-3.7-9.3-5.6c-0.9-0.6-1.9-1.2-2.8-1.8l-6-3.9c-4.2-2.9-8.4-5.9-12.5-9l-2.8-2.2c-43.8-33.8-78.2-80-94.6-132.4
	c-17.2-54.3-13.5-115.3,16.3-164.8 M548.7,195.1c-26.4,38.4-29.1,85.7-10.7,127.9c19.3,44.8,59,80,105.3,96.8l5.7,2.2l2.5,0.8
	l8.3,2.2c127.9,24.3,162.6-64.5,171.9-77.5c-30.4,43-81.5,53.3-144.1,38.3c-5-1.2-10.4-2.9-15.2-4.6c-6.1-2.1-12.1-4.6-18-7.3
	c-11.1-5.3-21.7-11.6-31.6-18.9c-56.1-41.8-90.9-121.7-54.3-186.6"/>
</svg>
