<?xml version="1.0" encoding="utf-8"?>
<!-- Generator: Adobe Illustrator 26.4.1, SVG Export Plug-In . SVG Version: 6.00 Build 0)  -->
<svg version="1.1" id="Layer_1" xmlns="http://www.w3.org/2000/svg" xmlns:xlink="http://www.w3.org/1999/xlink" x="0px" y="0px"
	 viewBox="0 0 1000 1000" style="enable-background:new 0 0 1000 1000;" xml:space="preserve">
<path d="M850,0H150C67.2,0,0,67.2,0,150v700c0,82.8,67.2,150,150,150h700c82.8,0,150-67.2,150-150V150C1000,67.2,932.8,0,850,0z
	 M548.7,195.1l19.8-26.8c-36.6,64.9-1.8,144.8,54.3,186.6c9.9,7.3,20.4,13.7,31.6,18.9c5.9,2.8,11.9,5.2,18,7.3
	c4.8,1.7,10.2,3.4,15.2,4.6c62.7,14.9,113.7,4.6,144.1-38.3c-9.3,13.1-43.9,101.8-171.9,77.5l-8.3-2.2L649,422l-5.7-2.2
	c-46.3-16.9-86-52-105.3-96.8C519.6,280.8,522.2,233.5,548.7,195.1z M446.2,823.6c-4.7-0.8-9.4-2.5-13.8-3.8l-3.2-0.9
	c-4.5-1.4-8.9-2.8-13.4-4.3l-1.5-0.5l-12-4.4l-3.1-1.2c-4.3-1.7-8.5-3.4-12.7-5.2l-2.3-1l-10.9-4.9l-2.8-1.3l-1.6-0.8l-6.9-3.5
	c-1.8-0.9-3.6-1.8-5.3-2.7l-9.6-5.3l-3.5-2.2c-4.3-2.5-8.6-5.1-12.8-7.7l-3.5-2.3c-2.8-1.7-5.5-3.5-8.2-5.3l-3.9-2.7l-8.4-5.9l-4-3
	l-7.5-5.8l-3.7-2.9l-10.9-9c-3.4-2.9-6.7-5.9-9.9-8.9l-3-2.8l-7.2-7l-2.9-2.9c-3.1-3.1-6.1-6.2-9.1-9.4c-0.1-0.1-0.2-0.2-0.5-0.6
	c-3-3.3-6-6.6-8.9-10l-2.5-2.9l-6.4-7.7l-2.6-3.3c-2.4-3-4.7-6-6.9-9l-1.5-2c-2.6-3.5-5.1-7.1-7.6-10.8l-2.2-3.4l-5.3-8.1l-2.6-4.2
	l-4.5-7.6c-0.8-1.5-1.7-2.8-2.5-4.3c-0.5-0.8-0.9-1.6-1.4-2.4l-2.2-4.2c-1.2-2.2-2.4-4.4-3.5-6.6c-47.4-93.3-55.1-207.2,6.9-294.8
	l48.4-60.3c-54.6,103.7-30.1,230.2,38.7,321.7l7.6,9.9l2.2,2.9l6.6,8l2.2,2.8c3,3.5,6,6.9,9.1,10.2c0.1,0.2,0.3,0.3,0.4,0.5
	c2.7,3.2,5.7,6.3,8.8,9.3l2.8,2.8l7.3,7.1l2.8,2.7l10.2,9.1c0.4,0.3,0.7,0.6,1.1,0.9l9.7,8l3.5,2.7l7.8,6l3.8,2.8l8.6,6.1
	c0.7,0.6,1.9,1.4,2.9,2l9.1,6c1.2,0.8,2.3,1.5,3.5,2.3c4.2,2.6,8.5,5.2,12.8,7.7l3.3,1.8c3.3,1.9,6.5,3.7,9.9,5.4l5.5,2.8
	c2.7,1.6,5.5,3,8.2,4.3l3.1,1.4l10.6,4.9l2.5,1.1c4.2,1.8,8.4,3.5,12.6,5.2l3.3,1.3c3.9,1.5,7.8,2.9,11.7,4.2l1.8,0.6
	c4.4,1.5,8.8,2.9,13.2,4.2l3.4,1c4.5,1.3,9.1,2.8,13.7,3.8c123.4,27.5,253.3,2.8,326.5-90.8C833.4,646.5,746.3,877.3,446.2,823.6z
	 M565.2,611.3c-4.3-0.7-8.8-2.4-13.1-3.7l-4.1-1.3c-3-1-6-2-9-3.1l-4.2-1.5c-3.3-1.2-6.6-2.6-9.9-3.9l-2.6-1.1
	c-4.1-1.7-8.1-3.6-12-5.5c-0.3-0.1-0.6-0.2-0.9-0.4l-5.8-2.9c-0.7-0.5-2-1-2.9-1.5l-8.2-4.3l-1.3-0.8c-3.1-1.8-6.2-3.7-9.3-5.6
	c-0.9-0.6-1.8-1.2-2.7-1.8c-1.9-1.2-3.9-2.4-5.7-3.7L473,570c-4.3-2.9-8.5-5.9-12.6-9l-2.7-2.1c-4.1-3.4-8.1-6.4-12.1-9.9
	c-0.2-0.1-0.3-0.3-0.4-0.4c-3.5-3-6.9-6.2-10.3-9.4l-2.6-2.6c-3.5-3.4-6.8-6.8-10.1-10.3c-8.9-7.6-16.4-18.8-23.1-28.3
	c-7.4-10.4-14-21.3-19.9-32.5c-35-66.9-37.4-151.9,7.5-215.3l36.4-51.2c-29.8,49.5-33.5,110.5-16.3,164.8
	c16.4,52.4,50.8,98.6,94.6,132.4l2.8,2.2c4.1,3.1,8.2,6.1,12.5,9l6,3.9c0.9,0.6,1.9,1.2,2.8,1.8c3.1,1.9,6.2,3.8,9.3,5.6l1.8,1
	c2.5,1.5,5.1,2.9,7.7,4.2l3.5,1.8l6.1,3c4,1.9,8,3.8,12.1,5.5l2.7,1.1c3.3,1.4,6.6,2.7,9.9,3.9l4.4,1.5l9.2,3.1
	c1.3,0.4,2.6,0.9,3.9,1.2c4.3,1.3,8.7,2.6,13.1,3.7c99.7,25.4,193-7.1,241.2-75.3C850.4,473.6,796.9,649,565.2,611.3z"/>
</svg>
