<?xml version="1.0" encoding="utf-8"?>
<!-- Generator: Adobe Illustrator 26.4.1, SVG Export Plug-In . SVG Version: 6.00 Build 0)  -->
<svg version="1.1" id="Layer_1" xmlns="http://www.w3.org/2000/svg" xmlns:xlink="http://www.w3.org/1999/xlink" x="0px" y="0px"
	 viewBox="0 0 1000 1000" style="enable-background:new 0 0 1000 1000;" xml:space="preserve">
<style type="text/css">
	.st0{fill:#C2BFBF;}
</style>
<path class="st0" d="M516.7,820.9c0.9-10,5.7-18.3,10.9-26.6c-5.2-2.2-9.1-6.5-12.2-11.3c-2.6-4.6-4.8-9.4-6.5-14.4
	c-6.1-18.3-7.4-37.5-9.1-56.2v-11.3c-2.2,1.7-2.6,16.5-2.6,18.7c-1.3,19.8-3.9,39.4-7.8,58.8c-1.3,7.8-2.2,15.7-7,22.6
	c0,0.9,0,1.7,0.4,3c7.8,23.1,10,46.6,11.3,70.6v8.7c0,10.4-0.4,8.2,8.2,11.7c3.5,1.3,7.4,1.7,10.9,4.3c2.6,0,3-2.2,3-3.9l-1.3-14.4
	v-40.1C514.5,834.4,515.8,827.5,516.7,820.9L516.7,820.9z"/>
</svg>
