<?xml version="1.0" encoding="utf-8"?>
<!-- Generator: Adobe Illustrator 26.4.1, SVG Export Plug-In . SVG Version: 6.00 Build 0)  -->
<svg version="1.1" id="Layer_1" xmlns="http://www.w3.org/2000/svg" xmlns:xlink="http://www.w3.org/1999/xlink" x="0px" y="0px"
	 viewBox="0 0 1000 1000" style="enable-background:new 0 0 1000 1000;" xml:space="preserve">
<style type="text/css">
	.st0{fill:#599636;}
</style>
<path class="st0" d="M495.3,102.4l21.3,40.1c4.8,7.4,10,13.9,16.1,20c17.9,17.7,34.7,36.6,50.1,56.6
	c36.1,47.5,60.5,100.2,77.9,157.2c10.4,34.8,16.1,70.6,16.5,106.7c1.7,108-35.3,200.7-109.9,277.8c-12.1,12.2-25.3,23.4-39.2,33.5
	c-7.4,0-10.9-5.7-13.9-10.9c-5.6-9.7-9.2-20.3-10.9-31.4c-2.6-13.1-4.3-26.1-3.5-39.6v-6.1C499.3,705.1,492.7,105.5,495.3,102.4
	L495.3,102.4z"/>
</svg>
