<?xml version="1.0" encoding="utf-8"?>
<!-- Generator: Adobe Illustrator 26.4.1, SVG Export Plug-In . SVG Version: 6.00 Build 0)  -->
<svg version="1.1" id="Layer_1" xmlns="http://www.w3.org/2000/svg" xmlns:xlink="http://www.w3.org/1999/xlink" x="0px" y="0px"
	 viewBox="0 0 1000 1000" style="enable-background:new 0 0 1000 1000;" xml:space="preserve">
<style type="text/css">
	.st0{fill:#C2BFBF;}
</style>
<path class="st0" d="M677.3,483c-0.4-36.1-6.1-71.8-16.5-106.7c-17.4-57-41.8-109.7-77.9-157.2c-15.4-20-32.1-38.9-50.1-56.6
	c-6.1-6.1-11.3-12.6-16.1-20l-21.3-40.1l0-1.3c-0.9-1.7-1.7-0.4-2.6,0.4c0.4,8.7-2.6,16.5-7.4,24c-5.2,7.4-12.2,13.1-19.2,19.2
	c-38.7,33.5-69.2,74-93.6,119.3c-32.5,61-49.2,126.3-54,195.1c-2.2,24.8,7.8,112.3,15.7,137.6c21.3,67.1,59.7,123.2,109.3,172
	c12.2,11.7,25.2,22.6,38.7,33.1c0,0,0,0,0,0c0,0.7,0.1,1.5,0.4,2.6c7.8,23.1,10,46.6,11.3,70.6v8.7c0,10.4-0.4,8.2,8.2,11.7
	c3.5,1.3,7.4,1.7,10.9,4.3c2.6,0,3-2.2,3-3.9l-1.3-14.4v-40.1c-0.4-7,0.9-13.9,1.7-20.5l0,0c0.9-10,5.7-18.3,10.9-26.6c0,0,0,0,0,0
	c0.2,0,0.4,0,0.6,0c14-10.1,27.1-21.3,39.2-33.5C642.1,683.8,679.1,591,677.3,483z"/>
</svg>
