<?xml version="1.0" encoding="utf-8"?>
<!-- Generator: Adobe Illustrator 26.4.1, SVG Export Plug-In . SVG Version: 6.00 Build 0)  -->
<svg version="1.1" id="Layer_1" xmlns="http://www.w3.org/2000/svg" xmlns:xlink="http://www.w3.org/1999/xlink" x="0px" y="0px"
	 viewBox="0 0 1000 1000" style="enable-background:new 0 0 1000 1000;" xml:space="preserve">
<style type="text/css">
	.st0{fill:#C2BFBF;}
</style>
<path class="st0" d="M850,0H150C67.2,0,0,67.2,0,150v700c0,82.8,67.2,150,150,150h700c82.8,0,150-67.2,150-150V150
	C1000,67.2,932.8,0,850,0z M567.4,760.8c-12.1,12.2-25.3,23.4-39.2,33.5c-0.2,0-0.4,0-0.6,0c0,0,0,0,0,0c-5.2,8.3-10,16.6-10.9,26.6
	l0,0c-0.9,6.5-2.2,13.5-1.7,20.5v40.1l1.3,14.4c0,1.7-0.4,3.9-3,3.9c-3.5-2.6-7.4-3-10.9-4.3c-8.7-3.5-8.2-1.3-8.2-11.7v-8.7
	c-1.3-24-3.5-47.5-11.3-70.6c-0.4-1.1-0.4-1.9-0.4-2.6c0,0,0,0,0,0c-13.5-10.5-26.5-21.4-38.7-33.1c-49.6-48.8-88-105-109.3-172
	c-7.8-25.3-17.8-112.8-15.7-137.6c4.7-68.8,21.5-134.1,54-195.1c24.4-45.3,54.9-85.8,93.6-119.3c7-6.1,13.9-11.8,19.2-19.2
	c4.8-7.4,7.8-15.2,7.4-24c0.9-0.8,1.7-2.2,2.6-0.4l0,1.3l21.3,40.1c4.8,7.4,10,13.9,16.1,20c17.9,17.7,34.7,36.6,50.1,56.6
	c36.1,47.5,60.5,100.2,77.9,157.2c10.4,34.8,16.1,70.6,16.5,106.7C679.1,591,642.1,683.8,567.4,760.8z"/>
</svg>
