<?xml version="1.0" encoding="utf-8"?>
<!-- Generator: Adobe Illustrator 26.4.1, SVG Export Plug-In . SVG Version: 6.00 Build 0)  -->
<svg version="1.1" id="Layer_1" xmlns="http://www.w3.org/2000/svg" xmlns:xlink="http://www.w3.org/1999/xlink" x="0px" y="0px"
	 viewBox="0 0 1000 1000" style="enable-background:new 0 0 1000 1000;" xml:space="preserve">
<style type="text/css">
	.st0{fill:#6CAC48;}
</style>
<path class="st0" d="M495.3,101.1c-0.9-1.7-1.7-0.4-2.6,0.4c0.4,8.7-2.6,16.5-7.4,24c-5.2,7.4-12.2,13.1-19.2,19.2
	c-38.7,33.5-69.2,74-93.6,119.3c-32.5,61-49.2,126.3-54,195.1c-2.2,24.8,7.8,112.3,15.7,137.6c21.3,67.1,59.7,123.2,109.3,172
	c12.2,11.7,25.2,22.6,38.7,33.1c3.9,0,4.3-3.5,5.2-6.1c1.7-5.6,3-11.2,3.9-17l8.7-65.3L495.3,101.1z"/>
</svg>
