<?xml version="1.0" encoding="utf-8"?>
<!-- Generator: Adobe Illustrator 26.4.1, SVG Export Plug-In . SVG Version: 6.00 Build 0)  -->
<svg version="1.1" id="Layer_1" xmlns="http://www.w3.org/2000/svg" xmlns:xlink="http://www.w3.org/1999/xlink" x="0px" y="0px"
	 viewBox="0 0 1000 1000" style="enable-background:new 0 0 1000 1000;" xml:space="preserve">
<style type="text/css">
	.st0{fill-rule:evenodd;clip-rule:evenodd;}
</style>
<g>
	<path class="st0" d="M833.4,701.9c0,0-0.1,0-0.1,0c0,0.1,0,0.2,0.1,0.3L833.4,701.9z"/>
	<path class="st0" d="M850,0H150C67.2,0,0,67.2,0,150v700c0,82.8,67.2,150,150,150h700c82.8,0,150-67.2,150-150V150
		C1000,67.2,932.8,0,850,0z M895.9,869.1c-7.5-2.5-11.2-9.2-17.2-13.3c-11.9-7.7-23.7-16.9-35.6-24c-20.5-12.3-44.2-19.4-65.2-31.7
		l-34.5-23.5c-10.2-7.2-21.5-20.9-28-31.2c-3.8-5.6-4.3-12.3-8.6-16.4c1.1-9.7,14-9.7,22.1-12.8c28-11.2,61.4-15.5,104.4-14.3
		c-2-10.2-28.6-22.8-37.1-28.8c-17.2-11.8-35.5-24-53.8-34.8c-9.7-5.6-26.4-9.7-37.2-14.3c-14.5-5.6-46.8-11.2-54.9-22
		c-16.2-19.9-26.9-44.5-38.2-68.5c-11.3-24.6-25.3-50.1-36.6-75.2c-5.9-12.3-8.6-23-15.1-34.8c-39.3-72.1-97.5-132.5-168-174.9
		c-23.2-13.8-49-26.6-77.6-35.3c-16.1-4.6-35.5-2.2-52.8-5.7h-11.3c-9.7-2.6-17.8-12.3-25.3-17.4c-16.7-10.7-33.4-17.9-53.3-25.6
		c-7-3-26.9-10.3-33.9-4.6c-4.3,0.9-6.5,2.6-7.5,6.6c-4.3,6.1-0.5,15.2,2.1,21c8.1,16.4,19.4,26.1,29.6,39.9
		c9.2,12.3,20.5,26.1,26.9,39.4c14,28.6,20.5,60.3,33.4,89c4.9,10.7,12.4,23,19.4,32.7c5.9,7.7,16.7,13.3,19.9,23
		c6.5,10.2-9.7,44-13.5,54.7c-14,41.9-11.3,100.2,4.9,136.5c6.5,14.3,12.4,31.2,29.6,35.3c1-1.1,0-0.6,2.2-1.1
		c3.8-28.1,4.8-55.2,15.1-77.2c6-13.8,17.8-23.5,25.9-34.8c5.4,3,5.4,12.3,8.6,18.4c7,15.9,14.5,33.2,23.2,49.1
		c17.8,32.7,37.7,64.4,60.3,93.1c7.5,10.2,18.3,21.5,28,30.7c4.3,3.6,9.2,5.6,12.4,10.2h1.1v1.5c-16.2-5.6-26.4-21.5-39.3-30.7
		c-24.2-17.4-53.3-43.5-70-68.5l-22.1-42.4v-1.1c-3.2,4.1-2.1,8.2-3.8,14.3c-7,25.6-1.6,54.7-25.8,63.9
		c-27.6,10.8-47.9-17.4-56.6-30.2c-27.5-42.5-35-114.1-15.6-171.9c4.3-12.8,4.8-28.1,12.4-38.4c-1.6-9.2-9.2-11.7-13.5-17.4
		c-7.5-9.7-13.9-21-19.9-31.7c-11.3-21-19.4-46-28-68.5c-3.8-9.2-5-18.4-8.6-27.1c-6.5-13.3-18.3-26.6-27.5-38.4
		C129.1,223,93,190.3,107.5,157c22.6-52.6,101.8-12.7,132.5,5.7c7.5,4.6,16.2,14.3,24.8,17.9l40.4,2.1c25.2,5.6,48.9,10.2,68.8,21
		C466.6,255.4,527,308,582.4,395c11.8,18.4,17.8,38.4,27.5,58.3l44.2,89c7,13.3,12.4,28.2,22.1,39.4c3.8,5.1,14.5,6.6,21,9.7
		c17.8,8.7,39.3,15.3,56,25.6c31.2,18.4,61.4,40.4,88.9,62.9c10.2,8.7,17.2,21,26.9,30.2v4.6l-25.9,7.2c-18.8,4.6-35.5,3.6-53.8,8.2
		c-11.3,3.1-25.3,7-37.2,8.2l1.1,1.1c7,18.9,44.7,34.2,61.9,45.5c21,14.3,40.4,31.7,56,51.6l16.2,14.8c3.8,5.1,4.8,11.8,8.6,16.4
		V869.1z M298.7,269.3c2.7,3.6,3.2,7.2,6.5,10.7c0,12.3-3.8,20.4-11.3,25.6l-1.1,1.1l-12.4-24.6c-5.4-7.2-12.9-12.8-17.2-21h-1.1
		V260c7.2-1.8,14.6-2.6,22.1-2.6l0,0C288.5,261.6,295.5,264.1,298.7,269.3z"/>
</g>
</svg>
