<?xml version="1.0" encoding="utf-8"?>
<!-- Generator: Adobe Illustrator 26.4.1, SVG Export Plug-In . SVG Version: 6.00 Build 0)  -->
<svg version="1.1" id="Layer_1" xmlns="http://www.w3.org/2000/svg" xmlns:xlink="http://www.w3.org/1999/xlink" x="0px" y="0px"
	 viewBox="0 0 1000 1000" style="enable-background:new 0 0 1000 1000;" xml:space="preserve">
<style type="text/css">
	.st0{fill-rule:evenodd;clip-rule:evenodd;}
</style>
<path class="st0" d="M833.4,701.9c-43.1-1.1-76.5,3.1-104.5,14.3c-8.1,3.1-21,3.1-22.1,12.8c4.3,4.1,4.8,10.7,8.6,16.4
	c6.5,10.2,17.8,24,28,31.2l34.5,23.5c21,12.3,44.7,19.4,65.2,31.7c11.9,7.2,23.7,16.4,35.6,24c6,4.1,9.7,10.8,17.2,13.3v-1.5
	c-3.8-4.6-4.9-11.2-8.6-16.4l-16.2-14.8c-15.6-19.9-35-37.3-56-51.6c-17.2-11.3-54.9-26.6-61.9-45.5l-1.1-1.1
	c11.8-1.1,25.8-5.1,37.2-8.2c18.3-4.6,35-3.6,53.8-8.2l25.9-7.2V710c-9.7-9.2-16.7-21.5-26.9-30.2c-27.5-22.5-57.6-44.5-88.9-62.9
	c-16.7-10.2-38.2-16.9-56-25.6c-6.5-3.1-17.2-4.6-21-9.7c-9.7-11.2-15.1-26.1-22.1-39.4l-44.2-89c-9.7-19.9-15.6-39.9-27.5-58.3
	C527,308,466.6,255.4,374,203.7c-19.9-10.7-43.6-15.4-68.8-21l-40.4-2.1c-8.6-3.6-17.2-13.3-24.8-17.9
	c-30.7-18.4-109.9-58.3-132.5-5.7c-14.5,33.2,21.5,66,33.8,82.8c9.2,11.8,21,25.1,27.5,38.4c3.6,8.7,4.8,17.9,8.6,27.1
	c8.6,22.5,16.7,47.6,28,68.5c6,10.7,12.4,22,19.9,31.7c4.3,5.7,11.9,8.2,13.5,17.4c-7.5,10.2-8.1,25.6-12.4,38.4
	C207,519.1,214.6,590.7,242,633.3c8.6,12.8,29,40.9,56.6,30.2c24.2-9.2,18.8-38.4,25.8-63.9c1.6-6.1,0.5-10.2,3.8-14.3v1.1
	l22.1,42.4c16.7,25.1,45.8,51.1,70,68.5c12.9,9.2,23.2,25.1,39.3,30.7v-1.5h-1.1c-3.2-4.6-8.1-6.6-12.4-10.2
	c-9.7-9.2-20.5-20.5-28-30.7c-22.6-28.6-42.5-60.3-60.3-93.1c-8.6-15.9-16.2-33.2-23.2-49.1c-3.3-6.1-3.3-15.4-8.6-18.4
	c-8.1,11.2-19.9,21-25.9,34.8c-10.2,22-11.3,49.1-15.1,77.2c-2.2,0.5-1.2,0-2.2,1.1c-17.2-4.1-23.2-21-29.6-35.3
	c-16.2-36.3-18.9-94.6-4.9-136.5c3.8-10.7,19.9-44.5,13.5-54.7c-3.3-9.7-14-15.3-19.9-23c-7-9.7-14.5-22-19.4-32.7
	c-12.9-28.7-19.4-60.3-33.4-89c-6.5-13.3-17.8-27.1-26.9-39.4c-10.2-13.8-21.5-23.5-29.6-39.9c-2.7-5.7-6.5-14.8-2.1-21
	c1.1-4.1,3.2-5.7,7.5-6.6c7-5.7,26.9,1.5,33.9,4.6c19.9,7.7,36.6,14.8,53.3,25.6c7.5,5.1,15.6,14.8,25.3,17.4H262
	c17.2,3.6,36.6,1.1,52.8,5.7c28.5,8.7,54.4,21.5,77.6,35.3c70.5,42.4,128.7,102.8,168,174.9c6.5,11.8,9.1,22.5,15.1,34.8
	c11.3,25.1,25.3,50.6,36.6,75.2c11.3,24,22.1,48.6,38.2,68.5c8.1,10.7,40.4,16.4,54.9,22c10.8,4.6,27.5,8.7,37.2,14.3
	c18.3,10.7,36.6,23,53.8,34.8c8.6,6.1,35.6,18.9,37.2,29.1L833.4,701.9z M284.2,257.5c-7.4-0.1-14.9,0.8-22.1,2.6v1.1h1.1
	c4.3,8.2,11.9,13.8,17.2,21l12.4,24.6l1.1-1.1c7.5-5.1,11.3-13.3,11.3-25.6c-3.2-3.6-3.8-7.2-6.5-10.7
	C295.5,264.1,288.5,261.6,284.2,257.5L284.2,257.5z"/>
</svg>
