<?xml version="1.0" encoding="utf-8"?>
<!-- Generator: Adobe Illustrator 26.4.1, SVG Export Plug-In . SVG Version: 6.00 Build 0)  -->
<svg version="1.1" id="Layer_1" xmlns="http://www.w3.org/2000/svg" xmlns:xlink="http://www.w3.org/1999/xlink" x="0px" y="0px"
	 viewBox="0 0 1000 1000" style="enable-background:new 0 0 1000 1000;" xml:space="preserve">
<path d="M473.5,103.4c-1.7,0.2-7.3,0.7-12.3,1.1c-115.1,10.2-222.9,71-291.2,164.4c-38,52-62.3,110.9-71.5,173.4
	c-3.2,21.8-3.6,28.2-3.6,57.8c0,29.6,0.4,36,3.6,57.8c22,149,130.3,274.2,277.1,320.6c26.3,8.3,54,14,85.5,17.4
	c12.3,1.3,65.3,1.3,77.6,0c54.4-5.9,100.5-19.1,146-41.8c7-3.5,8.3-4.4,7.4-5.2c-0.6-0.5-30.3-39.5-66-86.6l-64.8-85.7l-81.2-117.7
	c-44.7-64.7-81.4-117.6-81.7-117.6c-0.3-0.1-0.6,52.2-0.8,116c-0.2,111.8-0.3,116.3-1.7,118.9c-2.1,3.8-3.6,5.4-7,7.1
	c-2.5,1.2-4.8,1.5-16.7,1.5h-13.7l-3.6-2.2c-2.4-1.5-4.1-3.4-5.3-5.7l-1.7-3.5l0.2-155.5l0.2-155.6l2.5-3c1.3-1.6,4-3.7,5.9-4.7
	c3.2-1.6,4.5-1.7,18.2-1.7c16.2,0,18.9,0.6,23,5.1c1.2,1.2,45.1,66.1,97.7,144.2c52.6,78.1,124.5,184.8,159.8,237.1l64.2,95.2
	l3.2-2.1c28.8-18.3,59.2-44.4,83.2-71.5c51.2-57.6,84.3-127.9,95.4-202.8c3.2-21.8,3.6-28.2,3.6-57.8c0-29.6-0.4-36-3.6-57.8
	c-22-149-130.3-274.2-277.1-320.6c-25.9-8.2-53.5-13.9-84.4-17.3C532.4,103.6,480,102.8,473.5,103.4z M639.3,343.4
	c3.8,1.9,6.9,5.4,8,9.2c0.6,2,0.8,45.1,0.6,142.3l-0.2,139.5l-25.1-37.7L597.4,559V457.6c0-65.5,0.3-102.4,0.8-104.2
	c1.3-4.3,4-7.8,7.8-9.8c3.2-1.6,4.4-1.8,16.9-1.8C634.6,341.8,636.7,342,639.3,343.4z"/>
</svg>
