<?xml version="1.0" encoding="utf-8"?>
<!-- Generator: Adobe Illustrator 26.4.1, SVG Export Plug-In . SVG Version: 6.00 Build 0)  -->
<svg version="1.1" id="Layer_1" xmlns="http://www.w3.org/2000/svg" xmlns:xlink="http://www.w3.org/1999/xlink" x="0px" y="0px"
	 viewBox="0 0 1000 1000" style="enable-background:new 0 0 1000 1000;" xml:space="preserve">
<g>
	<path d="M639.3,343.4c-2.6-1.4-4.7-1.6-16.4-1.6c-12.4,0-13.6,0.2-16.9,1.8c-3.8,2-6.6,5.4-7.8,9.8c-0.5,1.8-0.8,38.6-0.8,104.2
		V559l25.2,37.7l25.1,37.7l0.2-139.5c0.2-97.2,0-140.3-0.6-142.3C646.2,348.8,643.1,345.3,639.3,343.4z"/>
	<path d="M850,0H150C67.2,0,0,67.2,0,150v700c0,82.8,67.2,150,150,150h700c82.8,0,150-67.2,150-150V150C1000,67.2,932.8,0,850,0z
		 M901.5,557.9c-11.1,74.9-44.1,145.2-95.4,202.8c-24.1,27.1-54.5,53.2-83.2,71.5l-3.2,2.1l-64.2-95.2
		c-35.3-52.4-107.2-159-159.8-237.1c-52.6-78.1-96.6-143-97.7-144.2c-4.2-4.5-6.9-5.1-23-5.1c-13.7,0-15,0.2-18.2,1.7
		c-1.9,1-4.6,3.1-5.9,4.7l-2.5,3l-0.2,155.6l-0.2,155.5l1.7,3.5c1.2,2.2,2.9,4.2,5.3,5.7l3.6,2.2h13.7c12,0,14.2-0.2,16.7-1.5
		c3.3-1.7,4.9-3.3,7-7.1c1.4-2.6,1.5-7.1,1.7-118.9c0.2-63.8,0.5-116.1,0.8-116c0.3,0,37.1,52.9,81.7,117.6l81.2,117.7l64.8,85.7
		c35.6,47.2,65.3,86.2,66,86.6c1,0.8-0.4,1.7-7.4,5.2c-45.5,22.7-91.6,35.9-146,41.8c-12.3,1.3-65.3,1.3-77.6,0
		c-31.5-3.4-59.2-9.1-85.5-17.4C228.8,832.1,120.5,706.9,98.5,557.9c-3.2-21.8-3.6-28.2-3.6-57.8c0-29.6,0.4-36,3.6-57.8
		c9.2-62.4,33.5-121.4,71.5-173.4c68.3-93.5,176.1-154.3,291.2-164.4c5-0.4,10.5-0.9,12.3-1.1c6.6-0.6,58.9,0.2,66.5,1
		c30.9,3.4,58.5,9.1,84.4,17.3c146.8,46.4,255.1,171.6,277.1,320.6c3.2,21.8,3.6,28.2,3.6,57.8C905.1,529.6,904.7,536.1,901.5,557.9
		z"/>
</g>
</svg>
