<?xml version="1.0" encoding="utf-8"?>
<!-- Generator: Adobe Illustrator 26.4.1, SVG Export Plug-In . SVG Version: 6.00 Build 0)  -->
<svg version="1.1" id="Layer_1" xmlns="http://www.w3.org/2000/svg" xmlns:xlink="http://www.w3.org/1999/xlink" x="0px" y="0px"
	 viewBox="0 0 1000 1000" style="enable-background:new 0 0 1000 1000;" xml:space="preserve">
<style type="text/css">
	.st0{fill:#231F20;}
</style>
<path class="st0" d="M467.1,157.1c17.6-10,40-10,57.2,0l262.6,148c16.4,9.2,27.4,27.5,27.3,46.5v296.8c0.1,19.7-12,38.4-29.3,47.5
	L523.7,843.2c-18.2,10.1-40.4,9.4-58-1.6l-78.4-45.3c-5.3-3.2-11.3-5.7-15.1-10.9c3.3-4.5,9.3-5.1,14.1-7
	c10.9-3.5,20.9-8.8,30.9-14.4c2.5-1.8,5.6-1.1,8,0.5l66.8,38.7c4.8,2.7,9.6-0.9,13.7-3.2l256.5-144.7c3.2-1.5,4.9-4.9,4.7-8.4V352.9
	c0.4-4-1.9-7.6-5.5-9.2L500.9,197.1c-3.1-2.1-7.1-2.1-10.2,0L230.5,344c-3.5,1.6-5.9,5.2-5.5,9.1v293.9c-0.3,3.5,1.5,6.7,4.7,8.2
	l69.5,39.2c13.1,7,29.1,11,43.5,5.8c12.9-4.9,21.4-17.2,21.3-31l0.1-292.2c-0.3-4.3,3.8-7.9,8-7.5h33.4c4.4-0.1,7.8,4.6,7.3,8.9
	l-0.1,294c0,26.1-10.7,54.5-34.9,67.3c-29.8,15.4-66.6,12.2-96-2.6l-74.8-41.3c-17.6-8.8-29.4-27.8-29.3-47.5V351.8
	c0.1-19.6,10.9-37.7,28.2-47.1L467.1,157.1z M542.8,362.8c38-2.2,78.6-1.5,112.8,17.3c26.4,14.3,41.1,44.4,41.6,73.8
	c-0.7,4-4.9,6.2-8.7,5.9c-11,0-22,0.2-33.1-0.1c-4.7,0.2-7.4-4.1-8-8.3c-3.2-14.1-10.8-28-24.1-34.8c-20.3-10.2-43.9-9.7-66-9.5
	c-16.2,0.9-33.6,2.3-47.3,11.8c-10.6,7.2-13.7,22-10,33.5c3.5,8.4,13.3,11.1,21.2,13.6c45.8,12,94.3,11,139.2,26.5
	c18.6,6.4,36.8,18.9,43.1,38.4c8.3,26.1,4.7,57.2-13.9,78.2c-15,17.2-36.9,26.4-58.8,31.7c-29.1,6.5-59.3,6.6-88.8,3.7
	c-27.8-3.2-56.7-10.5-78.1-29.4c-18.3-15.9-27.3-40.7-26.4-64.6c0.2-4,4.2-6.9,8.1-6.5h33c4.4-0.3,7.7,3.5,7.9,7.7
	c2,13.2,7.1,27.5,18.8,35.2c22.6,14.6,50.9,13.5,76.7,14c21.4-0.9,45.4-1.2,62.9-15.4c9.2-8.1,11.9-21.5,9.5-33.2
	c-2.7-9.8-13.2-14.4-22-17.6c-45.2-14.3-94.2-9.1-138.9-25.3c-18.2-6.4-35.7-18.6-42.7-37.2c-9.7-26.4-5.3-59.1,15.2-79.3
	c19.8-20.1,48.8-27.9,76.3-30.6L542.8,362.8z"/>
</svg>
