<?xml version="1.0" encoding="utf-8"?>
<!-- Generator: Adobe Illustrator 26.4.1, SVG Export Plug-In . SVG Version: 6.00 Build 0)  -->
<svg version="1.1" id="Layer_1" xmlns="http://www.w3.org/2000/svg" xmlns:xlink="http://www.w3.org/1999/xlink" x="0px" y="0px"
	 viewBox="0 0 1000 1000" style="enable-background:new 0 0 1000 1000;" xml:space="preserve">
<style type="text/css">
	.st0{fill:#CB3837;}
</style>
<g>
	<path class="st0" d="M454.2,570.5h93.3V382H359.2V618h95V570.5z M454.1,429.5H500v93.4h-45.9V429.5z"/>
	<polygon class="st0" points="688.4,429.5 735.9,429.5 735.9,570.5 783.5,570.5 783.5,429.5 831,429.5 831,570.5 878.5,570.5 
		878.5,382 688.4,382 595,382 595,570.5 688.4,570.5 	"/>
	<polygon class="st0" points="216.5,429.5 264.1,429.5 264.1,570.5 311.6,570.5 311.6,382 216.5,382 123.1,382 123.1,570.5 
		216.5,570.5 	"/>
	<path class="st0" d="M850,0H150C67.2,0,0,67.2,0,150v700c0,82.8,67.2,150,150,150h700c82.8,0,150-67.2,150-150V150
		C1000,67.2,932.8,0,850,0z M924.4,618H500v47.5H311.6V618H75.6V334.5h848.7V618z"/>
</g>
</svg>
