<?xml version="1.0" encoding="utf-8"?>
<!-- Generator: Adobe Illustrator 26.4.1, SVG Export Plug-In . SVG Version: 6.00 Build 0)  -->
<svg version="1.1" id="Layer_1" xmlns="http://www.w3.org/2000/svg" xmlns:xlink="http://www.w3.org/1999/xlink" x="0px" y="0px"
	 viewBox="0 0 1000 1000" style="enable-background:new 0 0 1000 1000;" xml:space="preserve">
<style type="text/css">
	.st0{fill:#190A0B;}
</style>
<path class="st0" d="M850,0H150C67.2,0,0,67.2,0,150v700c0,82.8,67.2,150,150,150h700c82.8,0,150-67.2,150-150V150
	C1000,67.2,932.8,0,850,0z M142.5,780.2c-46.9,0-76.2-50.4-52.8-90.7L345.3,250c23.5-40.3,82.1-40.3,105.5,0l72.4,124.6L329.7,706.4
	c-15.2,26-7.7,56.3,12.3,73.8H142.5z M868,780.2H445c-38.8,0-63.1-41.2-43.7-74.2l211.5-359.6c19.4-33,67.9-33,87.3,0L911.7,706
	C931.1,739,906.8,780.2,868,780.2z"/>
</svg>
