<?xml version="1.0" encoding="utf-8"?>
<!-- Generator: Adobe Illustrator 26.4.1, SVG Export Plug-In . SVG Version: 6.00 Build 0)  -->
<svg version="1.1" id="Layer_1" xmlns="http://www.w3.org/2000/svg" xmlns:xlink="http://www.w3.org/1999/xlink" x="0px" y="0px"
	 viewBox="0 0 1000 1000" style="enable-background:new 0 0 1000 1000;" xml:space="preserve">
<path d="M850,0H150C67.2,0,0,67.2,0,150v700c0,82.8,67.2,150,150,150h700c82.8,0,150-67.2,150-150V150C1000,67.2,932.8,0,850,0z
	 M634.6,322l-83.4,148.5c-23.7-15.3-50-26.4-78.1-32.4l29.3-139C548.9,299.3,593.5,307.4,634.6,322z M179.1,672.6h-56
	c-0.5-7.5-0.9-15-0.9-22.6c0-12.6,0.7-25,2.1-37.3l62,15.6C182.8,642.7,180.3,657.4,179.1,672.6z M191.7,609.6l-64.5-16.2
	c3.7-21,9.3-41.3,16.8-60.8l63.8,38.1C201.5,583,196.1,596,191.7,609.6z M217.2,553.5l-65.7-39.2c10.1-22.4,22.6-43.5,37.3-63.3
	l57.8,62.8C235.6,526,225.8,539.3,217.2,553.5z M260.1,499.8L201,435.5c14.4-17.4,30.6-33.4,48.2-48l46.3,84.1
	C282.9,479.9,271.1,489.3,260.1,499.8z M313.5,460.8l-44.3-88.7c22.7-16.3,47.4-30.2,73.8-41.5l22.9,109.5
	C347.5,444.9,330,451.9,313.5,460.8z M368.2,320.9c33.1-11.5,68.4-18.7,105.1-21L456.1,435c-10.4-1.4-21-2.3-31.8-2.3
	c-12.7,0-25.2,1.1-37.4,3.1L368.2,320.9z M622.2,539.4L453.8,692.9c-12.7,11.6-32.4,10.7-44-2c-11.6-12.7-13.9-33.3,4.2-45.7
	l194.3-124.3c-13.2-15.9-28.3-30-44.7-42.1l102.3-144.4c54.4,24.7,101.5,61.2,137.4,106L631.2,553.3
	C628.3,548.6,625.3,543.9,622.2,539.4z M876.9,672.6H669.4c-2.9-36.2-12.8-70.2-28-100.6l183.9-100.4
	c33.3,52.3,52.5,113.3,52.5,178.5C877.8,657.6,877.4,665.1,876.9,672.6z"/>
</svg>
