<?xml version="1.0" encoding="utf-8"?>
<!-- Generator: Adobe Illustrator 26.4.1, SVG Export Plug-In . SVG Version: 6.00 Build 0)  -->
<svg version="1.1" id="Layer_1" xmlns="http://www.w3.org/2000/svg" xmlns:xlink="http://www.w3.org/1999/xlink" x="0px" y="0px"
	 viewBox="0 0 1000 1000" style="enable-background:new 0 0 1000 1000;" xml:space="preserve">
<g>
	<path d="M191.7,609.6c4.4-13.5,9.8-26.5,16.1-39L144,532.5c-7.5,19.5-13.1,39.9-16.8,60.8L191.7,609.6z"/>
	<path d="M188.8,451c-14.6,19.7-27.2,40.9-37.3,63.3l65.7,39.2c8.6-14.2,18.4-27.5,29.3-39.7L188.8,451z"/>
	<path d="M502.4,299l-29.3,139c28.1,6,54.4,17.1,78.1,32.4L634.6,322C593.5,307.4,548.9,299.3,502.4,299z"/>
	<path d="M343,330.7c-26.4,11.2-51.1,25.2-73.8,41.5l44.3,88.7c16.5-8.9,34.1-15.9,52.4-20.7L343,330.7z"/>
	<path d="M631.2,553.3l171.9-112.8c-35.9-44.7-83-81.2-137.4-106L563.4,478.9c16.4,12.1,31.5,26.2,44.7,42.1L413.9,645.2
		c-18,12.4-15.7,32.9-4.2,45.7c11.6,12.7,31.3,13.6,44,2l168.4-153.5C625.3,543.9,628.3,548.6,631.2,553.3z"/>
	<path d="M124.4,612.7c-1.4,12.2-2.1,24.7-2.1,37.3c0,7.6,0.4,15.1,0.9,22.6h56c1.2-15.2,3.7-30,7.3-44.3L124.4,612.7z"/>
	<path d="M825.3,471.5L641.4,572c15.2,30.5,25.1,64.5,28,100.6h207.5c0.5-7.5,0.9-15,0.9-22.6C877.8,584.8,858.6,523.8,825.3,471.5z
		"/>
	<path d="M260.1,499.8c11-10.5,22.8-19.9,35.4-28.2l-46.3-84.1c-17.6,14.6-33.8,30.6-48.2,48L260.1,499.8z"/>
	<path d="M456.1,435l17.3-135.1c-36.7,2.4-72,9.6-105.1,21l18.7,114.8c12.2-2,24.7-3.1,37.4-3.1C435,432.7,445.6,433.6,456.1,435z"
		/>
</g>
</svg>
