<?xml version="1.0" encoding="utf-8"?>
<!-- Generator: Adobe Illustrator 26.4.1, SVG Export Plug-In . SVG Version: 6.00 Build 0)  -->
<svg version="1.1" id="svg2" xmlns="http://www.w3.org/2000/svg" xmlns:xlink="http://www.w3.org/1999/xlink" x="0px" y="0px"
	 viewBox="0 0 1000 1000" style="enable-background:new 0 0 1000 1000;" xml:space="preserve">
<g>
	<path d="M813.3,441.8c-15.4-4.6-34.8-6.8-58-6.5c-3.5,0.3-6.8,0.4-10,0.4c-2.8,0-5.7,0-8.8,0l-26.1,129.8c1.7,0.3,3.5,0.4,5.2,0.4
		h6.1c27.9,0.3,51.2-2.5,69.8-8.2c18.6-6.1,31.1-27.2,37.5-63.4l0,0C834.2,464,829,446.4,813.3,441.8z"/>
	<path d="M296,441.8c-15.4-4.6-34.8-6.8-58-6.5c-3.5,0.3-6.8,0.4-10,0.4c-2.8,0-5.7,0-8.8,0L193,565.6c1.7,0.3,3.5,0.4,5.2,0.4h6.1
		c27.9,0.3,51.2-2.5,69.8-8.2c18.6-6.1,31.1-27.2,37.5-63.4v0C316.9,464,311.7,446.4,296,441.8z"/>
	<path d="M850,0H150C67.2,0,0,67.2,0,150v700c0,82.8,67.2,150,150,150h700c82.8,0,150-67.2,150-150V150C1000,67.2,932.8,0,850,0z
		 M375,494.8c-2,15.3-6.5,30.4-13.5,45.2c-6.7,14.8-16,28.1-27.9,39.9c-14.5,15.1-30.1,24.6-46.7,28.7c-16.6,4.1-33.7,6.1-51.5,6.1
		H183l-16.6,82.5h-60.6l62.4-311.3h116.9l0,0c34.3,0.3,59.2,10.1,74.6,29.5C375.1,434.7,380.2,461.2,375,494.8z M591.5,614.6h-61.1
		l27.9-138.1c2.9-14.5,2-24.7-2.6-30.8c-4.6-6.1-14.7-9.1-30.1-9.1l-48.4-0.4l-35.8,178.4h-60.2l62.8-311.7h60.2l-17,82.9h54.1
		c29.7,0.6,51.8,6.7,66.3,18.2l0,0c14.8,11.6,19.2,33.6,13.1,66L591.5,614.6z M892.2,494.8c-2,15.3-6.5,30.4-13.5,45.2
		c-6.7,14.8-16,28.1-27.9,39.9c-14.5,15.1-30.1,24.6-46.7,28.7c-16.6,4.1-33.7,6.1-51.5,6.1h-52.4l-16.6,82.5H623l62.4-311.3h116.9
		c34.3,0.3,59.2,10.1,74.6,29.5l0,0C892.4,434.7,897.5,461.2,892.2,494.8z"/>
</g>
</svg>
