<?xml version="1.0" encoding="utf-8"?>
<!-- Generator: Adobe Illustrator 26.4.1, SVG Export Plug-In . SVG Version: 6.00 Build 0)  -->
<svg version="1.1" id="svg2" xmlns="http://www.w3.org/2000/svg" xmlns:xlink="http://www.w3.org/1999/xlink" x="0px" y="0px"
	 viewBox="0 0 1000 1000" style="enable-background:new 0 0 1000 1000;" xml:space="preserve">
<path d="M285.1,385.8H168.2l-62.4,311.3h60.6l16.6-82.5h52.4c17.7,0,34.9-2,51.5-6.1c16.6-4.1,32.1-13.6,46.7-28.7
	c11.9-11.9,21.2-25.2,27.9-39.9c7-14.8,11.5-29.8,13.5-45.2c5.2-33.6,0.1-60.1-15.3-79.5C344.3,395.9,319.4,386.1,285.1,385.8
	L285.1,385.8z M311.7,494.3c-6.4,36.2-18.9,57.3-37.5,63.4c-18.6,5.8-41.9,8.5-69.8,8.2h-6.1c-1.7,0-3.5-0.1-5.2-0.4l26.1-129.8
	c3.1,0,6,0,8.8,0c3.2,0,6.5-0.1,10-0.4c23.3-0.3,42.6,1.9,58,6.5C311.7,446.4,316.9,464,311.7,494.3L311.7,494.3z"/>
<path d="M607.7,404.1c-14.5-11.6-36.7-17.7-66.3-18.2h-54.1l17-82.9h-60.2l-62.8,311.7h60.2l35.8-178.4l48.4,0.4
	c15.4,0,25.5,3,30.1,9.1c4.6,6.1,5.5,16.4,2.6,30.8l-27.9,138.1h61.1l29.2-144.6C626.9,437.6,622.5,415.7,607.7,404.1L607.7,404.1z"
	/>
<path d="M877,415.3c-15.4-19.4-40.3-29.2-74.6-29.5H685.4L623,697.1h60.6l16.6-82.5h52.4c17.7,0,34.9-2,51.5-6.1
	c16.6-4.1,32.1-13.6,46.7-28.7c11.9-11.9,21.2-25.2,27.9-39.9c7-14.8,11.5-29.8,13.5-45.2C897.5,461.2,892.4,434.7,877,415.3
	L877,415.3z M829,494.3c-6.4,36.2-18.9,57.3-37.5,63.4c-18.6,5.8-41.9,8.5-69.8,8.2h-6.1c-1.7,0-3.5-0.1-5.2-0.4l26.1-129.8
	c3.1,0,6,0,8.8,0c3.2,0,6.5-0.1,10-0.4c23.3-0.3,42.6,1.9,58,6.5C829,446.4,834.2,464,829,494.3L829,494.3z"/>
</svg>
