<?xml version="1.0" encoding="utf-8"?>
<!-- Generator: Adobe Illustrator 26.4.1, SVG Export Plug-In . SVG Version: 6.00 Build 0)  -->
<svg version="1.1"
	 id="svg1554" xmlns:rdf="http://www.w3.org/1999/02/22-rdf-syntax-ns#" xmlns:dc="http://purl.org/dc/elements/1.1/" xmlns:cc="http://creativecommons.org/ns#" xmlns:inkscape="http://www.inkscape.org/namespaces/inkscape" xmlns:sodipodi="http://sodipodi.sourceforge.net/DTD/sodipodi-0.dtd" xmlns:svg="http://www.w3.org/2000/svg" inkscape:version="0.92.3 (2405546, 2018-03-11)" sodipodi:docname="pptrdev-icon.svg"
	 xmlns="http://www.w3.org/2000/svg" xmlns:xlink="http://www.w3.org/1999/xlink" x="0px" y="0px" viewBox="0 0 1000 1000"
	 style="enable-background:new 0 0 1000 1000;" xml:space="preserve">
<style type="text/css">
	.st0{fill-rule:evenodd;clip-rule:evenodd;fill:#050908;}
	.st1{fill-rule:evenodd;clip-rule:evenodd;fill:#6C6C6C;}
	.st2{fill-rule:evenodd;clip-rule:evenodd;fill:#7C7C7C;}
</style>
<sodipodi:namedview  bordercolor="#666666" borderopacity="1" gridtolerance="10" guidetolerance="10" id="namedview1556" inkscape:current-layer="svg1554" inkscape:cx="86.5" inkscape:cy="128" inkscape:pageopacity="0" inkscape:pageshadow="2" inkscape:window-height="810" inkscape:window-maximized="0" inkscape:window-width="1352" inkscape:window-x="67" inkscape:window-y="27" inkscape:zoom="0.921875" objecttolerance="10" pagecolor="#ffffff" showgrid="false">
	</sodipodi:namedview>
<path id="path1544" inkscape:connector-curvature="0" class="st0" d="M324.1,91.3c0,0.5-0.5,0.9-1.1,0.9c-1.7,0-2.9,0.6-2.9,1.5
	c0,0.5-0.6,0.8-1.7,0.8c-1,0-1.9,0.4-2.1,0.9c-0.2,0.5-0.8,0.9-1.4,0.9c-1.6,0-2.8,0.6-2.8,1.5c0,0.5-0.6,0.8-1.7,0.8
	c-1,0-1.9,0.4-2.1,0.9c-0.2,0.5-1,0.9-1.9,0.9c-1.1,0-1.7,0.4-2,1.1c-0.3,0.8-0.9,1.1-2,1.1c-0.9,0-1.8,0.4-1.9,0.9
	c-0.2,0.5-1,0.9-1.9,0.9c-1,0-1.6,0.4-1.8,1.1c-0.2,0.9-0.8,1.1-2.2,1.1c-1.3,0-1.9,0.3-1.9,0.9s-0.6,0.9-2,0.9c-1.4,0-2,0.3-2,0.9
	c0,0.5-0.5,0.9-1.1,0.9c-1.7,0-2.9,0.6-2.9,1.5c0,0.5-0.6,0.8-1.7,0.8c-1,0-1.9,0.4-2.1,0.9c-0.2,0.5-0.8,0.9-1.4,0.9
	c-1.6,0-2.8,0.6-2.8,1.5c0,0.5-0.6,0.8-1.7,0.8c-1,0-1.9,0.4-2.1,0.9c-0.2,0.5-1,0.9-2,0.9c-1.2,0-1.8,0.3-2,1.1
	c-0.2,0.8-0.8,1.1-1.9,1.1c-0.9,0-1.6,0.2-1.6,0.5s-0.5,1.1-1.1,1.8c-1.5,1.7-1.8,39.5-0.4,40.4c0.4,0.2,0.9,0.9,1.1,1.5
	c0.2,0.6,1,1,2.1,1c1.2,0,1.7,0.3,1.7,0.9c0,0.6,0.6,0.9,1.9,0.9c1.5,0,2,0.3,2.2,1.1c0.2,0.8,0.8,1.1,2.1,1.1
	c1.2,0,1.8,0.3,1.8,0.9c0,0.6,0.6,0.9,1.9,0.9c1.5,0,2,0.3,2.2,1.1c0.2,0.8,0.8,1.1,2.1,1.1c1.2,0,1.8,0.3,1.8,0.9
	c0,0.6,0.6,0.9,2,0.9s2,0.3,2,0.9s0.6,0.9,2,0.9c1.6,0,2,0.2,2,1.1c0,0.9,0.4,1.1,2,1.1c1.4,0,2,0.3,2,0.9c0,0.6,0.6,0.9,1.6,0.9
	c1,0,1.9,0.4,2.3,1.1c0.4,0.7,1.3,1.1,2.2,1.1c0.8,0,1.6,0.4,1.8,0.9c0.2,0.5,1,0.9,2,0.9c1,0,1.7,0.3,1.7,0.8c0,0.4,0.4,1,1,1.2
	c0.8,0.3,0.9,0.5,0.1,0.9c-0.7,0.4-0.9,2.4-1,9.8c-0.1,7.1-0.4,9.4-1,10.1c-0.7,0.7-0.8,2.9-0.8,10.8c0,8.9-0.1,10.1-1,10.8
	c-0.9,0.6-1,2-1.2,10.8c-0.1,7.8-0.4,10.3-1,10.9c-0.6,0.7-0.8,2.9-0.8,10.8c0,8.7-0.1,10.1-0.9,10.7c-0.6,0.4-1,1.8-1.2,3.9
	c-0.3,3.1-0.3,3.2-1.9,3.2c-0.9,0-2,0.4-2.5,0.9c-0.5,0.5-1.4,0.9-2,0.9c-0.7,0-1.7,0.5-2.3,1.1c-0.7,0.7-1.6,1.1-2.6,1.1
	c-0.8,0-1.6,0.4-1.8,0.8c-0.2,0.4-1.2,1-2.3,1.2c-1.2,0.2-2,0.7-2,1.2c0,0.6-0.6,0.8-2,0.8c-1.4,0-2,0.3-2,0.9
	c0,0.6-0.6,0.9-1.8,0.9c-1.3,0-1.9,0.3-2.1,1.1c-0.2,0.9-0.8,1.1-2.2,1.1c-1.3,0-1.9,0.3-1.9,0.9c0,0.6-0.6,0.9-1.8,0.9
	c-1.3,0-1.9,0.3-2.1,1.1c-0.2,0.6-0.8,1.1-1.4,1.1c-0.6,0-1.1,0.4-1.1,0.9c0,0.5-0.4,0.9-0.9,0.9c-0.5,0-0.9,0.3-0.9,0.7
	c0,0.4-0.5,1-1.1,1.4c-1.8,1.1-1.8,34.9,0,36.7c0.7,0.7,1.1,1.6,1.1,2.6c0,0.9,0.4,1.6,1,1.8c0.5,0.2,1.2,0.7,1.5,1.1
	c0.2,0.4,1.1,0.8,1.9,0.8c0.8,0,1.6,0.4,1.7,0.8c0.2,0.5,1.2,1,2.2,1.2c1.1,0.2,2,0.7,2.2,1.2c0.2,0.4,0.9,0.8,1.7,0.8
	c0.8,0,1.5,0.4,1.7,0.9c0.2,0.5,1,0.9,1.8,0.9c1,0.1,1.9,0.5,2.6,1.1c0.6,0.6,1.6,1.1,2.2,1.1s1.2,0.4,1.4,0.9
	c0.2,0.5,1,0.9,1.9,0.9c1,0,1.9,0.4,2.3,1.1c0.5,0.8,1.3,1.1,3,1.1c2.4,0,3.4,1.7,1.4,2.5c-0.7,0.3-0.9,1.5-0.9,6.1
	c0,4.5-0.2,5.7-0.8,5.7c-0.8,0-1.5,1.7-1.5,3.9c0,0.7-0.4,1.7-0.9,2.2c-0.5,0.5-0.9,1.4-0.9,2c0,0.6-0.4,1.5-0.9,1.8
	c-0.5,0.4-1,1.7-1.2,3.1c-0.2,1.3-0.7,2.7-1.1,3c-0.4,0.4-0.8,1.6-0.8,2.8c0,1.2-0.4,2.4-0.8,2.8c-0.4,0.4-1,1.3-1.2,2.2
	c-0.2,0.8-0.7,1.8-1.2,2.3c-0.5,0.5-0.8,1.8-0.8,3c0,1.3-0.3,2.3-0.8,2.5c-0.4,0.2-1,1-1.2,1.8c-0.2,0.9-0.8,1.9-1.2,2.4
	c-0.5,0.5-0.8,1.8-0.8,3c0,1.4-0.3,2.3-0.9,2.5c-0.6,0.2-0.9,1.1-0.9,2.9c0,1.7-0.3,2.7-0.8,2.9c-0.5,0.2-1,1-1.2,1.9
	c-0.2,0.9-0.7,1.9-1.2,2.3c-0.5,0.4-0.8,1.7-0.8,2.9c0,1.5-0.4,2.6-1.1,3.4c-0.7,0.7-1.1,1.9-1.1,3.1c0,1.1-0.4,2.3-0.9,2.6
	c-0.5,0.5-0.8,1.3-0.9,2c0,0.7-0.4,1.4-0.8,1.6c-0.5,0.2-1,1.3-1.2,2.5c-0.2,1.2-0.7,2.9-1.2,3.7c-0.5,0.9-0.8,1.9-0.8,2.4
	c0,0.5-0.3,1-0.8,1.2c-0.5,0.2-1,1.5-1.2,3c-0.2,1.5-0.8,3.1-1.2,3.5s-0.8,1.8-0.8,3c0,1.4-0.3,2.3-0.9,2.5c-0.5,0.2-0.9,1-0.9,2.1
	c0,1.1-0.3,1.7-0.8,1.7c-0.8,0-1.5,1.7-1.5,3.9c0,0.7-0.4,1.7-0.9,2.2c-0.5,0.5-0.9,1.9-0.9,3.1c0,1.9-0.2,2.2-1.1,2.2
	c-0.6,0-1.1,0.4-1.1,0.9c0,0.5-0.4,0.9-0.9,0.9s-0.9,0.5-0.9,1.1c0,0.6-0.4,1.1-0.9,1.1c-0.5,0-1,0.4-1.3,1
	c-0.3,0.6-0.7,1.2-1.1,1.8c-0.4,0.5-0.7,1.1-0.7,1.7c0,0.5-0.5,1.3-1.1,1.7c-0.8,0.5-1.1,1.3-1.1,2.6c0,1.2-0.3,2.1-0.9,2.3
	c-1.3,0.5-1.3,370,0,371.3c0.5,0.5,0.9,1.6,0.9,2.6c0,1.1,0.4,2,1.1,2.5c0.7,0.5,1.1,1.2,1.1,2c0,0.7,0.3,1.5,0.8,1.7
	c0.4,0.3,0.9,0.9,1.1,1.5c0.2,0.5,0.8,1,1.2,1c0.5,0,0.9,0.5,0.9,1.1s0.4,1.1,0.9,1.1s0.9,0.4,0.9,0.9c0,0.5,0.5,0.9,1.1,0.9
	c0.6,0,1.1,0.4,1.1,0.9c0,0.5,0.4,0.9,0.9,0.9c0.5,0,0.9,0.4,0.9,0.9c0,0.5,0.4,1,1,1.2c0.5,0.2,1.2,0.7,1.5,1.1
	c0.2,0.4,1.1,0.8,1.8,0.8c0.9,0,1.5,0.4,1.7,1.1c0.3,0.8,0.9,1.1,2.1,1.1c0.9,0,2.1,0.4,2.6,0.9c1.3,1.3,484.4,1.3,484.9,0
	c0.2-0.5,1.1-0.9,2.3-0.9c1.5,0,2.1-0.3,2.3-1.1c0.2-0.7,0.8-1.1,1.7-1.1c0.8,0,1.5-0.4,1.7-0.9c0.2-0.5,0.8-0.9,1.4-0.9
	c0.7,0,1.1-0.4,1.1-1.1c0-0.8,0.4-1.1,1.1-1.1c0.6,0,1.1-0.4,1.1-0.9c0-0.5,0.4-0.9,0.9-0.9s0.9-0.4,0.9-0.9c0-0.5,0.4-0.9,0.9-0.9
	c0.5,0,0.9-0.5,0.9-1.1c0-0.8,0.4-1.1,1.1-1.1c0.7,0,1.1-0.4,1.1-1.1c0-0.6,0.4-1.2,0.9-1.4c0.5-0.2,0.9-0.9,0.9-1.7
	c0-0.9,0.4-1.5,1.1-1.7c0.8-0.2,1.1-0.8,1.2-2.2c0-1.1,0.4-2.4,0.9-3c1.3-1.7,1.2-370.5,0-371.6c-0.5-0.4-0.9-1.6-0.9-2.7
	c0-1.5-0.3-2.1-1.1-2.3c-0.8-0.2-1.1-0.8-1.1-1.9c0-0.9-0.4-1.7-0.9-1.9c-0.5-0.2-0.9-0.7-0.9-1.2c0-0.5-0.5-0.9-1.1-0.9
	c-0.8,0-1.1-0.4-1.1-1.1c0-0.6-0.4-1.1-0.9-1.1c-0.6,0-0.9-0.7-0.9-2.6c0-1.4-0.4-3.3-0.8-4.1c-0.4-0.8-1-2.5-1.2-3.7
	s-0.7-2.3-1.2-2.5c-0.5-0.2-0.8-1.1-0.8-2.3c0-1.1-0.4-2.7-0.8-3.5c-0.4-0.8-1-2.5-1.2-3.7c-0.2-1.2-0.7-2.3-1.2-2.5
	c-0.5-0.2-0.8-1.2-0.8-2.8c0-1.7-0.3-2.6-0.9-2.9c-0.6-0.2-0.9-1.1-0.9-2.6s-0.4-2.6-1.1-3.4c-0.7-0.7-1.1-1.9-1.1-3.1
	c0-1.1-0.4-2.3-0.9-2.8c-0.5-0.5-0.9-1.5-0.9-2.2c0-2.2-0.7-3.9-1.5-3.9c-0.6,0-0.8-0.8-0.8-2.8c0-2-0.3-2.9-0.9-3.1
	c-0.6-0.2-0.9-1.1-0.9-2.6c0-1.2-0.4-2.5-0.8-2.9c-0.4-0.4-0.9-1.7-1.1-3c-0.2-1.3-0.7-2.7-1.2-3.1c-0.5-0.4-0.9-1.5-0.9-2.5
	c0-1-0.5-2.8-1.1-3.9s-1.1-2.4-1.1-2.8c0-0.4-0.4-0.8-0.9-1c-0.6-0.2-0.9-1.1-0.9-2.6c0-1.3-0.4-2.5-0.9-2.9
	c-0.5-0.4-0.9-1.6-0.9-2.6c0-1.2-0.5-2.4-1.1-3.1c-0.8-0.8-1.1-1.9-1.1-3.4c0-1.2-0.4-2.5-0.9-2.9c-0.5-0.4-0.9-1.6-0.9-2.6
	c0-1.2-0.5-2.4-1.1-3.1c-0.8-0.8-1.1-1.9-1.1-3.4c0-1.5-0.3-2.4-0.9-2.6c-0.6-0.2-0.9-1.1-0.9-2.6s-0.4-2.6-1.1-3.4
	c-0.8-0.8-1.1-1.9-1.1-3.4c0-1.5-0.3-2.4-0.9-2.6c-1.8-0.7-1.1-4.8,0.9-4.8c1,0,1.9-0.4,2.1-0.9c0.2-0.5,0.8-0.9,1.4-0.9
	s1.5-0.5,2.1-1.1s1.7-1.1,2.5-1.1c0.8,0,1.7-0.4,1.9-0.9c0.2-0.5,1-0.9,1.8-0.9s1.6-0.4,1.8-0.9c0.2-0.5,0.8-0.9,1.4-0.9
	c0.6,0,1.6-0.5,2.2-1.1c0.7-0.7,1.6-1.1,2.6-1.1c0.8,0,1.6-0.4,1.8-0.8c0.2-0.5,0.8-1,1.4-1.2c0.7-0.2,1.1-0.9,1.1-2
	c0-0.9,0.4-1.8,0.9-1.9c0.7-0.3,0.9-2.9,0.9-18.6c0-15.7-0.1-18.3-0.9-18.6c-0.5-0.2-0.9-0.7-0.9-1.2s-0.5-0.9-1.1-0.9
	s-1.1-0.4-1.1-0.9s-0.4-0.9-0.8-0.9c-0.4,0-0.9-0.5-1.1-1.1c-0.2-0.8-0.8-1.1-2-1.1c-1,0-1.8-0.4-2-0.9c-0.2-0.5-1-0.9-2-0.9
	c-1.2,0-1.8-0.3-2-1.1c-0.2-0.8-0.8-1.1-2-1.1c-1,0-1.8-0.4-2-0.9c-0.2-0.5-1-0.9-2.1-0.9c-1.1,0-1.7-0.3-1.7-0.8
	c0-0.5-0.8-1-1.9-1.2s-2.4-0.8-3-1.2c-0.6-0.4-1.5-0.8-1.9-0.8c-0.4,0-1.2-0.5-1.9-1.1c-0.6-0.6-1.7-1.1-2.4-1.1s-1.7-0.5-2.1-1.2
	c-0.5-0.7-1.2-1.5-1.5-2c-0.5-0.5-0.7-3.9-0.7-12.5c0-11-0.1-11.8-1.1-12.9c-1.1-1.1-1.1-1.9-1.1-13.2c0-10.1-0.1-12.1-0.9-12.3
	c-0.7-0.3-0.9-2.1-0.9-11.4c0-10.3-0.1-11.2-1.1-12.2c-1.1-1.1-1.1-1.9-1.1-10.8v-9.7h1.7c1.1,0,1.9-0.4,2.3-1.1
	c0.4-0.8,1.2-1.1,2.3-1.1c1.1,0,1.7-0.3,1.7-0.9c0-0.6,0.6-0.9,2-0.9c1.6,0,2-0.2,2-1.1s0.4-1.1,2-1.1c1.4,0,2-0.3,2-0.9
	c0-0.6,0.6-0.9,2-0.9c1.4,0,2-0.3,2-0.9c0-0.6,0.6-0.9,1.8-0.9c1.3,0,1.9-0.3,2.1-1.1c0.2-0.9,0.8-1.1,2.2-1.1
	c1.3,0,1.9-0.3,1.9-0.9c0-0.6,0.6-0.9,1.8-0.9c1.3,0,1.9-0.3,2.1-1.1c0.2-0.9,0.8-1.1,2.2-1.1c1.3,0,1.9-0.3,1.9-0.9
	c0-0.6,0.6-0.9,1.7-0.9c1.3,0,1.7-0.3,1.7-1.1c0-0.6,0.5-1.2,1.1-1.4c1.8-0.5,1.8-37.9,0-39.5c-0.6-0.6-1.1-1.5-1.1-2.1
	c0-0.8-0.4-1.1-1.7-1.1c-1.1,0-1.9-0.4-2.3-1.1c-0.4-0.7-1.2-1.1-2-1.1c-0.8,0-1.6-0.4-1.8-0.9c-0.2-0.5-1-0.9-2-0.9
	c-1.1,0-1.7-0.3-1.7-0.8c0-0.5-0.8-1-2-1.2c-1.1-0.2-2.1-0.7-2.3-1.2c-0.2-0.4-1.1-0.8-2-0.8c-1.1,0-1.7-0.3-1.7-0.8
	c0-0.9-1.2-1.5-2.8-1.5c-0.6,0-1.2-0.4-1.4-0.9c-0.2-0.5-1-0.9-2.1-0.9c-1.2,0-1.7-0.3-1.7-0.9c0-0.6-0.6-0.9-1.9-0.9
	c-1.5,0-2-0.3-2.2-1.1c-0.2-0.8-0.8-1.1-2.1-1.1c-1.2,0-1.8-0.3-1.8-0.9c0-0.6-0.6-0.9-1.9-0.9c-1.5,0-2-0.3-2.2-1.1
	c-0.2-0.8-0.8-1.1-1.8-1.1c-0.8,0-1.6-0.4-1.9-0.9c-0.2-0.5-1-0.9-1.9-0.9c-0.8,0-2-0.5-2.5-1.1c-0.5-0.6-1.5-1.1-2.1-1.1
	c-0.6,0-1.2-0.4-1.4-0.9c-0.2-0.5-1-0.9-2.1-0.9c-1.1,0-1.7-0.3-1.7-0.8c0-0.5-0.8-1-2-1.2c-1.1-0.2-2.1-0.7-2.3-1.2
	c-0.5-1.2-12.8-1.2-13.3,0.1c-0.2,0.5-0.8,0.9-1.4,0.9c-1.6,0-2.8,0.6-2.8,1.5c0,0.5-0.6,0.8-1.7,0.8c-1,0-1.9,0.4-2.1,0.9
	c-0.2,0.5-0.9,0.9-1.7,0.9c-0.8,0-1.6,0.5-2.1,1.1c-0.4,0.7-1.3,1.1-2.2,1.1c-0.8,0-1.7,0.4-1.8,0.9c-0.2,0.5-1,0.9-2.1,0.9
	c-1.4,0-1.7,0.2-1.7,1.1c0,0.9-0.4,1.1-2,1.1c-1.4,0-2,0.3-2,0.9c0,0.6-0.6,0.9-2,0.9c-1.6,0-2,0.2-2,1.1c0,0.9-0.4,1.1-2,1.1
	c-1.4,0-2,0.3-2,0.9c0,0.6-0.6,0.9-2,0.9c-1.4,0-2,0.3-2,0.9c0,0.6-0.6,0.9-1.8,0.9c-1.3,0-1.9,0.3-2.1,1.1c-0.2,0.8-0.8,1.1-2,1.1
	c-1,0-1.8,0.4-2,0.9c-0.2,0.5-0.9,0.9-1.7,0.9c-0.8,0-1.6,0.5-2.1,1.1c-0.4,0.7-1.3,1.1-2.3,1.1c-0.9,0-1.7,0.4-1.9,0.9
	c-0.2,0.5-1,0.9-1.9,0.9c-1.1,0-1.7,0.4-2,1.1c-0.3,0.8-0.9,1.1-2,1.1c-1.1,0-1.7,0.3-1.7,0.9c0,0.6-0.6,0.9-2,0.9
	c-1.6,0-2,0.2-2,1.1s-0.4,1.1-2,1.1c-1.4,0-2,0.3-2,0.9c0,0.6-0.6,0.9-2,0.9c-1.4,0-2,0.3-2,0.9c0,0.5-0.3,0.9-0.8,0.9
	c-0.4,0-1.2,0.5-1.8,1.1s-1.5,1.1-2,1.1s-1.4,0.4-1.9,0.9c-0.5,0.5-1.2,0.8-1.9,0.9c-0.6,0-1.6,0.5-2.1,1.1s-1.5,1.1-2,1.1
	s-1.4,0.4-1.9,0.9c-0.5,0.5-1.4,0.9-2,0.9c-0.6,0-1.5,0.5-1.9,1.1s-1.3,1.1-2,1.1c-0.7,0-1.6,0.4-2.1,0.9c-0.5,0.5-1.4,0.9-2,0.9
	s-1.5,0.5-1.9,1.1c-0.4,0.6-1.3,1.1-1.9,1.1s-1.5,0.4-1.9,0.9c-0.4,0.5-1.3,0.9-2.1,0.9c-0.8,0-1.6,0.5-2.1,1.1
	c-0.4,0.6-1.3,1.1-1.9,1.1c-0.7,0-1.5,0.4-1.9,0.9c-0.4,0.5-1.3,0.9-2.1,0.9c-0.8,0-1.5,0.4-1.7,0.9s-0.9,0.9-1.6,0.9
	c-0.7,0-1.7,0.5-2.3,1.1c-0.6,0.6-1.5,1.1-2,1.1s-1.4,0.4-1.9,0.9c-0.5,0.5-1.2,0.8-1.9,0.9c-0.6,0-1.6,0.5-2.1,1.1
	c-0.6,0.6-1.5,1.1-2,1.1s-1.4,0.4-1.9,0.9c-0.5,0.5-1.4,0.9-2,0.9c-0.6,0-1.5,0.5-1.9,1.1c-0.4,0.6-1.3,1.1-1.9,1.1
	c-0.7,0-1.5,0.4-1.9,0.9c-0.4,0.5-1.3,0.9-2.1,0.9c-0.8,0-1.6,0.5-2.1,1.1c-0.4,0.6-1.3,1.1-1.9,1.1c-0.7,0-1.5,0.4-1.9,0.9
	s-1.3,0.9-2,0.9s-1.6,0.4-2,0.9c-0.4,0.5-1.1,0.9-1.5,0.9c-0.4,0-1.4,0.5-2,1.1c-0.7,0.6-1.6,1.1-2.2,1.1s-1.4,0.4-2,0.8
	c-0.6,0.5-1.5,0.8-2,0.9c-0.5,0-1.4,0.5-1.9,1.2c-0.6,0.6-1.5,1.1-2,1.1c-0.5,0-1.3,0.4-1.7,0.9c-0.4,0.5-1.2,0.9-1.8,0.9
	s-1.7,0.4-2.5,0.9c-1.3,0.8-1.4,0.8-1.4,0c0-0.7-0.5-0.9-2-0.9c-1.4,0-2-0.3-2-0.9s-0.6-0.9-2-0.9c-1.6,0-2-0.2-2-1.1
	c0-0.9-0.4-1.1-1.7-1.1c-1.1,0-1.7-0.3-1.7-0.9c0-0.6-0.6-0.9-1.9-0.9c-1.5,0-2-0.3-2.2-1.1c-0.2-0.8-0.8-1.1-2.1-1.1
	c-1.2,0-1.8-0.3-1.8-0.9c0-0.6-0.6-0.9-2-0.9c-1.4,0-2-0.3-2-0.9s-0.6-0.9-2-0.9c-1.6,0-2-0.2-2-1.1s-0.4-1.1-2-1.1
	c-1.4,0-2-0.3-2-0.9c0-0.6-0.6-0.9-2-0.9c-1.6,0-2-0.2-2-1.1s-0.4-1.1-2-1.1c-1.4,0-2-0.3-2-0.9s-0.6-0.9-2-0.9c-1.6,0-2-0.2-2-1.1
	c0-0.9-0.4-1.1-1.7-1.1c-0.9,0-1.8-0.4-2-0.9c-0.2-0.5-1-0.9-2-0.9c-1.2,0-1.8-0.3-2-1.1c-0.2-0.8-0.8-1.1-2.1-1.1
	c-1.2,0-1.8-0.3-1.8-0.9c0-0.6-0.6-0.9-2-0.9s-2-0.3-2-0.9s-0.6-0.9-2-0.9c-1.6,0-2-0.2-2-1.1s-0.4-1.1-2-1.1c-1.4,0-2-0.3-2-0.9
	s-0.6-0.9-2-0.9c-1.6,0-2-0.2-2-1.1c0-0.9-0.4-1.1-2-1.1c-1.4,0-2-0.3-2-0.9c0-0.6-0.6-0.9-2-0.9c-1.6,0-2-0.2-2-1.1
	c0-0.9-0.4-1.1-2-1.1c-1.4,0-2-0.3-2-0.9c0-0.6-0.6-0.9-1.6-0.9c-1.2,0-1.7-0.3-1.9-1.1c-0.2-0.8-0.8-1.1-2-1.1c-1,0-1.8-0.4-2-0.9
	c-0.2-0.5-1-0.9-2-0.9c-1.2,0-1.8-0.3-2-1.1c-0.2-0.8-0.8-1.1-2.1-1.1c-1.2,0-1.8-0.3-1.8-0.9c0-0.6-0.6-0.9-2-0.9
	c-1.4,0-2-0.3-2-0.9c0-0.6-0.6-0.9-2-0.9c-1.6,0-2-0.2-2-1.1c0-0.9-0.4-1.1-2-1.1c-1.4,0-2-0.3-2-0.9c0-0.6-0.6-0.9-2-0.9
	c-1.6,0-2-0.2-2-1.1c0-0.9-0.4-1.1-2-1.1c-1.4,0-2-0.3-2-0.9c0-0.6-0.6-0.9-1.9-0.9c-1.5,0-2-0.3-2.2-1.1c-0.2-0.8-0.8-1.1-1.7-1.1
	c-0.8,0-1.6-0.4-1.7-0.9c-0.2-0.5-1-0.9-1.9-0.9c-1,0-1.9-0.4-2.3-1.1c-0.5-0.7-1.2-1.1-2.1-1.1c-0.7,0-1.5-0.4-1.7-0.9
	c-0.2-0.5-1-0.9-2.1-0.9c-1.2,0-1.7-0.3-1.7-0.9c0-0.6-0.6-0.9-1.9-0.9c-1.5,0-2-0.3-2.2-1.1c-0.2-0.8-0.8-1.1-2.1-1.1
	c-1.2,0-1.8-0.3-1.8-0.9c0-0.6-0.6-0.9-1.9-0.9c-1.5,0-2-0.3-2.2-1.1c-0.2-0.8-0.8-1.1-2.1-1.1c-1.2,0-1.8-0.3-1.8-0.9
	c0-0.6-0.6-0.9-2-0.9s-2-0.3-2-0.9c0-0.5-0.7-1-1.8-1.2c-1-0.2-1.9-0.7-2.1-1.1c-0.2-0.4-1-0.8-1.8-0.8c-0.8,0-2-0.5-2.5-1.1
	c-0.5-0.6-1.5-1.1-2.1-1.1s-1.2-0.4-1.4-0.9c-0.2-0.5-1.5-0.7-6.8-0.7C325.3,90.5,324.1,90.6,324.1,91.3 M354.4,118.4l51.9,26.1
	l29.6,15.2c0.2,0.3,0.8,0.5,1.4,0.5c0.7,0.1,1.4,0.4,1.9,0.9c0.5,0.5,1,0.9,1.2,0.9c0.4,0,5,2.3,9.4,4.6c1.7,0.9,3.4,1.7,3.8,1.7
	c0.4,0,0.9,0.4,1.3,0.8c0.4,0.4,1.4,1,2.4,1.2c0.9,0.2,1.7,0.6,1.7,0.8s0.8,0.6,1.7,0.9c0.9,0.2,1.9,0.6,2,0.8
	c0.8,1.3,43.6,22,45.5,22c1.7,0,37.2-17.1,45.7-22c0.5-0.3,4.1-2.1,8-4l26.1-13l8.1-4.1c0.5-0.3,2.3-1.2,4-2.1
	c1.8-0.9,3.9-2.2,4.8-2.9s5-3,9.1-5.1l38-19.1l31.6-15.4c0.6,0,3.9,1.4,7.4,3.1l10.6,5.1c14,6.6,21.5,10.3,21.7,10.7
	c0.2,0.3,1,0.7,1.9,0.9c3.6,0.9,2.9,1.3-23.2,14l-54,26.9c-0.8,0.5-33.5,16.8-36,18c-23.4,11.2-49.5,24.9-50.5,26.5
	c-2.6,4.5-1,9.7,3.8,12.2l11,5.8c4.4,2.3,15.6,8,24.8,12.5l17.7,8.9c0.7,0.4,1.5,0.8,2.2,1.1c0.7,0.3,8.6,4.2,17.4,8.6l32.6,16.3
	l18.6,9.3c0.5,0.3,3,1.6,5.7,2.9l29.3,14.8c0.6,0.5-3.1,3.4-4.3,3.4c-0.5,0-1.1,0.3-1.4,0.6c-0.3,0.3-4,2.2-8.2,4.3
	c-4.2,2-7.9,3.9-8.3,4.2c-0.4,0.3-1.3,0.7-2.1,1c-0.8,0.2-1.6,0.6-1.7,0.8c-0.2,0.2-2.7,1.5-5.7,2.9s-5.8,2.9-6.3,3.3
	c-1,0.8-5.8,1-6.6,0.2c-0.3-0.3-17.2-8.9-37.7-19.2l-38.3-19.8c-1-1-34.6-18.1-62.5-31.9l-8-4c-4.5-2.5-23-11.5-24.6-11.9
	c-2-0.5-5.6,0.8-10.8,3.9c-0.5,0.3-2.4,1.3-4.3,2.2c-3.9,1.9-17.1,8.5-18.8,9.4c-0.6,0.3-17.3,8.7-37.1,18.7L401,291.4
	c-2.1,1.1-4.2,2.1-6.3,3.2L361,311.5c-18.8,9.5-29.1,14.4-30.3,14.3c-2.3,0-41.2-19.4-41.2-20.6c0-0.8,34.6-18.5,37.5-19.2
	c0.9-0.2,1.6-0.5,1.6-0.8c0-0.2,23.5-12.2,52.1-26.6l60.1-30.3l9.4-4.9c3.6-1.8,4.5-2.8,5.1-5.5c0.8-3.3,0.1-6.7-1.8-8.4
	c-1.6-1.4-135.6-68.3-159.6-79.7c-2-0.9-3.6-1.8-3.6-1.9c0-0.1-0.1-0.6-0.3-1c-0.2-0.6,0.9-1.5,4.4-3.1l15.3-7.2
	c0.6-0.3,1.2-0.6,1.7-0.9c0.5-0.3,2-1,3.3-1.6c2.8-1.3,5.5-2.6,8.3-4C331.1,106.2,329,105.7,354.4,118.4 M736.5,142.5
	c0,0.8-0.2,1.7-0.5,2c-0.3,0.3-0.6,2.4-0.7,4.7c-0.2,4.3-1.9,6.9-4.5,7c-0.5,0-1.1,0.2-1.4,0.5c-0.6,0.6-8.8,4.8-11.1,5.8
	c-0.8,0.3-1.8,0.8-2.3,1.1c-2.9,1.7-3.9,2.1-36.8,18.3l-25.4,12.6c-0.5,0.3-1.4,0.8-2,1.1s-11.3,5.5-23.7,11.6
	c-29.7,14.6-29.9,14.7-31.2,14.7c-0.6,0-1.7-0.3-2.4-0.7c-1.7-0.9-3.3-1.8-5-2.7c-5.5-2.9-5.3-3.2,5.8-8.6l11.1-5.5
	c0.8-0.4,1.8-0.8,2.2-0.8c0.4,0,1.2-0.4,1.7-0.9c2.2-2,125.3-63,125.7-62.3C736.3,140.8,736.5,141.7,736.5,142.5 M356,178.2
	l75.2,37.9c0.3,0.6-1.9,2.6-3.7,3.4c-0.8,0.3-2.7,1.4-4.3,2.3c-1.6,0.9-3.2,1.7-3.6,1.7c-0.4,0-12.1-5.6-26-12.5l-67.5-33.2
	c-0.2,0-0.8-0.4-1.3-0.9c-0.5-0.5-1.2-0.8-1.9-0.9c-0.6,0-1.2-0.2-1.4-0.5c-0.2-0.3-1.8-1.2-3.6-2s-3.7-1.8-4.2-2.1
	c-0.5-0.3-1.5-0.8-2.3-1.1c-5-2.4-9.9-4.8-14.9-7.4c-0.5-0.3-4-2-7.9-3.9c-10.8-5.3-9.9-4.3-9.9-11.5c0-6,0.2-6.9,1.4-6.9
	C280.7,140.8,314.7,157.6,356,178.2 M688.5,205.9c0,9.6,0.1,11.5,0.9,11.8c0.7,0.3,0.9,2.1,0.9,11.4c0,10.3,0.1,11.2,1.1,12.2
	c1.1,1.1,1.1,1.9,1.1,13.2c0,10.1,0.1,12.1,0.9,12.3c0.5,0.2,0.9,0.7,0.9,1.2c0,0.7-0.2,0.8-0.7,0.2c-0.4-0.4-1.6-0.7-2.8-0.7
	c-1.3,0-2.2-0.3-2.4-0.9c-0.2-0.6-1.2-0.9-3.1-0.9c-2.3,0-2.9-0.2-3.1-1.1c-0.2-0.8-0.8-1.1-2.1-1.1c-1.2,0-1.8-0.3-1.8-0.9
	c0-0.6-0.6-0.9-2-0.9c-1.6,0-2-0.2-2-1.1c0-0.9-0.4-1.1-2-1.1c-1.4,0-2-0.3-2-0.9c0-0.6-0.6-0.9-1.7-0.9c-1.1,0-1.7-0.3-1.7-0.9
	c0-0.6-0.6-0.9-1.9-0.9c-1.5,0-2-0.3-2.2-1.1c-0.2-0.8-0.8-1.1-2.1-1.1c-1.2,0-1.8-0.3-1.8-0.9c0-0.6-0.6-0.9-1.9-0.9
	c-1.5,0-2-0.3-2.2-1.1c-0.2-0.8-0.8-1.1-2.1-1.1c-1.2,0-1.8-0.3-1.8-0.9c0-0.6-0.6-0.9-1.9-0.9c-1.5,0-2-0.3-2.2-1.1
	c-0.2-0.8-0.8-1.1-2.1-1.1c-1.2,0-1.8-0.3-1.8-0.9c0-0.6-0.6-0.9-1.9-0.9c-1.5,0-2-0.3-2.2-1.1c-0.2-0.8-0.8-1.1-2.1-1.1
	c-1.2,0-1.8-0.3-1.8-0.9s-0.6-0.9-1.7-0.9c-0.9,0-1.8-0.4-2-0.9s-1-0.9-2-0.9c-1.2,0-1.8-0.3-2.1-1.1c-0.2-0.8-0.9-1.1-2-1.1
	c-0.9,0-1.8-0.4-1.9-0.9c-0.2-0.5-1-0.9-2-0.9c-1.2,0-1.8-0.3-2-1.1c-0.2-0.6-0.7-1.1-1.2-1.1c-0.5,0-0.9-0.4-0.9-0.9
	c0-0.6,0.6-0.9,2-0.9c1.6,0,2-0.2,2-1.1s0.4-1.1,2-1.1c1.4,0,2-0.3,2-0.9c0-0.6,0.6-0.9,1.8-0.9c1.3,0,1.9-0.3,2.1-1.1
	c0.2-0.9,0.8-1.1,2.2-1.1c1.3,0,1.9-0.3,1.9-0.9c0-0.6,0.6-0.9,1.8-0.9c1.3,0,1.9-0.3,2.1-1.1c0.2-0.9,0.8-1.1,2.2-1.1
	c1.3,0,1.9-0.3,1.9-0.9c0-0.6,0.6-0.9,1.8-0.9c1.3,0,1.9-0.3,2.1-1.1c0.2-0.9,0.8-1.1,2.2-1.1c1.3,0,1.9-0.3,1.9-0.9
	c0-0.6,0.6-0.9,1.7-0.9s1.7-0.3,1.7-0.9c0-0.6,0.6-0.9,1.8-0.9c1.3,0,1.9-0.3,2.1-1.1c0.2-0.9,0.8-1.1,2.2-1.1
	c1.3,0,1.9-0.3,1.9-0.9c0-0.6,0.6-0.9,1.8-0.9c1.3,0,1.9-0.3,2.1-1.1c0.2-0.9,0.8-1.1,2.2-1.1c1.3,0,1.9-0.3,1.9-0.9
	c0-0.5,0.4-0.9,0.9-0.9c0.5,0,0.9-0.5,0.9-1.1c0-0.9,0.4-1.1,2-1.1c1.4,0,2-0.3,2-0.9s0.6-0.9,2-0.9c1.6,0,2-0.2,2-1.1
	c0-0.9,0.4-1.1,2-1.1c1.4,0,2-0.3,2-0.9c0-0.6,0.6-0.9,2-0.9c1.6,0,2-0.2,2-1.1c0-0.8,0.4-1.1,1.1-1.1c1.1,0,1.1,0.4,1.1,11.4
	 M333.8,198.4c1.1,0,1.7,0.3,1.9,1.1c0.2,0.8,0.8,1.1,2,1.1c1,0,1.8,0.4,2,0.9c0.2,0.5,1,0.9,2,0.9c1.2,0,1.8,0.3,2,1.1
	c0.2,0.6,0.7,1.1,1.2,1.1s0.9,0.4,0.9,0.9c0,0.6,0.6,0.9,1.9,0.9c1.5,0,2,0.3,2.2,1.1c0.2,0.8,0.8,1.1,2.1,1.1
	c1.2,0,1.8,0.3,1.8,0.9c0,0.6,0.6,0.9,1.6,0.9c1,0,1.9,0.4,2.3,1.1c0.5,0.7,1.2,1.1,2.1,1.1c0.7,0,1.5,0.4,1.7,0.9
	c0.2,0.5,1,0.9,2.1,0.9c1.2,0,1.7,0.3,1.7,0.9c0,0.6,0.6,0.9,1.9,0.9c1.5,0,2,0.3,2.2,1.1c0.2,0.8,0.8,1.1,2.1,1.1
	c1.2,0,1.8,0.3,1.8,0.9c0,0.6,0.6,0.9,2,0.9c1.6,0,2,0.2,2,1.1c0,0.9,0.4,1.1,2,1.1c1.4,0,2,0.3,2,0.9c0,0.6,0.6,0.9,2,0.9
	c1.6,0,2,0.2,2,1.1s0.4,1.1,2,1.1c1.4,0,2,0.3,2,0.9c0,0.6,0.6,0.9,1.6,0.9c1.2,0,1.7,0.3,1.9,1.1c0.2,0.8,0.8,1.1,2.1,1.1
	c1.9,0,2.5,1.3,0.9,1.9c-0.5,0.2-0.9,0.7-0.9,1.2c0,0.6-0.6,0.9-2,0.9c-1.4,0-2,0.3-2,0.9c0,0.6-0.6,0.9-1.8,0.9
	c-1.3,0-1.9,0.3-2.1,1.1c-0.2,0.9-0.8,1.1-2.2,1.1c-1.3,0-1.9,0.3-1.9,0.9c0,0.6-0.6,0.9-1.7,0.9c-1,0-1.9,0.4-2.1,0.9
	c-0.2,0.5-0.9,0.9-1.7,0.9c-0.8,0-1.6,0.5-2.1,1.1c-0.4,0.7-1.3,1.1-2.3,1.1c-1,0-1.6,0.3-1.6,0.9c0,0.6-0.6,0.9-1.8,0.9
	c-1.3,0-1.9,0.3-2.1,1.1c-0.2,0.9-0.8,1.1-2.2,1.1c-1.3,0-1.9,0.3-1.9,0.9c0,0.6-0.6,0.9-2,0.9c-1.6,0-2,0.2-2,1.1s-0.4,1.1-2,1.1
	c-1.4,0-2,0.3-2,0.9c0,0.6-0.6,0.9-2,0.9c-1.6,0-2,0.2-2,1.1s-0.4,1.1-2,1.1c-1.4,0-2,0.3-2,0.9c0,0.6-0.6,0.9-1.7,0.9
	c-1,0-1.9,0.4-2.1,0.9c-0.2,0.5-1,0.9-2,0.9c-1.2,0-1.8,0.3-2,1.1c-0.2,0.9-0.8,1.1-2.2,1.1c-1.3,0-1.9,0.3-1.9,0.9
	c0,0.5-0.5,0.9-1.5,0.9c-1,0-1.6,0.4-1.8,1.1c-0.3,1-0.8,1.1-3.4,1.1c-2.4,0-3.1,0.2-3.1,0.9c0,0.5-0.4,0.9-0.9,0.9
	c-0.5,0-0.9-0.4-0.9-0.9s0.4-1.3,0.9-1.8c0.7-0.7,0.9-2.7,0.9-11c0-8.5,0.1-10.2,0.9-10.5c0.7-0.3,0.9-2,0.9-10.8
	c0-9.8,0.1-10.5,1.1-11.2c1.1-0.7,1.1-1.3,1.1-9.9c0-7.6,0.1-9.2,0.9-9.5c0.6-0.2,0.9-1.2,0.9-3c0-1.5,0.2-2.2,0.3-1.7
	C332.2,198.1,332.8,198.5,333.8,198.4 M500.5,264.2c0.2,7.1,0.5,6.7-7.7,10.8l-8.2,4.1c-2.7,1.3-5.3,2.7-8,4l-8,4
	c-4.9,2.6-9.9,5-14.9,7.4c-0.8,0.3-1.9,0.9-2.4,1.2c-1.7,1-2.8,1.5-10.1,5.1l-8,4c-0.5,0.3-14.6,7.3-31.4,15.7l-31.4,15.6
	c-3.6,2-15,7.4-15.6,7.4c-0.4,0-1.1,0.4-1.5,0.9c-0.4,0.5-1,0.8-1.7,0.9c-0.5,0-1.6,0.5-2.4,1.1c-2.3,1.8-9.5,5.3-10.1,4.9
	c-0.7-0.4-0.8-10.5-0.1-11.6c0.6-1,159.5-80.6,160.6-80.5C500.2,259.3,500.4,260.3,500.5,264.2 M560.8,280.6l44,22.5
	c0.4,0.5,2.9,1.9,5.5,3.2l5.7,2.9c0.5,0.3,4.1,2.1,8,4l10.1,5.1c0.5,0.3,1.8,0.9,2.7,1.3c7.1,3.2,37.1,18.5,38,19.4
	c1.5,1.4,1.7,11.7,0.3,12.2c-0.9,0.4-4-1.1-11-5.1c-2.6-1.5-5.1-2.7-5.5-2.7c-1.1,0-52.9-26-54.3-27.3c-1.1-1-8.4-5-11.8-6.4
	c-0.8-0.3-1.8-0.8-2.3-1.1c-0.5-0.3-1.2-0.7-1.7-0.9c-0.6-0.2-1.2-0.5-1.7-0.8c-2.3-1.3-4.6-2.4-14-7.1c-4.7-2.3-6.5-3.2-8.9-4.5
	c-0.5-0.3-1.6-0.8-2.6-1.3c-3.2-1.4-14.7-7.2-16.7-8.4c-0.5-0.3-1.6-0.8-2.4-1.2c-2.3-1-14-6.9-14.6-7.4c-0.3-0.2-1.2-0.7-2-0.9
	c-0.8-0.2-1.6-0.6-1.7-0.8s-2.1-1.3-4.3-2.3l-4-2l-0.2-6.1c-0.1-5.6-0.1-6.1,0.9-6.1C517,259,537,268.7,560.8,280.6 M511.2,288.4
	c0.2,0.5,1,0.9,2,0.9s1.8,0.4,2,0.9c0.2,0.5,1,0.9,1.9,0.9c1.1,0,1.7,0.3,1.9,1.1c0.2,0.8,0.8,1.1,2,1.1c1,0,1.8,0.4,2,0.9
	c0.2,0.5,1,0.9,2,0.9c1.2,0,1.8,0.3,2,1.1c0.2,0.8,0.8,1.1,2.1,1.1c1.2,0,1.8,0.3,1.8,0.9c0,0.6,0.6,0.9,1.9,0.9
	c1.5,0,2,0.3,2.2,1.1c0.2,0.8,0.8,1.1,2.1,1.1c1.2,0,1.8,0.3,1.8,0.9c0,0.6,0.6,0.9,1.9,0.9c1.5,0,2,0.3,2.2,1.1
	c0.2,0.8,0.8,1.1,1.7,1.1c0.8,0,1.6,0.4,1.7,0.9c0.2,0.5,1,0.9,2,0.9c1,0,1.8,0.4,2,0.9c0.2,0.5,1,0.9,2,0.9c1.2,0,1.8,0.3,2,1.1
	c0.2,0.8,0.8,1.1,2.1,1.1c1.2,0,1.8,0.3,1.8,0.9c0,0.6,0.6,0.9,1.9,0.9c1.5,0,2,0.3,2.2,1.1c0.2,0.8,0.8,1.1,2.1,1.1
	c1.2,0,1.8,0.3,1.8,0.9c0,0.6,0.6,0.9,1.9,0.9c1.5,0,2,0.3,2.2,1.1c0.2,0.8,0.8,1.1,2.1,1.1c1.2,0,1.8,0.3,1.8,0.9
	c0,0.6,0.6,0.9,1.9,0.9c1.5,0,2,0.3,2.2,1.1c0.2,0.8,0.8,1.1,2.1,1.1c1.2,0,1.8,0.3,1.8,0.9c0,0.5,0.6,0.9,1.7,0.9
	c0.9,0,1.8,0.4,2,0.9s1,0.9,2,0.9c1.2,0,1.8,0.3,2,1.1c0.2,0.8,0.8,1.1,2.1,1.1c1.2,0,1.8,0.3,1.8,0.9c0,0.6,0.6,0.9,1.9,0.9
	c1.5,0,2,0.3,2.2,1.1c0.2,0.8,0.8,1.1,2.1,1.1c1.2,0,1.8,0.3,1.8,0.9c0,0.5,0.4,0.9,0.8,0.9c0.4,0,0.9,0.5,1.1,1.1
	c0.2,0.8,0.8,1.1,2.1,1.1c1.2,0,1.8,0.3,1.8,0.9c0,0.6,0.6,0.9,1.9,0.9c1.5,0,2,0.3,2.2,1.1c0.2,0.8,0.8,1.1,2.1,1.1
	c1.2,0,1.8,0.3,1.8,0.9c0,0.6,0.6,0.9,1.9,0.9c1.5,0,2,0.3,2.2,1.1c0.2,0.8,0.8,1.1,2.1,1.1c1.2,0,1.8,0.3,1.8,0.9
	c0,0.6,0.6,0.9,2,0.9c1.4,0,2,0.3,2,0.9c0,0.6,0.6,0.9,2,0.9c1.6,0,2,0.2,2,1.1c0,0.9,0.4,1.1,2,1.1c1.4,0,2,0.3,2,0.9
	c0,0.6,0.6,0.9,1.8,0.9c1.3,0,1.9,0.3,2.1,1.1c0.2,0.8,0.8,1.1,1.9,1.1c1.1,0,1.6,0.3,1.6,0.9c0,0.6,0.6,0.9,1.9,0.9
	c1.5,0,2,0.3,2.2,1.1c0.2,0.8,0.8,1.1,2.1,1.1c1.2,0,1.8,0.3,1.8,0.9c0,0.6,0.6,0.9,1.9,0.9c1.5,0,2,0.3,2.2,1.1
	c0.2,0.8,0.8,1.1,2.1,1.1c1.2,0,1.8,0.3,1.8,0.9c0,0.6,0.6,0.9,2,0.9c1.4,0,2,0.3,2,0.9c0,0.6,0.6,0.9,2,0.9c1.6,0,2,0.2,2,1.1
	s0.4,1.1,2,1.1c1.4,0,2,0.3,2,0.9c0,0.6,0.6,0.9,1.8,0.9c1.3,0,1.9,0.3,2.1,1.1c0.2,0.8,0.8,1.1,1.9,1.1c0.9,0,1.7,0.4,1.9,0.9
	c0.2,0.6,1.1,0.9,2.9,0.9s2.7-0.3,2.9-0.9c0.2-0.5,1-0.9,2-0.9c1.2,0,1.8-0.3,2-1.1c0.2-0.8,0.8-1.1,1.9-1.1c1.1,0,1.6-0.3,1.6-0.9
	c0-0.6,0.6-0.9,2-0.9c1.6,0,2-0.2,2-1.1s0.4-1.1,2-1.1c1.4,0,2-0.3,2-0.9c0-0.7,0.3-0.6,1.1,0.3c1.1,1.1,1.1,1.9,1.1,12.7
	c0,9.1,0.2,11.8,0.8,12.8c0.6,0.9,0.9,3.8,1,12.2c0.2,9.7,0.3,11.1,1.2,11.7c0.9,0.7,1,2,1,12.8c0,9.8,0.2,12.2,0.8,12.9
	c0.7,0.7,0.9,3.1,1,11.7l0.2,10.9H306.4v-3.2c0-2.1,0.3-3.5,0.9-4c0.7-0.7,0.9-2.6,0.9-9.9c0-7.5,0.1-9.1,0.9-9.4
	c0.7-0.3,0.9-2,0.9-10.6c0-9.5,0.1-10.4,1.1-11.4c1.1-1.1,1.1-1.9,1.1-11.1c0-8.3,0.1-10,0.9-10.3c0.7-0.3,0.9-1.6,0.9-6.6
	c0-5.5,0.1-6.4,1.1-7.4c0.7-0.7,1.1-1.9,1.1-3.1c0-1.1,0.4-2.3,0.9-2.6c0.5-0.4,0.9-1.7,0.9-2.9c0-2.2,0.1-2.2,2-2.2
	c1.4,0,2,0.3,2,0.9c0,0.6,0.6,0.9,1.9,0.9c1.5,0,2,0.3,2.2,1.1c0.2,0.8,0.8,1.1,2,1.1c1,0,1.8,0.4,2,0.9c0.2,0.6,1.1,0.9,2.9,0.9
	c1.9,0,2.6-0.2,2.6-0.9c0-0.6,0.6-0.9,2-0.9c1.6,0,2-0.2,2-1.1s0.4-1.1,2-1.1c1.4,0,2-0.3,2-0.9c0-0.6,0.6-0.9,2-0.9
	c1.6,0,2-0.2,2-1.1c0-0.9,0.4-1.1,2-1.1c1.4,0,2-0.3,2-0.9c0-0.6,0.6-0.9,2-0.9c1.4,0,2-0.3,2-0.9c0-0.6,0.6-0.9,1.8-0.9
	c1.3,0,1.9-0.3,2.1-1.1c0.2-0.9,0.8-1.1,2.2-1.1c1.3,0,1.9-0.3,1.9-0.9c0-0.6,0.6-0.9,1.7-0.9c1.3,0,1.7-0.3,1.7-1.1
	c0-0.9,0.4-1.1,2-1.1c1.4,0,2-0.3,2-0.9c0-0.6,0.6-0.9,2-0.9c1.6,0,2-0.2,2-1.1s0.4-1.1,2-1.1c1.4,0,2-0.3,2-0.9
	c0-0.6,0.6-0.9,2-0.9c1.6,0,2-0.2,2-1.1c0-0.9,0.4-1.1,2-1.1c1.4,0,2-0.3,2-0.9s0.6-0.9,2-0.9c1.4,0,2-0.3,2-0.9
	c0-0.6,0.6-0.9,1.8-0.9c1.3,0,1.9-0.3,2.1-1.1c0.2-0.8,0.8-1.1,2-1.1c1,0,1.8-0.4,2-0.9c0.2-0.5,1-0.9,2-0.9c1.2,0,1.8-0.3,2-1.1
	c0.2-0.8,0.8-1.1,1.9-1.1c1.1,0,1.6-0.3,1.6-0.9c0-0.6,0.6-0.9,2-0.9c1.6,0,2-0.2,2-1.1c0-0.9,0.4-1.1,2-1.1c1.4,0,2-0.3,2-0.9
	s0.6-0.9,2-0.9c1.6,0,2-0.2,2-1.1c0-0.9,0.4-1.1,2-1.1c1.4,0,2-0.3,2-0.9c0-0.6,0.6-0.9,2-0.9c1.6,0,2-0.2,2-1.1
	c0-0.9,0.4-1.1,2-1.1c1.4,0,2-0.3,2-0.9c0-0.6,0.6-0.9,1.7-0.9c1,0,1.9-0.4,2.1-0.9c0.2-0.5,1-0.9,2-0.9c1.2,0,1.8-0.3,2-1.1
	c0.2-0.8,0.8-1.1,1.9-1.1c1.1,0,1.6-0.3,1.6-0.9c0-0.6,0.6-0.9,1.8-0.9c1.3,0,1.9-0.3,2.1-1.1c0.2-0.9,0.8-1.1,2.2-1.1
	c1.3,0,1.9-0.3,1.9-0.9c0-0.6,0.6-0.9,2-0.9c1.6,0,2-0.2,2-1.1c0-0.9,0.4-1.1,2-1.1c1.4,0,2-0.3,2-0.9c0-0.6,0.6-0.9,1.8-0.9
	c1.3,0,1.9-0.3,2.1-1.1c0.2-0.9,0.8-1.1,2.2-1.1c1.3,0,1.9-0.3,1.9-0.9c0-0.6,0.6-0.9,1.7-0.9c1,0,1.9-0.4,2.1-0.9
	c0.2-0.5,0.9-0.9,1.7-0.9c0.8,0,1.6-0.5,2.1-1.1c0.4-0.7,1.3-1.1,2.2-1.1c0.8,0,1.7-0.4,1.8-0.9c0.2-0.5,1-0.9,1.9-0.9
	c1,0,1.6-0.4,1.8-1.1c0.2-0.9,0.8-1.1,2.2-1.1c1.3,0,1.9-0.3,1.9-0.9c0-0.6,0.6-0.9,1.8-0.9c1.3,0,1.9-0.3,2.1-1.1
	c0.2-0.9,0.8-1.1,2.2-1.1c1.3,0,1.9-0.3,1.9-0.9c0-0.6,0.6-0.9,1.8-0.9c1.3,0,1.9-0.3,2.1-1.1c0.2-0.9,0.8-1.1,2.2-1.1
	c1.3,0,1.9-0.3,1.9-0.9c0-0.6,0.6-0.9,1.7-0.9c1,0,1.9-0.4,2.1-0.9c0.2-0.6,1.2-0.9,3.1-0.9s2.9,0.3,3.1,0.9 M290.5,322.7l10.8,5.4
	c3.1,1.8,14.7,7.4,15.2,7.4c0.4,0,1,0.4,1.4,0.9c0.4,0.5,1.1,0.9,1.6,0.9c2.8,0,4.1,2.6,4.1,8.3c0,6.6-0.4,6.9-5.4,4.3
	c-5.1-2.7-23.1-11.8-30.7-15.4c-8.7-4.2-8.5-4-8.5-10.5C279,316.4,277.9,316.5,290.5,322.7 M735,320.2c1.6,7.9,0.5,9.8-7.8,13.8
	c-15,7.2-24.8,12.1-27,13.5c-8.3,5.3-9.3,5.1-9.4-1.9c0-6.1-0.1-6.1,5.1-8.7l4-2.1c0.9-0.5,10.1-5,14-6.9c1.3-0.6,6.1-3.1,10.8-5.5
	C734.1,317.7,734.5,317.6,735,320.2 M731.2,446.3c0.6,0,0.8,0.7,0.8,2.5c0,1.5,0.3,2.8,0.9,3.2c0.5,0.4,0.9,1.5,0.9,2.5
	s0.3,2.3,0.8,2.9c0.4,0.6,0.9,2.1,1.1,3.3l0.3,2.1h-4.5v-6.6c0-5.3-0.2-6.6-0.9-6.9c-0.6-0.2-0.8-1.1-0.8-2.7c0-1.3,0.2-1.9,0.3-1.4
	C730.2,445.9,730.7,446.3,731.2,446.3 M284.8,460.3c0,2.2-0.2,2.6-1.1,2.6c-1.4,0-1.5-1.8-0.3-2.9c0.5-0.4,0.9-1.1,0.9-1.5
	c0-0.4,0.1-0.8,0.3-0.8C284.6,457.8,284.8,458.9,284.8,460.3 M746.2,476.5c5.5,2.4,12.7,8.5,12.7,10.9c0,0.6,0.2,1.3,0.6,1.5
	c2.5,1.5,4.6,35.2,2.5,40.5c-0.5,1.2-506.1,1.4-507.3,0.2c-2.4-2.4-0.3-41.6,2.3-41.6c0.3,0,0.5-0.3,0.5-0.8
	c0-2.1,8.9-9.6,12.4-10.4c0.9-0.2,1.9-0.6,2.2-0.8c1.2-0.9,8.9-0.9,237.9-0.9l233.3,0.1L746.2,476.5 M282.1,496.7
	c-2.7,1.9-3.7,6.2-2.3,9.4c3.3,7.7,15.3,5.2,15.3-3.2C295,496.7,287.4,493,282.1,496.7 M311.5,496.8c-3.1,2.9-3.9,5.9-2.4,9
	c4.3,8.8,17.4,4.9,15.3-4.6C323.4,496.1,315.3,493.3,311.5,496.8 M340.5,497.5c-7,7.2,3.5,18.4,10.6,11.4c2.6-2.6,2.9-3.1,2.9-6
	s-0.3-3.5-2.9-6C348.6,494.5,343.1,494.8,340.5,497.5 M761.8,541.1c1.5,1.5,1.1,309.7-0.4,313.7c-2.7,7.2-8.5,13-15.7,15.7
	c-3.1,1.2-3.3,1.2-237.6,1.2c-258.3,0-234.5,0.3-241.6-3c-2.6-1.2-8.6-7.2-9.8-9.8c-3-6.3-2.8,6.6-2.6-162.2l0.2-155.6l1.4-0.4
	C258.6,539.7,761,540.2,761.8,541.1 M286.3,660.9c-0.2,0.2-0.4,15.2-0.4,33.2v32.7h10.8l0-11.9c0-6.5,0.2-12.1,0.4-12.5
	c0.3-0.4,3.5-0.7,9-0.9c6.5-0.2,9-0.5,10.3-1.2c0.9-0.5,2.1-0.9,2.5-0.9c4.9,0,11.5-10.7,11.5-18.5c0-6.2-4.3-15.7-7.2-15.8
	c-0.4,0-1.3-0.5-2.1-1.2c-0.8-0.6-1.8-1.1-2.2-1.1s-1.2-0.4-1.8-1C316,660.7,287.3,659.8,286.3,660.9 M567.3,667.2
	c-0.9,0.2-1,1-1,6.5c0,7.1-0.5,8-4.7,8c-2.6,0-3.3,1.1-3.3,4.7c0,3,1.2,4.4,3.9,4.4c4.1,0,4.1,0,4.1,12c0,14.2,1.6,20.4,5.6,22.3
	c0.7,0.3,1.3,0.8,1.3,1.1c0,1,9.1,2.6,11,2c1-0.3,2.8-0.8,4-1c2.4-0.4,2.9-1.9,1.3-4c-0.5-0.6-0.8-1.7-0.8-2.4
	c0-2.6-0.4-2.9-3.6-2.7c-6.4,0.5-7.8-2.5-7.8-16.2v-9.9l1.5-0.6c0.8-0.3,3.2-0.6,5.4-0.6c4.6,0,4.7-0.2,4.4-5.7l-0.2-3.1l-4.6-0.3
	c-6.4-0.4-6.5-0.5-6.5-8c0-5.1-0.2-6.2-0.9-6.5C575.3,666.7,568.8,666.8,567.3,667.2 M312.5,671.8c7.7,1.5,9.4,12.7,2.6,17.2
	c-2.4,1.6-14.7,2.4-17.1,1.2c-1.5-0.8-1.9-16.8-0.5-18.2C298.2,671.2,308.7,671.1,312.5,671.8 M410.5,681.9c-1.3,0.8-2.4,1.7-2.4,2
	c0,0.8-3.5,2.4-4,1.9c-0.3-0.3-0.5-1.2-0.7-2.2l-0.2-1.7l-4.2-0.2c-3-0.1-4.3,0-4.7,0.6c-0.8,1.3-0.6,63.5,0.2,64.3
	c0.8,0.8,7.5,0.9,9.1,0.1c1.3-0.7,1.7-18.6,0.5-21.3c-0.5-0.9-0.4-1.9,0.1-2.7c0.4-0.8,0.8-1.1,0.9-0.6c0.1,0.4,0.6,0.7,0.9,0.7
	c0.4,0,1.7,0.9,2.8,1.9c4.3,3.9,15.8,4.5,19.8,1.1c0.5-0.4,1.1-0.8,1.4-0.8c0.3,0,1-0.4,1.5-1c0.5-0.5,1.6-1.6,2.5-2.4
	c11.3-10.7,7.7-33-6.3-39.6C423.3,679.8,414.1,679.8,410.5,681.9 M467.6,681.9c-1.3,0.8-2.4,1.7-2.4,2c0,0.8-3.5,2.4-4,1.9
	c-0.3-0.3-0.5-1.2-0.7-2.2l-0.2-1.7l-4.2-0.2c-3-0.1-4.3,0-4.7,0.6c-0.8,1.3-0.6,63.5,0.2,64.3c0.8,0.8,7.5,0.9,9.1,0.1
	c1.3-0.7,1.7-18.6,0.5-21.3c-0.5-0.9-0.4-1.9,0.1-2.7c0.4-0.8,0.8-1.1,0.9-0.6c0.1,0.4,0.6,0.7,0.9,0.7s1.7,0.9,2.8,1.9
	c4.3,3.9,15.8,4.5,19.8,1.1c0.5-0.4,1.1-0.8,1.4-0.8c0.3,0,1-0.4,1.5-1s1.6-1.6,2.5-2.4c11.3-10.7,7.7-33-6.3-39.6
	C480.3,679.8,471.2,679.8,467.6,681.9 M520.4,681.6c-1.2,0.6-2.4,1.1-2.7,1.1c-1.4,0-8.4,7.8-9.8,10.8c-4.1,9-2.1,21,4.6,27.9
	c1.1,1.1,4.6,3.5,5.2,3.5c0.3,0,0.8,0.4,1.1,0.8c0.4,0.4,1.9,1,3.4,1.2c1.5,0.2,3.5,0.7,4.5,1c3.1,1.1,13.8-1.5,16.8-4l2.3-2
	c0.8-0.7,2.2-2.2,3-3.3l1.5-2l-4.1-2.1c-5-2.6-4.2-2.6-7.7,0.7c-6.9,6.5-18.9,3.5-21.3-5.3c-1.2-4.4-1.4-4.3,17.5-4.3h16.2v-5.1
	c0-3.8-0.2-5.2-0.9-5.8c-0.5-0.4-0.9-1.3-0.9-2.1C549.1,684.4,529.4,676.8,520.4,681.6 M610.8,681.6c-1.1,0.6-2.3,1.1-2.7,1.1
	c-1,0-8.7,7.8-8.7,8.8c0,0.4-0.5,1.4-1.1,2.2c-0.7,0.9-1.1,2.3-1.1,3.7c0,1.2-0.2,3.1-0.5,4.1c-0.7,2.6,0.4,10.5,1.9,13.5
	c1.7,3.3,5.1,7.7,5.9,7.7c0.4,0,1.2,0.5,1.7,1.2c0.5,0.6,1.4,1.1,1.9,1.1c0.5,0,1.2,0.4,1.6,0.8c0.4,0.4,1.8,1,3.1,1.2
	c1.3,0.2,3.2,0.7,4.2,1c2.2,0.7,12.9-1,14-2.2c0.3-0.4,0.9-0.8,1.3-0.8c1,0,7.2-5.7,7.7-7.1c0.5-1.3-1.9-3.3-4.7-4
	c-0.8-0.2-1.5-0.6-1.5-0.9c0-1.1-2.2-0.5-3.1,0.9c-5.4,8.2-21.3,5.2-22.8-4.4c-0.6-3.6-0.8-3.6,17.3-3.9l16.4-0.3l0.2-4.1
	c0.1-3.2-0.1-4.7-1-6.7c-0.6-1.4-1.2-2.9-1.2-3.2c0-0.4-0.3-1-0.7-1.4c-0.4-0.4-1.3-1.7-2.1-2.7c-1.5-2-3.1-3.2-7.4-5.4
	C625.6,680,614,679.9,610.8,681.6 M664,681.4c-11.8,5.5-17.2,16.3-14.2,28.8c0.7,2.8,1.4,5.1,1.7,5.1c0.2,0,0.6,0.6,0.8,1.4
	c0.5,1.9,5.7,7.1,8.1,8.1c1.1,0.4,2.1,1,2.2,1.3c0.2,0.3,1.5,0.7,3,0.9c1.5,0.2,3.5,0.7,4.5,1c3.4,1.2,13.9-1.5,17.1-4.4
	c0.4-0.3,1.2-1,1.9-1.4c2.8-2,4.8-6.3,2.9-6.3c-0.3,0-1.8-0.8-3.4-1.7c-3.6-2.2-3.2-2.2-6.7,1.1c-6.3,5.9-17,4.1-20.7-3.5
	c-2.9-6-2.7-6.1,16.9-6.3l16.5-0.2l-0.1-3.7c0-3.4-1.2-8.1-2.6-10.3c-0.3-0.5-0.8-1.4-1.1-2.1c-0.3-0.7-0.8-1.3-1.1-1.3
	s-0.7-0.5-0.9-1.1c-0.3-1.1-4.2-3.8-7.8-5.4C678.2,680,666.9,680,664,681.4 M722.8,681.7c-1.1,0.7-3.1,2.2-4.3,3.4
	c-2.9,2.9-4.2,2.2-4.2-2.2c0-1.4-0.1-1.4-4.4-1.2l-4.4,0.2l-0.3,44.8H716l0-12.7c0-16.3,0.9-19.6,6-22.1l2.7-1.3
	c1.4-0.7,6-0.6,6.4,0.1c0.7,1.1,2.5-0.8,2.8-2.8c0.2-1.1,0.8-3,1.3-4.2c1.3-2.9,0.7-3.2-5.5-3.2
	C725.7,680.4,724.5,680.7,722.8,681.7 M339.4,681.9c-0.2,0.2-0.4,7.9-0.4,17.2v16.8l1.5,3.2c3.9,8.4,16.6,12,23.1,6.6
	c0.5-0.4,1.1-0.8,1.4-0.8c0.3,0,1.4-0.9,2.4-2.1c2.2-2.4,2.9-2.1,3.4,1.5l0.3,2.4h9.6v-44.5l-1.3-0.3c-0.7-0.2-3-0.2-5-0.2l-3.7,0.2
	l-0.3,12.9c-0.2,8.8-0.5,13.2-1,14.1c-0.4,0.7-0.7,1.7-0.7,2.3c-0.1,4.9-10,9-14.8,6.1c-4.1-2.4-4.3-3.5-4.5-19.6
	c-0.1-8.8-0.4-14.9-0.8-15.3C348,681.5,340.1,681.2,339.4,681.9 M533.3,689.5c2.8,0.6,6.6,4.3,6.9,6.6l0.2,1.7l-11.3,0.2
	c-8.8,0.1-11.3,0-11.3-0.6C517.2,691.8,525.4,687.7,533.3,689.5 M623.1,689.3c3.5,0.5,8,4.5,7.7,6.9l-0.2,1.6h-22.3l-0.2-1.3
	c-0.1-0.9,0.6-2.1,2.7-4.1C614.3,689.1,616.9,688.5,623.1,689.3 M676.7,689.5c1.9,0.4,3,1.1,4.5,2.6c5.2,5.3,4.6,5.7-8.6,5.7h-11.1
	l-0.2-1.5c-0.2-2,4.4-6.7,6.9-7C671.6,689,674.6,689,676.7,689.5 M420.9,690.4c0.5,0.5,1.2,0.9,1.7,0.9c1,0,5.5,4.2,5.5,5.1
	c0,0.4,0.4,1,0.9,1.5c3.7,3.7-0.4,15.8-6.4,18.9c-10.2,5.3-23.1-7-18.2-17.3c0.5-1.1,0.9-2.2,0.9-2.4
	C405.3,692.9,417.9,687.4,420.9,690.4 M478,690.4c0.5,0.5,1.2,0.9,1.7,0.9c1,0,5.5,4.2,5.5,5.1c0,0.4,0.4,1,0.9,1.5
	c3.7,3.7-0.4,15.8-6.4,18.9c-10.2,5.3-23.1-7-18.2-17.3c0.5-1.1,0.9-2.2,0.9-2.4C462.4,692.9,475,687.4,478,690.4"/>
<path id="path1550" inkscape:connector-curvature="0" class="st1" d="M327.3,108.2c-0.9,0.6-1.4,1.1-1.1,1.1c0.3,0,1.1-0.4,1.7-0.8
	c0.6-0.5,1.9-0.8,2.8-0.8c0.9,0,2.2,0.4,2.8,0.8c0.6,0.5,1.4,0.8,1.7,0.8c0.3,0-0.2-0.5-1.3-1.1
	C331.6,106.8,329.5,106.8,327.3,108.2 M680.2,108.2c-0.9,0.6-1.5,1.1-1.1,1.1s1.1-0.4,1.7-0.9c1.4-1.1,4.3-1,5.7,0
	c0.6,0.5,1.4,0.8,1.7,0.8c0.3,0-0.2-0.5-1.3-1.1C684.5,106.7,682.4,106.7,680.2,108.2 M340.4,111.8c1.8,1.3,6.1,3.4,6.4,3.1
	c0.1-0.1-1.2-1-3.1-1.9C339.6,111,339,110.7,340.4,111.8 M672.8,111.9c-0.6,0.5-0.9,0.8-0.5,0.8c0.3,0,1.1-0.4,1.7-0.8
	c0.6-0.5,0.9-0.8,0.5-0.8C674.2,111.1,673.4,111.4,672.8,111.9 M349,116.2c0.9,0.6,2,1.1,2.3,1.1c0.3,0-0.3-0.5-1.3-1.1
	C347.6,114.7,346.8,114.7,349,116.2 M664.2,116.2c-0.9,0.6-1.5,1.1-1.1,1.1c0.3,0,1.3-0.5,2.3-1.1c0.9-0.6,1.5-1.1,1.1-1.1
	C666.2,115.1,665.2,115.6,664.2,116.2 M302.7,119.9c-0.6,0.5-0.9,0.8-0.5,0.8s1.1-0.4,1.7-0.8s0.9-0.8,0.5-0.8
	C304.1,119.1,303.3,119.4,302.7,119.9 M356.4,119.8c1.7,1.2,6.1,3.4,6.4,3.1c0.1-0.1-1.3-1-3.1-1.9
	C355.7,119,354.9,118.7,356.4,119.8 M652.9,121.9c-0.9,0.6-1.5,1.1-1.1,1.1c0.3,0,1.3-0.5,2.3-1.1c0.9-0.6,1.5-1.1,1.1-1.1
	S653.8,121.3,652.9,121.9 M297.6,122.2c-0.6,0.5-0.9,0.8-0.5,0.8c0.3,0,1.1-0.4,1.7-0.8c0.6-0.5,0.9-0.8,0.5-0.8
	C299,121.4,298.2,121.8,297.6,122.2 M363.6,123.3c0,0.4,3.5,2.1,3.8,1.9c0.1-0.1-0.7-0.7-1.8-1.2
	C364.4,123.5,363.5,123.2,363.6,123.3 M648.3,124.2c-0.9,0.6-1.5,1.1-1.1,1.1c0.3,0,1.3-0.5,2.3-1.1c0.9-0.6,1.5-1.1,1.1-1.1
	C650.3,123.1,649.2,123.6,648.3,124.2 M290.3,125.8c-0.6,0.9,0.5,3,1.5,3c0.5,0,0.5-0.1,0-0.4c-0.4-0.2-0.7-1.1-0.9-1.8
	C290.8,125.5,290.6,125.3,290.3,125.8 M371.6,127.4c0,0.1,1.3,0.9,3,1.7c1.6,0.8,2.7,1.1,2.3,0.8C376.1,129.1,371.6,127,371.6,127.4
	 M725.8,127.7c0.1,0.4-1.5,1.6-3.7,2.7s-3.7,2.1-3.6,2.2c0.4,0.4,8.3-4.2,8.3-4.8c0-0.4-0.3-0.7-0.6-0.7
	C725.9,127,725.8,127.3,725.8,127.7 M293.6,129.6c0.6,0.5,1.4,0.8,1.7,0.8c0.3,0,0.1-0.4-0.5-0.8c-0.6-0.5-1.4-0.8-1.7-0.8
	C292.7,128.8,293,129.1,293.6,129.6 M636.8,129.9c-0.9,0.6-1.5,1.1-1.1,1.1c0.3,0,1.3-0.5,2.3-1.1c0.9-0.6,1.5-1.1,1.1-1.1
	C638.8,128.8,637.8,129.3,636.8,129.9 M299.6,132.4c0.6,0.5,4,2.1,4,1.8c0-0.3-3.2-2-3.8-2C299.5,132.2,299.5,132.3,299.6,132.4
	 M711.4,135.7c-1.1,0.6-1.7,1.1-1.3,1.1c0.4,0,1.5-0.5,2.6-1.1C715,134.2,714,134.2,711.4,135.7 M313.6,139.2c1.3,1,5.4,2.8,5.4,2.4
	c0-0.2-1.2-0.8-2.7-1.5C312.5,138.3,312.3,138.2,313.6,139.2 M723.2,145.9c-12.9,6.4-13.7,6.9-12.2,6.9c0.5,0,1.3-0.4,1.8-0.9
	s1.1-0.9,1.3-0.9s5.1-2.3,10.7-5.1l10.7-5.1c0.8,0,0.4,3.3-0.4,4c-0.6,0.5-0.9,1.9-0.9,4.8v4.1l-4.4,2.2l-5.3,2.7l-13.7,6.8
	l-13.7,6.9c-1,0.6-5.3,2.7-9.7,4.8l-6.1,3.2c-0.5,0.3-1.6,0.8-2.4,1.2c-0.8,0.3-8.4,4-16.9,8.2l-16.3,8c-0.6,0.2-1.2,0.5-1.7,0.9
	c-0.7,0.4-1.5,0.8-2.3,1.1c-0.8,0.3-1.5,0.7-2.3,1.2c-0.5,0.3-2.3,1.2-4.1,2c-2.7,1.2-4.6,2.6-3.7,2.6c0.1,0,4.5-2.1,9.6-4.6
	l10.5-5.1c0.6-0.3,1.5-0.7,2-1c0.5-0.3,11.9-6,25.4-12.6l36.8-18.3c0.5-0.3,1.5-0.7,2.3-1.1c2.3-0.9,10.5-5.2,11.1-5.8
	c0.3-0.3,0.9-0.5,1.4-0.5c2.6-0.1,4.3-2.6,4.5-7c0.1-2.3,0.5-4.4,0.7-4.7c0.6-0.7,0.7-3.2,0.1-4.1
	C735.8,139.9,732.1,141.5,723.2,145.9 M279.4,141.2c-0.5,0.5-0.5,12.6,0,13c0.2,0.1,0.3-2.7,0.2-6.3l-0.2-6.6l1.4,0.3
	c0.8,0.2,1.3,0.1,1.1-0.2C281.8,140.7,280,140.7,279.4,141.2 M285.8,143.6c2.4,1.5,3.2,1.5,1,0c-0.9-0.6-2-1.1-2.3-1.1
	C284.1,142.5,284.7,143,285.8,143.6 M694.9,143.7c-1.1,0.6-1.7,1.1-1.3,1.1c0.4,0,1.5-0.5,2.6-1.1
	C698.5,142.2,697.5,142.2,694.9,143.7 M605.2,146.5c-1.1,0.9-2.3,1.7-2.7,1.7c-0.4,0-0.8,0.3-1,0.5c-0.2,0.3,0.1,0.4,0.7,0.2
	c1-0.3,5.9-4.2,5.3-4.2C607.3,144.8,606.2,145.6,605.2,146.5 M293.1,147.3c0.6,0.5,1.4,0.8,1.7,0.8c0.3,0,0.1-0.4-0.5-0.8
	c-0.6-0.5-1.4-0.8-1.7-0.8C292.2,146.5,292.5,146.9,293.1,147.3 M334.2,149.4c2.9,1.5,3.3,1.5,1.1,0c-0.9-0.6-2.1-1.1-2.5-1.1
	S332.9,148.7,334.2,149.4 M414.9,149.4c2.4,1.5,3.2,1.5,1,0c-0.9-0.6-2-1.1-2.3-1.1C413.2,148.2,413.8,148.7,414.9,149.4
	 M683.1,149.4c-2.2,1.4-1.4,1.4,1.3,0c1.2-0.6,1.7-1.1,1.3-1.1S684.1,148.8,683.1,149.4 M301.6,151.6c0.9,0.6,2.1,1.1,2.6,1.1
	c0.5,0-0.1-0.5-1.3-1.1C300.1,150.2,299.4,150.2,301.6,151.6 M417.9,150.7c0.6,0.6,7,3.8,7.2,3.6c0.1-0.1-1.2-1-3.1-1.9
	C418,150.5,417.4,150.2,417.9,150.7 M692.1,161.4l-16.5,9.1c0.5,0,1.3-0.4,1.8-0.9c0.5-0.5,1.1-0.9,1.4-0.9c0.6,0,13.6-6.5,14.6-7.3
	c0.4-0.3,1.4-0.7,2.2-0.9c0.9-0.2,1.6-0.6,1.6-0.9s0.4-0.6,0.8-0.6c0.8,0,5.6-2.4,6.8-3.4c0.4-0.3,1.3-0.7,2.2-0.9
	c1.4-0.4,3.5-2.1,2.4-1.9C709.1,152.9,701.3,156.7,692.1,161.4 M586.2,156.4c-1.8,1-3.2,1.9-3.1,2c0.2,0.2,4.5-1.9,6.3-3.1
	C591.5,153.9,589.6,154.5,586.2,156.4 M350.2,157.3c0.9,0.6,2,1.1,2.3,1.1c0.3,0-0.3-0.5-1.3-1.1
	C348.7,155.8,347.9,155.8,350.2,157.3 M430.8,157.3c2.4,1.5,3.2,1.5,1,0c-0.9-0.6-2-1.1-2.3-1.1
	C429.2,156.2,429.8,156.7,430.8,157.3 M288.6,159c2.4,1.5,3.2,1.5,1,0c-0.9-0.6-2-1.1-2.3-1.1C287,157.9,287.6,158.4,288.6,159
	 M316.6,159c2.4,1.5,3.2,1.5,1,0c-0.9-0.6-2-1.1-2.3-1.1C315,157.9,315.6,158.4,316.6,159 M293,161.3c0.9,0.6,2,1.1,2.3,1.1
	c0.3,0-0.2-0.5-1.1-1.1c-0.9-0.6-2-1.1-2.3-1.1C291.6,160.2,292.1,160.7,293,161.3 M437.8,161c0.8,0.4,1.5,0.7,1.7,0.5
	c0.4-0.3-1.3-1.3-2.3-1.3C436.8,160.2,437,160.5,437.8,161 M571.6,163.6c-2.7,1.4-3.7,2.5-1.2,1.3c2.4-1.2,4.5-2.5,3.7-2.4
	C573.7,162.6,572.6,163.1,571.6,163.6 M304.6,167c2.4,1.5,3.2,1.5,1,0c-0.9-0.6-2-1.1-2.3-1.1C303,165.9,303.6,166.4,304.6,167
	 M332.6,167c2.4,1.5,3.2,1.5,1,0c-0.9-0.6-2-1.1-2.3-1.1C331,165.9,331.6,166.4,332.6,167 M369.7,167c2.4,1.5,3.2,1.5,1,0
	c-0.9-0.6-2-1.1-2.3-1.1C368.1,165.9,368.7,166.4,369.7,167 M308.5,169c0.6,0.5,1.4,0.8,1.7,0.8c0.3,0,0.1-0.4-0.5-0.8
	c-0.6-0.5-1.4-0.8-1.7-0.8C307.7,168.2,307.9,168.6,308.5,169 M642.4,186.2l-32,16.5c-0.5,0.5-1.3,0.9-1.7,0.9
	c-0.4,0-1.4,0.4-2.2,0.8c-2,1-4,2-6,3c-2.5,1.2-4.2,2.3-3.8,2.4c0.4,0.1,1.1-0.2,1.7-0.7c0.6-0.5,1.3-0.9,1.7-0.9
	c0.4,0,1.6-0.5,2.8-1.1c1.2-0.6,2.4-1.1,2.8-1.1s1-0.4,1.4-0.9c0.4-0.5,1.1-0.8,1.7-0.9c0.7,0,1.3-0.3,1.8-0.7
	c0.4-0.4,4.1-2.4,8.2-4.4s7.5-3.9,7.6-4.1c0.1-0.3,0.6-0.5,1.1-0.5c0.5,0,2.2-0.8,3.8-1.7s3.2-1.8,3.7-2c1-0.4,6.1-2.9,7.4-3.6
	c0.5-0.3,4.1-2.1,8.2-4s7.4-3.8,7.6-4.1c0.2-0.3,0.8-0.5,1.4-0.5c0.7-0.1,1.4-0.4,1.9-0.9c0.5-0.5,1.1-0.9,1.4-0.9
	c0.7,0,6.6-3,7-3.5c0.2-0.2,1-0.6,1.8-0.8c1.4-0.4,3.5-2.1,2.4-1.9C673.6,170.5,659.4,177.6,642.4,186.2 M344.4,172.6
	c0.8,0.8,6.1,3.6,6.4,3.3c0.1-0.1-1.4-1-3.4-2.1C345.5,172.9,344.1,172.3,344.4,172.6 M382.1,173.3c0.9,0.6,2,1.1,2.3,1.1
	c0.3,0-0.3-0.5-1.3-1.1C380.7,171.8,379.9,171.8,382.1,173.3 M553.2,173c-0.4,0.5-1.1,0.9-1.6,0.9c-0.6,0-0.7,0.2-0.2,0.3
	c0.4,0.2,1.4-0.2,2.2-0.9c0.8-0.7,1.3-1.2,0.9-1.2C554.1,172.2,553.5,172.6,553.2,173 M352.4,177c0.6,0.5,1.4,0.8,1.7,0.8
	c0.3,0,0.1-0.4-0.5-0.8c-0.6-0.5-1.4-0.8-1.7-0.8C351.6,176.2,351.8,176.5,352.4,177 M393.5,179c0.9,0.6,2,1.1,2.3,1.1
	c0.3,0-0.3-0.5-1.3-1.1C392.1,177.5,391.3,177.5,393.5,179 M332.1,180.4c0,0.3,3.2,2,3.8,2c0.2,0-0.4-0.5-1.4-1.1
	C332.6,180.1,332.1,180,332.1,180.4 M397.5,180.9c1.7,1.2,6.1,3.4,6.4,3.1c0.1-0.1-1.3-1-3.1-1.9C396.8,180.1,396,179.8,397.5,180.9
	 M364.6,183c2.4,1.5,3.2,1.5,1,0c-0.9-0.6-2-1.1-2.3-1.1C363,181.9,363.5,182.4,364.6,183 M533.5,183c-2.2,1.5-1.4,1.5,1,0
	c1-0.6,1.6-1.1,1.3-1.1C535.5,181.9,534.5,182.4,533.5,183 M485.6,185c0.6,0.5,1.4,0.8,1.7,0.8c0.3,0,0.1-0.4-0.5-0.8
	c-0.6-0.5-1.4-0.8-1.7-0.8C484.7,184.2,485,184.5,485.6,185 M343.7,186.1c0.6,0.6,7,3.8,7.2,3.6c0.1-0.1-1.2-1-3.1-1.9
	C343.8,185.9,343.2,185.6,343.7,186.1 M371.9,186.7c0.6,0.5,1.4,0.8,1.7,0.8c0.3,0,0.1-0.4-0.5-0.8c-0.6-0.5-1.4-0.8-1.7-0.8
	C371.1,185.9,371.3,186.2,371.9,186.7 M523.9,187.7c-1.8,1-3.2,1.9-3.1,2c0.2,0.2,6.6-2.9,7.1-3.5
	C528.7,185.5,526.9,186.1,523.9,187.7 M490.1,187c0.8,0.8,5,2.9,5.2,2.7c0.1-0.1-1.2-0.9-2.8-1.7C490.9,187.1,489.8,186.7,490.1,187
	 M412.8,188.8c2.8,1.5,3.5,1.5,1.1,0c-1-0.6-2.2-1.1-2.6-1.1C411,187.6,411.7,188.1,412.8,188.8 M351.6,190.1c0.6,0.6,7,3.8,7.2,3.6
	c0.1-0.1-1.2-1-3.1-1.9C351.8,189.9,351.2,189.6,351.6,190.1 M380.6,191.1c2.4,1.5,3.2,1.5,1,0c-0.9-0.6-2-1.1-2.3-1.1
	C378.9,189.9,379.5,190.4,380.6,191.1 M417.5,191.1c0.9,0.6,2,1.1,2.3,1.1c0.3,0-0.3-0.5-1.3-1.1
	C416.1,189.6,415.3,189.6,417.5,191.1 M497.7,191.1c2.4,1.5,3.2,1.5,1,0c-0.9-0.6-2-1.1-2.3-1.1C496,189.9,496.6,190.4,497.7,191.1
	 M517.5,191.1c-0.9,0.6-1.5,1.1-1.1,1.1c0.3,0,1.3-0.5,2.3-1.1c0.9-0.6,1.5-1.1,1.1-1.1C519.5,190,518.4,190.5,517.5,191.1
	 M387.9,194.8c0.6,0.5,1.4,0.8,1.7,0.8c0.3,0,0.1-0.4-0.5-0.8c-0.6-0.5-1.4-0.8-1.7-0.8C387,193.9,387.3,194.3,387.9,194.8
	 M506.5,195.2c0.9,0.6,3.1,0.6,3.5,0c0.1-0.2-0.7-0.4-1.9-0.4C506.8,194.8,506.2,194.9,506.5,195.2 M429,196.8
	c0.9,0.6,2,1.1,2.3,1.1c0.3,0-0.3-0.5-1.3-1.1C427.5,195.3,426.7,195.3,429,196.8 M584.6,198.8c-1.4,0.8-2.3,1.4-2,1.4
	c0.3,0,1.7-0.6,3.1-1.4s2.3-1.4,2-1.4C587.4,197.4,586,198,584.6,198.8 M432.9,198.6c1.7,1.2,6.1,3.4,6.4,3.1c0.1-0.1-1.3-1-3.1-1.9
	C432.2,197.9,431.4,197.5,432.9,198.6 M400,200.8c2.4,1.5,3.2,1.5,1,0c-0.9-0.6-2-1.1-2.3-1.1C398.3,199.6,398.9,200.2,400,200.8
	 M407.3,204.5c0.6,0.5,1.4,0.8,1.7,0.8c0.3,0,0.1-0.4-0.5-0.8c-0.6-0.5-1.4-0.8-1.7-0.8C406.4,203.6,406.7,204,407.3,204.5
	 M448.4,206.5c2.9,1.5,3.3,1.5,1.1,0c-0.9-0.6-2.1-1.1-2.5-1.1C446.5,205.3,447.1,205.9,448.4,206.5 M628.6,206.2
	c-0.4,0.5-1,0.9-1.5,0.9c-0.6,0-3.5,1.3-7.1,3.4c-2.9,1.6-9.5,4.7-10.1,4.6c-0.4,0-1,0.4-1.3,0.8c-0.4,0.5-1.4,1-2.3,1.2
	c-1.4,0.3-3.6,2-2.6,2c0.5,0,27.2-13.2,27.2-13.5C630.8,204.9,629.2,205.4,628.6,206.2 M416,208.8c1,0.6,2.2,1.1,2.6,1.1
	c0.4,0-0.3-0.5-1.4-1.1C414.3,207.3,413.5,207.3,416,208.8 M453.4,209.5c1,1,1.9,1.8,2.1,1.7c0.3-0.2-2.9-3.6-3.4-3.6
	C451.8,207.6,452.4,208.5,453.4,209.5 M563.6,209.3c-1.7,1-3.1,2.8-3,3.8c0,0.3,0.4-0.2,0.9-1.1c0.5-0.9,1.6-2,2.5-2.4
	c0.9-0.5,1.7-1,1.7-1.1C565.7,208,565.6,208.1,563.6,209.3 M590.2,212.3c-6.4,3.2-6.4,3.2,4.5,9c0.9,0.5,2.2,0.6,3.3,0.4
	c2.1-0.4,5.7-2.6,4.3-2.6c-0.5,0-1.4,0.4-1.9,0.9c-1.1,1.1-5.8,1.4-6.4,0.4c-0.4-0.6-2.6-1.9-5.4-3.2c-2.2-1-2-2.5,0.4-3.3
	c1.1-0.4,2-0.9,2-1.1s0.8-0.7,1.7-0.8c0.9-0.2,2-0.7,2.4-1.2C595.9,209.5,595.1,209.8,590.2,212.3 M455.8,213.7c0.2,1,0,2.8-0.3,4
	c-0.3,1.2-0.5,2.3-0.4,2.4c0.7,0.7,1.5-4.8,1-6.4l-0.6-1.7L455.8,213.7 M399,213.5c0.6,0.6,7,3.8,7.2,3.6c0.1-0.1-1.2-1-3.1-1.9
	C399.2,213.3,398.6,213.1,399,213.5 M430,215.7c1,0.6,1,0.7-0.3,2.1l-1.3,1.5l1.6-1.4c1.5-1.4,1.4-2.9-0.3-2.9
	C429.2,215.1,429.4,215.3,430,215.7 M408.4,218.5c0.9,0.6,2,1.1,2.3,1.1c0.3,0-0.2-0.5-1.1-1.1c-0.9-0.6-2-1.1-2.3-1.1
	C406.9,217.3,407.4,217.8,408.4,218.5 M560.6,220.4c0,1.1,1.2,2.6,3.1,3.8c2.8,1.7,3.4,1.5,0.6-0.2c-1.2-0.8-2.6-2-3-2.7
	C561,220.5,560.7,220.1,560.6,220.4 M453.2,221.8c-0.8,0.6-1.9,1.2-2.6,1.5c-0.7,0.2-1.5,0.7-1.9,1.2c-0.4,0.5,0,0.5,1.3-0.2
	c2.2-1.1,5.4-3.4,4.9-3.5C454.7,220.7,453.9,221.2,453.2,221.8 M433.7,232.2l-1.3,1.2l1.7-1c2.3-1.3,2.3-1.3,1.6-1.3
	C435.4,231,434.5,231.5,433.7,232.2 M579.2,232.2c0.9,0.6,2,1.1,2.3,1.1c0.3,0-0.3-0.5-1.3-1.1C577.7,230.7,577,230.7,579.2,232.2
	 M505.8,238.2c-0.9,0.6-1,0.7-0.3,0.5c0.8-0.2,1.7-0.4,2.6-0.3c1.1,0.1,1.2,0,0.6-0.5C507.5,237.1,507.5,237.2,505.8,238.2
	 M418.1,240.2c-0.9,0.6-1.5,1.1-1.1,1.1c0.3,0,1.3-0.5,2.3-1.1c0.9-0.6,1.5-1.1,1.1-1.1C420.1,239.1,419,239.6,418.1,240.2
	 M594.6,240.1c0.9,0.6,2,1.1,2.3,1.1c0.3,0-0.3-0.5-1.3-1.1C593.2,238.7,592.4,238.7,594.6,240.1 M408.5,244.9
	c-1.8,0.9-3.2,1.8-3.1,1.9c0.2,0.2,6.6-2.9,7.2-3.5C413.3,242.6,411.6,243.2,408.5,244.9 M606.3,245.6c0,0.4,3.5,2.1,3.8,1.9
	c0.1-0.1-0.7-0.7-1.8-1.2C607.2,245.7,606.3,245.4,606.3,245.6 M526.4,246.6c0.6,0.5,4,2.1,4,1.8c0-0.3-3.2-2-3.8-2
	C526.3,246.4,526.3,246.5,526.4,246.6 M402.1,248.2c-0.9,0.6-1.5,1.1-1.1,1.1c0.3,0,1.3-0.5,2.3-1.1c0.9-0.6,1.5-1.1,1.1-1.1
	C404.1,247.1,403.1,247.6,402.1,248.2 M482.7,249.9c-2.2,1.5-1.4,1.5,1,0c1-0.6,1.6-1.1,1.3-1.1
	C484.6,248.7,483.6,249.2,482.7,249.9 M533,249.9c0.7,0.7,5.3,2.9,5.3,2.5c0-0.1-1.3-0.9-3-1.7C533.7,249.9,532.7,249.6,533,249.9
	 M478.6,251.8c-0.6,0.5-0.9,0.8-0.5,0.8c0.3,0,1.1-0.4,1.7-0.8c0.6-0.5,0.9-0.8,0.5-0.8C480,251,479.2,251.4,478.6,251.8
	 M390.7,253.9c-2.2,1.5-1.4,1.5,1,0c1-0.6,1.6-1.1,1.3-1.1C392.7,252.7,391.6,253.2,390.7,253.9 M623.1,254.2
	c0.6,0.5,1.4,0.8,1.7,0.8c0.3,0,0.1-0.4-0.5-0.8c-0.6-0.5-1.4-0.8-1.7-0.8S622.5,253.7,623.1,254.2 M384.5,256.9
	c-1.8,0.9-3.2,1.8-3.1,1.9c0.2,0.2,6.6-2.9,7.2-3.5C389.3,254.6,387.6,255.2,384.5,256.9 M466.7,257.9c-2.2,1.5-1.4,1.5,1,0
	c1-0.6,1.6-1.1,1.3-1.1C468.6,256.7,467.6,257.2,466.7,257.9 M547,256.9c0.6,0.6,7,3.8,7.2,3.6c0.2-0.2-6.4-3.8-7.1-3.8
	C546.9,256.7,546.8,256.8,547,256.9 M484.9,266.1c-17.1,8.7-17.4,8.9-16.2,8.9c0.5,0,1.3-0.4,1.8-0.8c0.5-0.5,1.1-0.9,1.3-0.9
	c0.4,0,11.1-5.3,15-7.4c0.5-0.3,3.2-1.6,6-2.9c2.8-1.4,5.2-2.7,5.3-2.9c1.3-3,2.7,6.7,1.5,10.1c-0.2,0.5-3.1,2.2-6.4,3.9
	c-3.3,1.6-6.2,3.2-6.3,3.4c-0.1,0.3-0.5,0.5-0.9,0.5c-0.5,0-22.2,10.4-26.1,12.6C454.9,293.3,355,343,354.5,343
	c-0.4,0-1.4,0.5-2.2,1.1c-1,0.8-1.2,1.1-0.6,1.1c0.5,0,1.2-0.4,1.6-0.9s1.1-0.9,1.5-0.9c0.7,0,12-5.4,15.6-7.4
	c0.5-0.3,14.6-7.3,31.4-15.7l31.4-15.7c0.5-0.3,4.1-2.1,8-4l10.1-5.1c0.5-0.3,1.6-0.8,2.4-1.2c5-2.4,9.9-4.8,14.9-7.4
	c0.5-0.3,4.1-2.1,8-4l8-4c0.5-0.3,4.1-2.1,8.2-4.1c8.3-4,8-3.7,7.7-10.8C500.3,257.8,501.3,257.7,484.9,266.1 M373.1,262.6
	c-1.8,0.9-3.2,1.8-3.1,1.9c0.2,0.2,6.6-2.9,7.2-3.5C377.8,260.3,376.2,260.9,373.1,262.6 M521.5,261.5c0.6,0.5,1.4,0.8,1.7,0.8
	c0.3,0,0.1-0.4-0.5-0.8c-0.6-0.5-1.4-0.8-1.7-0.8C520.7,260.7,520.9,261.1,521.5,261.5 M638.6,261.8c0.9,0.6,2,1.1,2.3,1.1
	c0.3,0-0.3-0.5-1.3-1.1C637.1,260.4,636.3,260.4,638.6,261.8 M455.2,263.6c-2.2,1.5-1.4,1.5,1,0c1-0.6,1.6-1.1,1.3-1.1
	C457.2,262.4,456.2,262.9,455.2,263.6 M641.7,263.3c0,0.4,3.5,2.1,3.8,1.9c0.1-0.1-0.7-0.7-1.8-1.2S641.7,263.1,641.7,263.3
	 M366.7,265.9c-0.9,0.6-1.5,1.1-1.1,1.1c0.3,0,1.3-0.5,2.3-1.1c0.9-0.6,1.5-1.1,1.1-1.1C368.7,264.8,367.6,265.3,366.7,265.9
	 M450.7,265.9c-0.9,0.6-1.5,1.1-1.1,1.1c0.3,0,1.3-0.5,2.3-1.1c0.9-0.6,1.5-1.1,1.1-1.1C452.6,264.8,451.6,265.3,450.7,265.9
	 M530.2,265.8c1,0.6,2.2,1.1,2.6,1.1c0.4,0-0.3-0.5-1.4-1.1C528.5,264.4,527.8,264.4,530.2,265.8 M567.9,267.5c2.4,1.5,3.2,1.5,1,0
	c-0.9-0.6-2-1.1-2.3-1.1C566.3,266.4,566.9,266.9,567.9,267.5 M355.3,271.6c-2.2,1.5-1.4,1.5,1,0c1-0.6,1.6-1.1,1.3-1.1
	C357.3,270.4,356.2,270.9,355.3,271.6 M439.2,271.6c-0.9,0.6-1.5,1.1-1.1,1.1c0.3,0,1.3-0.5,2.3-1.1c0.9-0.6,1.5-1.1,1.1-1.1
	C441.2,270.5,440.2,271,439.2,271.6 M575.8,271.6c0.9,0.6,2,1.1,2.3,1.1c0.3,0-0.3-0.5-1.3-1.1C574.3,270.1,573.5,270.1,575.8,271.6
	 M347.3,275.6c-0.9,0.6-1.5,1.1-1.1,1.1c0.3,0,1.3-0.5,2.3-1.1c0.9-0.6,1.5-1.1,1.1-1.1C349.3,274.5,348.2,275,347.3,275.6
	 M549.5,275.6c0.9,0.6,2,1.1,2.3,1.1c0.3,0-0.2-0.5-1.1-1.1c-0.9-0.6-2-1.1-2.3-1.1S548.5,275,549.5,275.6 M439.9,288.6
	c-14.7,7.4-26.5,13.6-26.1,13.7c0.4,0.1,1.1-0.2,1.6-0.6c0.5-0.5,1.7-1,2.5-1.2c0.9-0.2,1.6-0.6,1.6-0.9c0-0.3,0.8-0.7,1.7-0.9
	c0.9-0.2,2-0.7,2.4-1.2c0.4-0.5,1.1-0.8,1.7-0.8c0.7,0,1.3-0.3,1.8-0.8c0.6-0.5,1.4-1,2.2-1.2c0.8-0.2,1.8-0.7,2.3-1.1
	s1.6-0.9,2.4-1.1s1.6-0.6,1.6-0.9c0-0.3,0.3-0.6,0.7-0.6c0.6,0,10.6-4.9,15.3-7.4c0.5-0.3,4.1-2.1,8.2-4c6.4-3.1,9-4.7,7.4-4.5
	C466.9,275.1,454.6,281.2,439.9,288.6 M587.7,277.6c0.6,0.5,1.4,0.8,1.7,0.8s0.1-0.4-0.5-0.8c-0.6-0.5-1.4-0.8-1.7-0.8
	C586.9,276.7,587.1,277.1,587.7,277.6 M670,277.6c0.6,0.5,1.4,0.8,1.7,0.8c0.3,0,0.1-0.4-0.5-0.8c-0.6-0.5-1.4-0.8-1.7-0.8
	S669.4,277.1,670,277.6 M674,279.6c0.9,0.6,2,1.1,2.3,1.1c0.3,0-0.3-0.5-1.3-1.1C672.6,278.1,671.8,278.1,674,279.6 M335.9,281.3
	c-2.2,1.5-1.4,1.5,1,0c1-0.6,1.6-1.1,1.3-1.1C337.9,280.1,336.8,280.6,335.9,281.3 M419.8,281.3c-2.2,1.4-1.4,1.4,1.3,0
	c1.2-0.6,1.7-1.1,1.3-1.1C421.9,280.2,420.8,280.7,419.8,281.3 M561.1,281.3c2.4,1.5,3.2,1.5,1,0c-0.9-0.6-2-1.1-2.3-1.1
	C559.5,280.1,560.1,280.7,561.1,281.3 M595.2,281.3c0.9,0.6,2,1.1,2.3,1.1c0.3,0-0.3-0.5-1.3-1.1C593.8,279.8,593,279.8,595.2,281.3
	 M538.9,283c1.1,0.6,2,1,2.2,0.9c0.3-0.3-2.9-2.1-3.7-2.1C537.1,281.9,537.8,282.4,538.9,283 M331.3,283.6c-0.9,0.6-1.5,1.1-1.1,1.1
	c0.3,0,1.3-0.5,2.3-1.1c0.9-0.6,1.5-1.1,1.1-1.1C333.3,282.5,332.3,283,331.3,283.6 M564.2,282.7c0.6,0.6,6.9,3.7,7.1,3.5
	c0.1-0.1-1.4-1-3.2-2C564.9,282.6,563.5,282,564.2,282.7 M604.5,286.4c1,1.1,1.9,1.8,2.1,1.7c0.1-0.1-0.7-1-1.8-1.9l-2.1-1.7
	L604.5,286.4 M319.9,289.3c-2.2,1.5-1.4,1.5,1,0c1-0.6,1.6-1.1,1.3-1.1C321.9,288.1,320.8,288.7,319.9,289.3 M401.1,290.8
	c-0.9,0.5-1.5,1-1.3,1.1s1.1-0.3,2.2-0.9C404.2,289.6,403.5,289.4,401.1,290.8 M554.8,291c2.4,1.5,3.2,1.5,1,0
	c-0.9-0.6-2-1.1-2.3-1.1C553.2,289.8,553.8,290.3,554.8,291 M580.6,291c1.1,0.6,2,1,2.2,0.9c0.3-0.3-2.9-2.1-3.7-2.1
	C578.9,289.8,579.5,290.3,580.6,291 M612.5,291c2.4,1.5,3.2,1.5,1,0c-0.9-0.6-2-1.1-2.3-1.1C610.9,289.8,611.5,290.3,612.5,291
	 M311.9,293.3c-0.9,0.6-1.5,1.1-1.1,1.1c0.3,0,1.3-0.5,2.3-1.1c0.9-0.6,1.5-1.1,1.1-1.1C313.9,292.1,312.9,292.6,311.9,293.3
	 M616.9,293.3c0.9,0.6,2,1.1,2.3,1.1s-0.2-0.5-1.1-1.1s-2-1.1-2.3-1.1S616,292.6,616.9,293.3 M705.4,295.3c0.6,0.5,1.4,0.8,1.7,0.8
	c0.3,0,0.1-0.4-0.5-0.8c-0.6-0.5-1.4-0.8-1.7-0.8C704.6,294.4,704.8,294.8,705.4,295.3 M303.9,297.3c-0.9,0.6-1.5,1.1-1.1,1.1
	c0.3,0,1.3-0.5,2.3-1.1c0.9-0.6,1.5-1.1,1.1-1.1C305.9,296.2,304.9,296.7,303.9,297.3 M386.9,297.9c-1.8,1-3.2,1.9-3.1,2
	c0.2,0.2,5.6-2.5,6.4-3.3C391,295.8,390.4,296,386.9,297.9 M567.5,297.2c0.8,0.6,1.7,1.2,2,1.2c0.6,0-0.4-0.8-2.3-1.7
	C566.5,296.2,566.6,296.4,567.5,297.2 M593.1,297.2c2.4,1.5,3.2,1.5,1,0c-0.9-0.6-2-1.1-2.3-1.1
	C591.5,296.1,592.1,296.6,593.1,297.2 M624.9,297.2c0.9,0.6,2,1.1,2.3,1.1c0.3,0-0.3-0.5-1.3-1.1
	C623.5,295.8,622.7,295.8,624.9,297.2 M709.5,297.2c0.9,0.6,2,1.1,2.3,1.1c0.3,0-0.3-0.5-1.3-1.1C708,295.8,707.2,295.8,709.5,297.2
	 M294.3,302c-1.8,0.9-3.2,1.8-3.1,1.9c0.2,0.2,6.6-2.9,7.2-3.5C299.1,299.7,297.4,300.3,294.3,302 M574.7,300.9
	c0.6,0.5,1.4,0.8,1.7,0.8c0.3,0,0.1-0.4-0.5-0.8c-0.6-0.5-1.4-0.8-1.7-0.8C573.8,300.1,574.1,300.5,574.7,300.9 M717.4,301.2
	c0.9,0.6,2,1.1,2.3,1.1c0.3,0-0.3-0.5-1.3-1.1C716,299.8,715.2,299.8,717.4,301.2 M377,303c-0.9,0.6-1.5,1.1-1.1,1.1
	c0.3,0,1.3-0.5,2.3-1.1c0.9-0.6,1.5-1.1,1.1-1.1C379,301.8,377.9,302.3,377,303 M402.1,307.5c-12.5,6.4-13.4,6.9-12.2,6.9
	c0.5,0,1.3-0.4,1.8-0.8c0.5-0.5,1.2-0.9,1.7-0.9c0.4,0,1.4-0.5,2.2-1.1c0.8-0.6,2.1-1.2,2.9-1.4c0.9-0.2,1.6-0.6,1.6-0.9
	c0-0.3,0.4-0.6,0.8-0.6c0.8,0,5.6-2.4,6.8-3.4c0.4-0.3,1.3-0.7,2.2-0.9c1.4-0.4,3.5-2.1,2.4-1.9C412,302.5,407.4,304.7,402.1,307.5
	 M636.8,303.3c0.6,0.5,1.4,0.8,1.7,0.8c0.3,0,0.1-0.4-0.5-0.8c-0.6-0.5-1.4-0.8-1.7-0.8S636.2,302.8,636.8,303.3 M289.7,304.5
	c-0.2,0.2-0.4,0.6-0.4,0.8c0,0.5,4,3,4.4,2.6c0.1-0.1-0.7-0.7-1.8-1.3c-1.1-0.6-1.9-1.4-1.7-1.8C290.4,304,290.3,303.9,289.7,304.5
	 M370.8,306c-1.8,1-3.2,1.9-3.1,2c0.2,0.2,4.5-1.9,6.3-3.1C376.1,303.5,374.2,304.2,370.8,306 M583.4,305.2c0.8,0.6,1.8,1.2,2.3,1.2
	c0.8,0,0.3-0.3-3-2C582.3,304.2,582.7,304.6,583.4,305.2 M607.2,305.3c0.9,0.6,2,1.1,2.3,1.1c0.3,0-0.3-0.5-1.3-1.1
	C605.7,303.8,604.9,303.8,607.2,305.3 M640.8,305.3c0.9,0.6,2,1.1,2.3,1.1c0.3,0-0.3-0.5-1.3-1.1
	C639.4,303.8,638.6,303.8,640.8,305.3 M724.2,304.6c0.2,0.4-0.5,1.3-1.8,2.1c-1.2,0.8-1.9,1.5-1.6,1.5c1.2,0,4.5-3.2,3.7-3.7
	C724,304.1,723.9,304.2,724.2,304.6 M298.8,310.7c0.6,0.5,1.4,0.8,1.7,0.8c0.3,0,0.1-0.4-0.5-0.8c-0.6-0.5-1.4-0.8-1.7-0.8
	C297.9,309.8,298.2,310.2,298.8,310.7 M361,311c-0.9,0.6-1.5,1.1-1.1,1.1c0.3,0,1.3-0.5,2.3-1.1c0.9-0.6,1.5-1.1,1.1-1.1
	C363,309.9,361.9,310.4,361,311 M652.2,311c2.8,1.5,3.5,1.5,1.1,0c-1-0.6-2.2-1.1-2.6-1.1C650.3,309.8,651,310.3,652.2,311
	 M619.1,311.3c0.6,0.5,1.4,0.8,1.7,0.8c0.3,0,0.1-0.4-0.5-0.8c-0.6-0.5-1.4-0.8-1.7-0.8S618.5,310.8,619.1,311.3 M303.3,312.8
	c1.7,1.2,6.1,3.4,6.4,3.1c0.1-0.1-1.3-1-3.1-1.9C302.6,312,301.8,311.7,303.3,312.8 M354.6,314.2c-1.6,0.8-2.9,1.6-2.8,1.7
	c0.2,0.2,6.1-2.6,6.1-3C357.8,312.6,357.9,312.6,354.6,314.2 M601.7,314.4c1.1,0.6,2.5,1.6,3.1,2.3c0.6,0.7,1.3,1.2,1.6,1.2
	c0.3,0-0.3-0.7-1.4-1.6c-2-1.7-4-3-4.8-2.9C599.9,313.3,600.6,313.8,601.7,314.4 M372.4,322.3c-18.6,9.4-19.1,9.7-17.9,9.7
	c0.5,0,1.3-0.4,1.8-0.8c0.5-0.5,1.2-0.9,1.6-0.9c0.4,0,2-0.8,3.6-1.7c1.6-0.9,3.2-1.8,3.7-2c2.5-1.1,5-2.4,7.4-3.6
	c1.4-0.7,2.7-1.3,4.1-2c1.8-0.8,3.4-1.7,3.6-2.1c0.2-0.3,0.8-0.6,1.4-0.6c0.7-0.1,1.4-0.3,1.9-0.8c0.5-0.5,1.5-1,2.3-1.2
	c1.4-0.3,3.4-2.1,2.3-1.9C388.1,314.5,380.9,318,372.4,322.3 M279.4,318.2c-1.5,1.5-0.2,11.9,1.5,12.8c1.2,0.6,1.2,0.6-0.1-0.8
	c-1.7-1.9-2-11.6-0.3-12.1c0.8-0.2,0.8-0.3,0.1-0.3C280.2,317.8,279.6,318,279.4,318.2 M345,319c-0.9,0.6-1.5,1.1-1.1,1.1
	c0.3,0,1.3-0.5,2.3-1.1c0.9-0.6,1.5-1.1,1.1-1.1C347,317.9,345.9,318.4,345,319 M608.3,318.5c1.7,1.2,6.1,3.4,6.4,3.1
	c0.1-0.1-1.3-1-3.1-1.9C607.6,317.7,606.8,317.4,608.3,318.5 M724.8,322.5L714,328l-14,6.9c-0.5,0.3-2.3,1.2-4,2.1
	c-5.1,2.6-5.1,2.5-5.1,8.7c0,7,1.1,7.2,9.4,1.9c1.3-0.8,6.1-3.4,10.8-5.7c4.7-2.3,8.2-4.3,7.8-4.5c-0.4-0.1-1.2,0.2-1.7,0.7
	c-0.6,0.5-1.3,0.9-1.6,0.9c-0.6,0-5.5,2.4-6.6,3.3c-0.3,0.3-1.3,0.7-2.2,0.9c-0.8,0.2-1.6,0.6-1.6,0.9c0,0.3-0.2,0.6-0.5,0.6
	c-0.8,0-2.9,1-4.9,2.3c-7.5,4.8-8.1,4.8-8.2-1c-0.1-6.2-0.4-5.9,8.3-10.1l8.7-4.3c1.5-0.8,3-1.6,4.6-2.3c2-1,3.8-2.1,3.9-2.3
	c0.1-0.3,0.5-0.5,0.9-0.5c1,0,14.9-6.9,15.1-7.5c0.6-1.6,1.2,0.8,1.2,5c0,5-0.6,7.1-2,7.1c-0.8,0-6.7,2.8-7.2,3.5
	c-0.2,0.2-0.9,0.6-1.7,0.8c-1.6,0.5-4,2-3.1,2c1.6,0,14-6.7,14.6-7.9c1.1-2.5,0.6-10.7-0.7-11.1C733.7,318.1,729.6,320,724.8,322.5
	 M318.9,320.7c2.4,1.5,3.2,1.5,1,0c-0.9-0.6-2-1.1-2.3-1.1C317.3,319.5,317.9,320,318.9,320.7 M673.2,321.5c0.6,0.5,4,2.1,4,1.8
	c0-0.3-3.2-2-3.8-2C673.2,321.2,673.1,321.3,673.2,321.5 M691.3,322.1c-2.2,1.2-2,1.6,0.3,0.5c2.2-1.1,2.5-1.4,1.8-1.3
	C693.1,321.3,692.2,321.7,691.3,322.1 M322,322c0.6,0.6,7,3.8,7.2,3.6c0.1-0.1-1.2-1-3.1-1.9C322.1,321.8,321.5,321.5,322,322
	 M616.9,323c0.9,0.6,2,1.1,2.3,1.1c0.3,0-0.3-0.5-1.3-1.1C615.5,321.5,614.7,321.5,616.9,323 M650.1,326.5c1.7,1.2,6.1,3.4,6.4,3.1
	c0.1-0.1-1.3-1-3.1-1.9C649.3,325.7,648.6,325.4,650.1,326.5 M301.6,328.7c0.8,0.7,1.9,1.1,2.2,0.9c0.4-0.2,0.4-0.3-0.2-0.3
	c-0.5,0-1.2-0.4-1.6-0.9c-0.4-0.5-1-0.9-1.3-0.9C300.3,327.5,300.7,328.1,301.6,328.7 M628.4,328.7c0.9,0.6,2,1.1,2.3,1.1
	c0.3,0-0.3-0.5-1.3-1.1C626.9,327.2,626.1,327.2,628.4,328.7 M284.1,332.7c2.4,1.5,3.2,1.5,1,0c-0.9-0.6-2-1.1-2.3-1.1
	C282.5,331.6,283.1,332.1,284.1,332.7 M346,335.6c-3.6,1.8-6.7,3.7-7,4.1c-0.9,1.4-0.3,11.5,0.7,11.8c0.7,0.2,0.7,0.1,0.1-0.3
	c-0.5-0.4-0.7-2-0.6-5.9l0.2-5.3l6.5-3.3c6.1-3.1,8.5-4.6,7.1-4.4C352.7,332.3,349.5,333.8,346,335.6 M640.3,334.7
	c0.6,0.5,1.4,0.8,1.7,0.8s0.1-0.4-0.5-0.8c-0.6-0.5-1.4-0.8-1.7-0.8C639.5,333.9,639.7,334.3,640.3,334.7 M643.8,336.3
	c1.7,1.2,6.1,3.4,6.4,3.1c0.1-0.1-1.3-1-3.1-1.9C643.1,335.5,642.3,335.2,643.8,336.3 M670,336.7c0.9,0.6,2,1.1,2.3,1.1
	c0.3,0-0.3-0.5-1.3-1.1C668.6,335.2,667.8,335.2,670,336.7 M295.9,338.4c2.9,1.5,3.3,1.5,1.1,0c-0.9-0.6-2.1-1.1-2.5-1.1
	C294.1,337.3,294.7,337.8,295.9,338.4 M319.9,337.8c2.7,1.1,3.2,2.4,3,8.2c-0.1,3,0,5.3,0.2,5.2c2.6-1.6-0.5-14-3.6-13.9
	C319.1,337.4,319.2,337.5,319.9,337.8 M674.2,339.1c1.7,1.9,2,11.6,0.3,12.1c-0.8,0.2-0.7,0.3,0.1,0.2c2.3-0.2,1.9-11.5-0.4-12.9
	l-1.3-0.8L674.2,339.1 M299.2,339.8c0.7,0.7,6.8,3.6,6.5,3.2c-0.2-0.3-1.6-1.2-3.2-2C299.9,339.7,298.5,339.2,299.2,339.8
	 M651.8,340.3c1.9,1.3,6,3.2,6.7,3.2c0.4,0-1.1-0.9-3.3-2C651,339.5,650,339.1,651.8,340.3 M311,345.9c0.7,0.3,1.4,0.6,2,1
	c0.3,0.2,0.1,0-0.5-0.6c-0.6-0.6-1.5-1-2-1C309.9,345.3,310.1,345.5,311,345.9 M348.3,346c-0.2,0.4-1.9,1.5-3.8,2.4
	c-2.8,1.4-4.5,2.6-3.7,2.6c0.5,0,7-3.6,8.3-4.6c1-0.8,1.1-1.1,0.5-1.1C349.2,345.2,348.6,345.6,348.3,346 M665.9,347.2
	c1.8,1.1,3.5,2,3.7,2c0.6,0-5.8-4-6.5-4C662.8,345.2,664.1,346.1,665.9,347.2 M315.9,348.7c0.9,0.6,2,1.1,2.3,1.1
	c0.3,0-0.3-0.5-1.3-1.1C314.4,347.2,313.6,347.2,315.9,348.7 M671.2,350.1c0.6,0.5,1.4,0.8,1.7,0.8s0.1-0.4-0.5-0.8
	c-0.6-0.5-1.4-0.8-1.7-0.8C670.3,349.2,670.6,349.6,671.2,350.1 M274.5,475.3c-1.1,0.1-2.3,0.4-2.6,0.7c-0.3,0.2-1.3,0.6-2.2,0.8
	c-3.5,0.8-12.4,8.4-12.4,10.4c0,0.4-0.2,0.8-0.5,0.8c-2.5,0-4.7,39.2-2.3,41.6c1.2,1.2,506.9,1,507.3-0.2c2-5.3-0.1-39-2.5-40.5
	c-0.3-0.2-0.6-0.9-0.6-1.5c0-2.4-7.1-8.6-12.7-10.9l-3-1.3l-233.3-0.1C381.4,475.1,275.6,475.2,274.5,475.3 M744.3,476.9
	c5.7,1.7,12.7,6.8,13.7,10.2c0.2,0.7,0.6,1.4,1.1,2.1c2.3,2.7,4.1,38.4,2,39.7c-0.8,0.5-505.7,0.4-506.2-0.2
	c-0.8-0.8-0.2-33.2,0.7-36.1c2.2-7.1,8.6-13.4,16-15.7C275.8,475.7,739.9,475.7,744.3,476.9 M283.2,495.1c-4.2,1.8-6.3,7.1-4.4,11
	c3.3,7,11.6,7.6,15.6,1.1C298.8,500.1,291,491.7,283.2,495.1 M312.3,495.4c-4.4,2.7-5.8,7.5-3.5,11.7c4.6,8.1,17.2,4.4,16.3-4.7
	C324.5,495.9,317.7,492.2,312.3,495.4 M342.4,495c-3.7,1.5-6.2,6.3-5.2,9.8c2.3,7.8,11.5,9.5,16,2.9
	C358,500.7,350.4,491.8,342.4,495 M293,497.9c2.9,3.6,2.9,6.5-0.2,10.1c-4.6,5.4-13.8,2.3-13.8-4.7C279,495.8,288.3,492.2,293,497.9
	 M322.1,497.5c3.3,3.4,3.4,7.1,0.1,10.9c-5.6,6.5-16.9-0.8-13.1-8.4C311.7,494.8,318.3,493.5,322.1,497.5 M351,496.9
	c2.6,2.6,2.9,3.1,2.9,6c0,2.9-0.3,3.5-2.9,6c-5.1,5.1-14.3-0.2-12.9-7.5C339.1,496.1,347.3,493.2,351,496.9 M255.6,540.5l-1.4,0.4
	L254,696.5c-0.2,168.8-0.4,155.9,2.6,162.2c1.2,2.6,7.2,8.6,9.8,9.8c7.1,3.3-16.7,3,241.6,3l237.6-1.2c7.2-2.7,13-8.5,15.7-15.7
	c1.5-4,1.9-312.2,0.4-313.7C761,540.2,258.5,539.7,255.6,540.5 M761.3,542.1c1.4,1.4,1.1,307.6-0.4,311.6
	c-3.1,8.6-8.9,14.2-17.3,16.6c-5.2,1.5-467.9,1.2-472.1-0.3c-8.1-2.8-13.2-7.6-15.8-15.1l-1.3-3.8V696.4l0.7-154.9
	C257.4,540.7,760.5,541.2,761.3,542.1 M285.4,660.6c-0.6,0.6-0.7,8-0.7,33.4v32.7l1.3,0.3c0.7,0.2,3.5,0.2,6.1,0.2l4.9-0.2l0.6-24.6
	l8.6-0.3c9.2-0.4,11.4-0.9,16.1-4.1c3.6-2.4,8.2-8.6,8.1-11.1c0-0.6-0.7,0.4-1.6,2.1c-2.5,5-7.6,10.3-9.9,10.3
	c-0.4,0-1.5,0.4-2.5,0.9c-1.3,0.7-3.8,1-10.3,1.2c-5.4,0.2-8.7,0.5-9,0.9c-0.2,0.4-0.4,6-0.4,12.5l0,11.9h-10.9l0.3-66l14.9,0
	c13.4,0,15.1,0.1,16,1c0.6,0.5,1.4,1,1.8,1c0.4,0,1.4,0.5,2.2,1.1c0.8,0.6,1.7,1.1,2.1,1.2c0.9,0,4.4,4.7,5.9,7.9
	c0.7,1.5,1.3,2.2,1.3,1.7c0.2-3.3-4.9-9.1-10.5-12.3l-4-2.2l-14.8-0.2C289.5,660,286,660.1,285.4,660.6 M567,666.9
	c-1.2,0.5-1.3,0.8-1.3,6.2c0,7.4-0.1,7.5-3.4,7.5c-3.8,0-4.6,0.9-4.6,5.4c0,5.2,0.2,5.4,3.7,5.4c4.2,0,4.2-0.1,4.5,13.2
	c0.2,14.2,0.7,16.2,4.4,19.8c5.1,5,11.2,6,19.3,2.9c0.9-0.3,1.3-0.9,1.2-1.8l-0.1-1.3l-0.2,1.3c-0.2,0.9-0.8,1.4-2.3,1.6
	c-1.2,0.2-2.9,0.6-3.9,1c-2,0.7-11-0.9-11-2c0-0.3-0.6-0.8-1.3-1.1c-4-1.8-5.6-8.1-5.6-22.3c0-12,0-12-4.2-12
	c-2.6,0-3.8-1.5-3.8-4.5c0-3.6,0.8-4.6,3.3-4.6c4.1,0,4.7-0.9,4.7-8c0-7.1-0.2-6.9,5.8-6.9c5.2,0,5-0.2,5,6.8c0,7.5,0.1,7.6,6.5,8
	l4.6,0.3l0.2,3.1c0.3,5.5,0.1,5.7-4.4,5.7c-2.2,0-4.6,0.2-5.4,0.6l-1.5,0.6v9.9c0,13.7,1.5,16.7,7.8,16.2c1.8-0.1,3.1,0,3.2,0.4
	c0.1,0.3,0.3,0.2,0.3-0.4c0-0.8-0.5-1-3.5-1c-6.4,0-7.3-1.9-7.3-15.2c0-10.4,0-10.5,6.6-10.5c4.7,0,4.8-0.1,4.8-5.2
	c0-5.3-0.4-5.6-5.6-5.6c-5.8,0-5.8-0.1-5.8-7.2c0-5.2-0.1-5.9-1.1-6.5C575.3,666.2,568.8,666.2,567,666.9 M297.4,672.2
	c-0.8,0.8-1,17.3-0.3,17.8c0.2,0.1,0.4-3.8,0.4-8.7v-8.9l13.7-0.6l-6.6-0.1C300.2,671.5,297.9,671.7,297.4,672.2 M312.6,672.4
	c7.3,1.4,8.1,13,1.1,16.6c-1.3,0.7-2,1.2-1.4,1.3c3.1,0,7.3-5.5,7.3-9.6c0-3.6-4.1-8.7-6.8-8.6C311.4,672.2,311.4,672.2,312.6,672.4
	 M330.6,680.9c0,2.8,0.1,4.1,0.2,2.7c0.1-1.3,0.1-3.6,0-5.1C330.7,677,330.6,678.1,330.6,680.9 M415,680c-1.4,0.3-0.2,0.4,3.9,0.5
	c7,0.1,10.5,1.4,14.8,5.7c9.3,9.1,9.5,26.9,0.4,35.5c-0.8,0.8-1.9,1.9-2.5,2.4c-0.5,0.5-1.2,1-1.5,1c-0.3,0-0.9,0.3-1.4,0.8
	c-4,3.4-15.5,2.7-19.8-1.1c-1.2-1-2.5-1.9-2.8-1.9c-0.4,0-0.8-0.3-1-0.7c-0.2-0.4-0.6-0.1-1,0.8c-0.5,1.1-0.5,1.8-0.1,2.7
	c1.2,2.3,0.8,20.5-0.5,21.2c-1.5,0.8-8.2,0.8-9.1-0.1c-0.8-0.8-1-63.1-0.2-64.3c0.3-0.5,1.7-0.7,4.7-0.6l4.2,0.2l0.2,1.7
	c0.1,0.9,0.4,1.9,0.7,2.2c0.5,0.5,4-1.1,4-1.9c0-0.3,1-1.1,2.3-1.8c1.3-0.7,2.2-1.4,2.1-1.5s-1.3,0.5-2.6,1.4
	c-4.9,3.2-4.8,3.2-5.2,1.2c-0.5-2.4-1.3-2.7-5.9-2.8c-5.9,0-5.4-3-5.4,33.7c0,36.8-0.5,33.7,5.6,33.7c6.9,0,6.5,0.7,6.4-12.7
	c-0.1-12.6,0-13.1,3-10.2c12.4,12.2,33.6-1.9,33-21.9C440.7,687.4,428.9,677.1,415,680 M472.1,680c-1.4,0.3-0.2,0.4,3.9,0.5
	c7,0.1,10.5,1.4,14.8,5.7c9.3,9.1,9.5,26.9,0.4,35.5c-0.8,0.8-1.9,1.9-2.5,2.4c-0.5,0.5-1.2,1-1.5,1c-0.3,0-0.9,0.3-1.4,0.8
	c-4,3.4-15.5,2.7-19.8-1.1c-1.2-1-2.5-1.9-2.8-1.9c-0.4,0-0.8-0.3-1-0.7c-0.2-0.4-0.6-0.1-1,0.8c-0.5,1.1-0.5,1.8-0.1,2.7
	c1.2,2.3,0.8,20.5-0.5,21.2c-1.5,0.8-8.2,0.8-9.1-0.1c-0.8-0.8-1-63.1-0.2-64.3c0.3-0.5,1.7-0.7,4.7-0.6l4.2,0.2l0.2,1.7
	c0.1,0.9,0.4,1.9,0.7,2.2c0.5,0.5,4-1.1,4-1.9c0-0.3,1-1.1,2.3-1.8c1.3-0.7,2.2-1.4,2.1-1.5c-0.1-0.1-1.3,0.5-2.6,1.4
	c-4.9,3.2-4.8,3.2-5.2,1.2c-0.5-2.4-1.3-2.7-5.9-2.8c-5.9,0-5.4-3-5.4,33.7c0,36.8-0.5,33.7,5.6,33.7c6.9,0,6.5,0.7,6.4-12.7
	c-0.1-12.6,0-13.1,3-10.2c12.4,12.2,33.6-1.9,33-21.9C497.8,687.4,486.1,677,472.1,680 M523.9,680c-5.6,0.9-15.8,8.6-15.8,11.9
	c0,0.7-0.4,1.3-0.9,1.8c-0.5,0.4-0.8,1.3-0.8,1.9c0,0.8,0.6,0.1,1.5-1.9c1.4-3.1,8.5-10.8,9.9-10.8c0.3,0,1.6-0.5,2.7-1.1
	c1.7-0.9,3.3-1.2,8.7-1.2c5.1,0,6-0.2,4.3-0.5C530.8,679.3,527.6,679.4,523.9,680 M614.9,680c-1.3,0.3,0.5,0.4,4.9,0.4
	c5.2,0,6.2-0.1,4.3-0.5C621,679.4,617.6,679.4,614.9,680 M668,680c-1.3,0.3,0.1,0.4,4.5,0.5c6.9,0.1,8.2,0.4,13.4,3.7
	c1.5,0.9,2.8,2.2,3,2.7c0.2,0.5,0.7,1.1,1.2,1.3c0.5,0.2,0.8,0.7,0.8,1.1c0,0.4,0.4,1.1,0.8,1.5c0.4,0.4,1,1.6,1.2,2.8
	c0.4,2.3,2,5.5,2,4.1C695.1,687.1,680.4,677.4,668,680 M726.3,680c-1,0.4-0.1,0.5,3.4,0.6c6.3,0.1,6.8,0.4,5.5,3.3
	c-0.5,1.2-1.1,3.1-1.3,4.2c-0.4,2.1-2.2,3.9-2.8,2.8c-0.4-0.7-5.1-0.7-6.4-0.1l-2.7,1.3c-5.2,2.5-6.1,5.8-5.9,22.2l0.1,12.9l0.3-14
	c0.3-15.2,0.6-16.3,4.2-19.6c1.9-1.7,7.4-3.1,9.5-2.3c2.5,0.9,3.9,0.1,4.3-2.8c0.2-1.4,0.8-3.2,1.2-4c1.1-2.1,1-3.2-0.3-3.9
	C733.9,679.8,728,679.4,726.3,680 M338.7,681.5c-0.8,0.8-0.9,2.7-0.8,17.6l0.2,16.6l1.8,3.7c5.3,10.8,18.2,13.1,27,4.7
	c1.9-1.8,2.7-2.3,3-1.7c0.3,0.5,0.5,0.5,0.5,0c0-1.6-1.3-1.3-3,0.6c-1,1.1-2.1,2.1-2.3,2.1c-0.3,0-0.9,0.3-1.4,0.8
	c-6.5,5.5-19.2,1.9-23.1-6.6L339,716l0.3-34l4.2-0.2c6-0.2,5.7-1.2,5.9,15.8c0.2,16.3,0.5,17.3,4.5,19.7c4.9,2.9,14.7-1.2,14.8-6.2
	c0-0.8-0.3-0.6-1,0.9c-3.6,6.8-12.5,7.7-16.3,1.7c-1.2-1.9-1.3-2.7-1.4-17.1c-0.1-10.7-0.4-15.3-0.9-15.6
	C347.7,680.1,339.7,680.5,338.7,681.5 M370.5,681.1c-0.9,0.6-0.9,1.1-1.3,20.4c-0.1,5.6,0,7.8,0.4,7.1c0.3-0.5,0.7-6.7,0.9-13.8
	l0.3-12.9l3.7-0.2c2-0.1,4.3,0,5,0.2l1.3,0.3v44.5h-9.6l-0.3-1.9l-0.3-1.9l0.1,4l4.3,0.2c2.4,0.1,4.9,0,5.6-0.2l1.3-0.3l-0.2-22.6
	c-0.1-19.3-0.3-22.6-1-23.1C379.6,680.4,371.6,680.4,370.5,681.1 M536.7,680.8c0,0.1,1.7,1.1,3.7,2.1c2.7,1.4,4.4,2.8,6.1,5
	c2.6,3.3,3.3,3.9,1.8,1.4c-2.3-3.7-4.1-5.3-8.7-7.7C537.7,680.7,536.7,680.4,536.7,680.8 M608.9,681.9c-3.1,1.6-8.9,7.5-10.4,10.7
	c-1.1,2.3-1.1,2.5-0.1,1.2c0.6-0.7,1.1-1.7,1.1-2.1c0-1.2,7.7-8.6,9.5-9.1c1-0.3,1.9-0.7,2.8-1.2
	C613.5,680.2,611.6,680.5,608.9,681.9 M629.2,681.9c4.3,2.1,6,3.3,7.4,5.4c0.8,1.1,1.7,2.3,2.1,2.7c0.4,0.4,0.7,1.1,0.7,1.5
	s0.5,1.8,1.2,3c1.2,2.4,1.1,1.4-0.2-2c-1.2-3.1-3.6-6.5-5.7-8.1c-3-2.2-6.2-3.9-7.2-3.9C627.1,680.6,627.8,681.2,629.2,681.9
	 M661.9,681.7c-12.5,6.8-17.1,21.1-10.9,34.1c7.2,15.1,29.2,17.8,40.4,4.9c3.1-3.6,3-4.1-1.7-6.6c-4.8-2.5-5.2-2.6-7-0.5
	c-2.3,2.6-3.7,3.7-5.7,4.2l-1.9,0.4l1.8,0.1c1.4,0,2.4-0.6,4.8-2.8c3.6-3.4,3.1-3.3,6.8-1.1c1.6,0.9,3.1,1.7,3.4,1.7
	c1.9,0-0.1,4.3-2.9,6.3c-0.7,0.5-1.5,1.1-1.9,1.4c-3.2,2.9-13.7,5.6-17.1,4.4c-1-0.4-3-0.8-4.5-1c-1.5-0.2-2.9-0.6-3-0.9
	c-0.2-0.3-1.2-0.9-2.2-1.3c-2.4-1-7.6-6.2-8.1-8.1c-0.2-0.8-0.5-1.4-0.8-1.4c-0.2,0-1-2.3-1.7-5.1c-3-12.5,2.4-23.3,14.2-28.8
	c1.3-0.6,1.6-0.9,0.9-0.9C664.3,680.7,662.9,681.2,661.9,681.7 M705.2,681.4c-0.5,0.6-0.6,7.1-0.5,23.3l0.1,22.5l10.3,0.1l-10-0.4
	l0.3-44.8l4.4-0.2c4.4-0.2,4.4-0.1,4.4,1.2c0,4.4,1.3,5.1,4.2,2.2c1.2-1.2,3.1-2.7,4.3-3.4c1.2-0.7,1.7-1.3,1.3-1.3
	c-0.8,0-3.4,1.8-6,4.1c-2.1,1.9-2.7,2-2.7,0.2c0-3.7-0.8-4.3-5.3-4.3C707.2,680.6,705.7,680.9,705.2,681.4 M527.7,689.6
	c1,0.1,2.1,0.1,3.1,0c0.9-0.1,0.2-0.2-1.6-0.2S526.8,689.5,527.7,689.6 M615.4,689.6c-3.6,0.6-9.1,7.9-6.3,8.5
	c0.4,0.1,0.5,0,0.1-0.1c-3.1-1.5,3.9-7.5,9.6-8.2c3.4-0.4,3.5-0.4,1-0.4C618.2,689.4,616.2,689.5,615.4,689.6 M671,689.6
	c1,0.1,2.1,0.1,3.1,0c0.9-0.1,0.2-0.2-1.6-0.2S670.2,689.5,671,689.6 M411.7,691.1c-2.8,1.4-6.1,5.1-6.7,7.4
	c-0.2,0.9-0.6,1.7-0.9,1.9c-0.8,0.5-0.6,6.7,0.3,8.2c0.7,1.3,0.8,1,0.5-2.4c-1.2-15.8,16-21.9,23.2-8.2c7.4,14-11.9,27.1-21.1,14.4
	c-0.9-1.3-1.7-2-1.7-1.6c0,1.3,2.9,4.6,5.4,6c6.2,3.6,13.3,1.2,17.8-5.9c1.6-2.6,1.9-11.3,0.4-12.8c-0.5-0.5-0.9-1.2-0.9-1.5
	c0-0.9-4.5-5.1-5.5-5.1c-0.5,0-1.2-0.4-1.7-0.9C419.6,689.3,414.6,689.5,411.7,691.1 M468.8,691.1c-2.8,1.4-6.1,5.1-6.7,7.4
	c-0.2,0.9-0.6,1.7-0.9,1.9c-0.8,0.5-0.6,6.7,0.3,8.2c0.7,1.3,0.8,1,0.5-2.4c-1.2-15.8,16-21.9,23.2-8.2c7.4,14-11.9,27.1-21.1,14.4
	c-0.9-1.3-1.7-2-1.7-1.6c0,1.3,2.9,4.6,5.4,6c6.2,3.6,13.3,1.2,17.8-5.9c1.6-2.6,1.9-11.3,0.4-12.8c-0.5-0.5-0.9-1.2-0.9-1.5
	c0-0.9-4.5-5.1-5.5-5.1c-0.5,0-1.2-0.4-1.7-0.9C476.7,689.3,471.8,689.6,468.8,691.1 M522,691.1c-2.1,1.6-4,3.8-4.1,5
	c-0.2,1.5,0,2.3,0.7,2.3c0.5,0,0.5-0.2,0-0.8c-1.2-1.4,3-6.2,6.5-7.3c1.1-0.4,1.1-0.4,0-0.4C524.3,689.8,523,690.4,522,691.1
	 M533.6,690.3c2,0.6,4.2,2.4,5.4,4.3c0.7,1.1,1.2,1.5,1.2,0.9c0-1.3-5-5.6-6.5-5.6C532.5,689.9,532.5,689.9,533.6,690.3
	 M623.8,690.2c3.1,0.8,6.7,4.4,6.4,6.6c-0.1,0.8,0,1.4,0.3,1.3c2.2-1.3-3.2-8.3-6.3-8.2C623,689.9,622.9,690,623.8,690.2
	 M663.9,692.5c-2.4,2.5-3.4,4.8-2.2,5.5c0.3,0.2,0.4-0.4,0.2-1.3c-0.3-1.7,3.6-5.6,6.3-6.4c1.2-0.3,1.2-0.4-0.2-0.4
	C666.9,689.8,665.8,690.5,663.9,692.5 M678.3,691c3.4,1.7,6.4,6.1,4.7,7c-0.3,0.2-0.3,0.2,0.1,0.1c3-0.6-2.6-8.4-6.1-8.4
	C676.2,689.8,676.6,690.1,678.3,691 M301.5,690.7c2.2,0.1,4.4,0.1,6.6,0c1.8-0.1,0.3-0.2-3.3-0.2
	C301.2,690.5,299.7,690.6,301.5,690.7 M549.3,692.7c0,0.8,0.4,1.8,0.8,2.2c1.1,0.9,1.1,0.6,0-1.8
	C549.4,691.3,549.3,691.2,549.3,692.7 M596.2,699.6c-0.7,4.1,0.1,15.1,0.9,12.6c0.1-0.4,0-2.4-0.4-4.6c-0.4-2.7-0.4-4.5,0-6
	c0.3-1.4,0.5-2.8,0.4-4.3C597,695.6,596.8,696,596.2,699.6 M551.1,700.8l-0.1,5h-16.3c-18.2,0-18.6,0.1-17.8,3.5l0.5,2l0.3-2l0.3-2
	l32.8-0.3l0.3-1.3c0.2-0.7,0.2-3.2,0.1-5.6l-0.2-4.3l-0.1,5 M505.9,697.2c-7.4,26.1,26.7,43.7,43.2,22.2c2.2-2.8,2.2-2.6-2.9-5.4
	c-4.6-2.5-5.1-2.5-6.8-0.3c-1.7,2.1-3.7,3.5-5.9,4l-1.7,0.4l1.8,0.1c1.4,0,2.4-0.6,4.8-2.8c3.6-3.4,2.8-3.3,7.8-0.8l4.1,2.1l-1.5,2
	c-0.8,1.1-2.2,2.6-3,3.3l-2.3,2c-3,2.6-13.6,5.1-16.8,4c-1-0.4-3.1-0.8-4.5-1c-1.5-0.2-3-0.7-3.4-1.2c-0.4-0.4-0.9-0.8-1.1-0.8
	c-3.7,0-10.6-9.5-11.2-15.4c-0.2-1.7-0.5-3.6-0.8-4c-0.3-0.5-0.2-1.9,0.1-3c0.3-1.2,0.5-2.9,0.4-3.9
	C506.1,697.8,505.9,697.1,505.9,697.2 M641.7,701.5l-0.3,4l-16.3,0.3c-16.9,0.3-17.7,0.4-17.7,2.4v1.2l0.9-1.2
	c0.9-1.3,1-1.2,16.8-1.2c18.4,0,17.3,0.3,17-5.5l-0.2-3.9l-0.3,4 M694.8,702.5l-0.3,3.1l-16.5,0.2c-19.6,0.2-19.8,0.3-16.9,6.3
	c2,4.1,5.4,6.3,10,6.7l4,0.3l-3.3-0.5c-5.6-0.9-9-3.3-10.4-7.4c-1.4-4.1-1.8-4,16.6-4c18.5,0,17.6,0.2,17.2-5l-0.2-2.7L694.8,702.5
	 M608,710.8c0,2.8,5.5,7.7,8.5,7.6c1.5-0.1,1.5-0.1,0.1-0.3c-2.5-0.5-6.1-3.4-7.4-6C608.4,710.4,608,710,608,710.8 M517.8,712.2
	c0,1.8,5.7,6.3,8,6.2c1.2-0.1,1.2-0.1,0.3-0.4c-1.5-0.4-6-3-6-3.5C520,713.7,517.8,711.4,517.8,712.2 M628.5,715.1
	c-2.4,2.5-3,2.7-6.6,3.3L618,719l3.7-0.3c4-0.3,7.2-1.9,8.9-4.5c0.9-1.4,3.1-2,3.1-0.9c0,0.3,0.7,0.7,1.5,0.9c2.9,0.7,5.2,2.7,4.7,4
	c-0.5,1.4-6.7,7.1-7.7,7.1c-0.4,0-1,0.3-1.3,0.8c-1.1,1.3-11.8,3-14,2.2c-1-0.3-2.9-0.8-4.2-1c-1.3-0.2-2.7-0.7-3.1-1.2
	c-0.4-0.4-1.1-0.8-1.6-0.8s-1.4-0.5-1.9-1.1c-0.5-0.6-1.3-1.2-1.7-1.2c-0.9,0-4.5-4.7-5.9-7.7c-0.6-1.2-1.1-1.9-1.3-1.6
	c-0.3,0.9,3.6,6.8,5.8,8.9c10.1,9.5,28.1,8.2,36.4-2.8c2.4-3.2,2.5-2.9-2.5-5.6C632.2,711.7,631.7,711.8,628.5,715.1 M528.4,718.9
	c0.7,0.1,1.7,0.1,2.3,0c0.5-0.1,0-0.3-1.3-0.2C528.1,718.7,527.7,718.8,528.4,718.9 M588.6,720.8c0,0.8,0.3,2,0.8,2.6
	c0.7,0.9,0.8,0.9,0.9,0.2c0-0.5-0.2-1.1-0.5-1.4c-0.3-0.3-0.6-1.1-0.8-1.7C588.7,719.6,588.6,719.6,588.6,720.8"/>
<path id="path1552" inkscape:connector-curvature="0" class="st2" d="M271.6,476.9c-7.4,2.3-13.8,8.5-16,15.7
	c-0.9,2.9-1.5,35.3-0.7,36.1c0.5,0.5,505.4,0.7,506.2,0.2c2.1-1.3,0.2-37-2-39.7c-0.5-0.6-0.8-1.3-1.1-2.1c-1-3.3-8-8.5-13.7-10.2
	C739.9,475.6,275.8,475.7,271.6,476.9 M747.6,479c1.8,1,3.5,2.2,5.2,3.4c2.3,1.8,2.9,2.5,5.9,7.9l1.5,2.6l0.4,35.1h-505l0-14.4
	c0-14.3,0.6-21.6,1.8-23.1c1.2-1.7,2.2-3.5,3.1-5.3c0.2-0.5,1.2-1.5,2.3-2.3c1.1-0.8,2.3-1.7,2.7-2c1.4-1.2,5.9-3.1,7.5-3.3
	c0.9-0.1,107.5-0.2,236.8-0.1l235,0.1L747.6,479 M284.1,493.6c-5.9,2.9-9.2,10.2-6,13.5c0.5,0.5,0.9,1.1,0.9,1.3
	c0,1.4,5.6,4.7,8.1,4.7c3.6,0,8.6-4.4,9.3-8.3C297.8,497.5,290.3,490.6,284.1,493.6 M314.6,493c-0.7,0.1-1.3,0.5-1.3,0.8
	c0,0.3-0.4,0.5-0.8,0.5c-0.8,0-2.7,1.7-4.9,4.3c-5,6.1,5.2,17.1,12.4,13.4C330.4,506.7,325.9,490.8,314.6,493 M344.5,493
	c-6.3,1.6-10.8,10.5-7.3,14.5c5.7,6.7,10.9,7.4,16,2C359.1,503,352.7,490.9,344.5,493 M291,495.3c4.2,2.2,5.8,7.4,3.6,11.6
	c-0.1,0.1-0.1,0.2-0.2,0.4c-4,6.5-12.3,5.9-15.6-1.1C275.4,499.1,283.8,491.7,291,495.3 M320.3,495.1c4.5,1.9,6.3,8.2,3.6,12.3
	c-3.8,5.8-11.7,5.6-15.1-0.3C304.7,499.9,312.4,491.8,320.3,495.1 M350,495.2c5.8,2.8,6.2,11.7,0.8,15.1
	c-8.9,5.6-18.6-6.8-10.8-13.9C342.4,494.2,346.8,493.7,350,495.2 M255.1,541.5c-0.6,0.2-0.7,31.7-0.7,154.9V851l1.3,3.8
	c2.6,7.4,7.7,12.3,15.8,15.1c4.2,1.5,466.9,1.7,472.1,0.3c8.5-2.4,14.2-7.9,17.3-16.6c1.4-4,1.8-310.2,0.4-311.6
	C760.4,541.1,257.3,540.6,255.1,541.5 M760.7,542.8c0.8,1.3,0.3,306.4-0.5,309.6c-2.2,8.7-8.1,14.7-16.9,16.9
	c-4.7,1.2-465.2,1.2-470.4,0c-8.8-2-15.3-8.6-17.2-17.5c-0.8-4-1.3-308.4-0.4-309.2C256,542,760.4,542.2,760.7,542.8 M284.4,660.1
	c-1.2,1.7-1.4,66-0.2,67.2c0.6,0.6,12.7,1.1,13.1,0.5c0.1-0.1,0.3-5.7,0.4-12.4l0.3-12.3l9-0.3c6.9-0.3,9.3-0.6,10.4-1.3
	c0.8-0.5,1.7-0.9,2-0.9c2.2,0,8-5.6,10.6-10.3c1.6-2.8,1.7-16.4,0.1-18.1c-0.5-0.6-1-1.4-1-1.7c0-0.5-0.8-1.6-3.3-4.5
	c-4.9-5.6-11-7.1-27.8-7.1C285.5,658.8,285.3,658.8,284.4,660.1 M319.8,662.4c5,2.8,6.2,3.8,8.8,8.1l2.1,3.4l0,6.9
	c0,7.5-0.2,8.3-4.1,13.2c-4.5,5.8-9.3,7.7-20.4,8.1l-8.6,0.3L297,727l-4.9,0.2c-2.7,0.1-5.4,0-6.1-0.2l-1.3-0.3V694
	c0-25.4,0.2-32.9,0.7-33.4s4.1-0.7,15.6-0.5l14.8,0.2L319.8,662.4 M565.4,666.9c-0.1,0.4-0.3,3.4-0.4,6.7l-0.2,6l-3.1,0.2
	c-4.4,0.2-4.6,0.5-4.6,6.4c0,5.8,0,5.8,4.6,6.2l3.1,0.3l0.3,12.6c0.2,8.6,0.6,13.3,1.1,14.8c0.9,2.4,5.8,7.7,7.1,7.7
	c0.5,0,1.5,0.4,2.3,0.9c1.7,1.1,11,0.8,13.5-0.4c2.5-1.3,2.6-2.9,0.1-9.8l-1-2.8l-2.7,0.4c-6.2,0.9-7-1-6.7-15.4l0.2-8l4.5-0.2
	c5.9-0.2,6-0.3,6-6.4s-0.1-6.2-6-6.4l-4.5-0.2l-0.3-6.6c-0.3-6.5-0.3-6.6-1.7-6.7c-1.2-0.1-1.3-0.1-0.4,0.5c0.8,0.5,1,1.5,1,6.5
	c0,7.2,0.1,7.2,5.8,7.2c5.3,0,5.6,0.4,5.6,5.6c0,5.2-0.1,5.2-4.8,5.2c-6.6,0-6.6,0-6.6,10.5c0,13.3,0.9,15.2,7.2,15.2l3.5,0l0.4,2.1
	c0.2,1.2,0.6,2.4,0.9,2.7c1.3,1.6,1.3,4.8-0.1,5.3c-8.1,3.1-14.3,2.2-19.4-2.9c-3.7-3.7-4.1-5.6-4.4-19.8
	c-0.2-13.3-0.2-13.2-4.5-13.2c-3.5,0-3.7-0.2-3.7-5.4c0-4.5,0.8-5.4,4.6-5.4c3.4,0,3.4-0.1,3.4-7.5c0-5.4,0.1-5.7,1.3-6.2l1.3-0.5
	l-1.3,0C566.3,666.2,565.6,666.5,565.4,666.9 M297.5,672.6c-0.2,0.4-0.2,4.5-0.1,9l0.2,8.3l6.8,0.2c9.7,0.2,14.7-3,14.7-9.4
	c0-3-3.9-8.2-6.1-8.1c-0.6,0-0.2,0.5,1.1,1.2c5.3,3,5,11.2-0.4,14.4c-2.3,1.3-3,1.5-9.1,1.5h-6.6l0.3-16.9l13.7-0.6l-7-0.1
	C299.6,671.9,297.8,672,297.5,672.6 M413.7,679.3c-3.2,1-3.8,1.4-6.2,3.5c-1,0.9-1.1,0.9-1.9-0.6c-1.1-2.1-1.8-2.3-7-2.3
	c-7.2,0-6.5-3.9-6.5,34.2c0,38.7-0.8,34.9,7.3,34.9c6.7,0,6.4,0.6,6.4-13.1c0-11.9,0.1-12.1,2.8-9.7c1.1,0.9,2.3,1.7,2.8,1.7
	c0.5,0,1.4,0.4,2,0.9c0.8,0.6,2.6,0.8,5.7,0.8s5-0.3,5.7-0.8c0.6-0.5,1.7-0.8,2.4-0.9c0.8,0,1.5-0.4,2.1-0.9
	c0.5-0.5,1.1-0.9,1.4-0.9c1.3,0,6.6-5.8,8.5-9.4l2.2-4l0-8.9c0-7.7-0.1-9.1-1-10c-0.5-0.6-1-1.5-1-2s-0.4-1.2-0.9-1.6
	c-0.5-0.4-0.9-1-0.9-1.5c0-0.9-6.8-7.1-7.8-7.1c-0.4,0-0.8-0.3-0.9-0.6C428.4,678.9,418.4,677.8,413.7,679.3 M470.8,679.3
	c-3.2,1-3.8,1.4-6.2,3.5c-1,0.9-1.1,0.9-1.9-0.6c-1.1-2.1-1.8-2.3-7-2.3c-7.2,0-6.5-3.9-6.5,34.2c0,38.7-0.8,34.9,7.3,34.9
	c6.7,0,6.4,0.6,6.4-13.1c0-11.9,0.1-12.1,2.8-9.7c1.1,0.9,2.3,1.7,2.8,1.7s1.4,0.4,2,0.9c0.8,0.6,2.6,0.8,5.7,0.8s5-0.3,5.7-0.8
	c0.6-0.5,1.7-0.8,2.4-0.9c0.8,0,1.5-0.4,2.1-0.9c0.5-0.5,1.1-0.9,1.4-0.9c1.3,0,6.6-5.8,8.5-9.4l2.2-4l0-8.9c0-7.7-0.1-9.1-1-10
	c-0.5-0.6-1-1.5-1-2s-0.4-1.2-0.9-1.6c-0.5-0.4-0.9-1-0.9-1.5c0-0.9-6.8-7.1-7.8-7.1c-0.4,0-0.8-0.3-0.9-0.6
	C485.6,678.8,475.5,677.7,470.8,679.3 M523.1,679.2c-1.9,0.5-3.8,1.2-4.3,1.6c-0.4,0.4-1.4,0.8-2.1,1c-5.9,1.8-12.7,13.9-12.7,22.8
	c0,7.9,6.6,19.5,12.1,21.3c0.7,0.2,1.7,0.8,2.1,1.2c0.4,0.4,1.4,0.8,2.1,0.8c0.7,0,1.6,0.3,2,0.7c1.2,1.2,11.4,1.3,14,0.2
	c1.2-0.5,2.5-0.9,2.9-0.9s2.3-1,4.1-2.2c2.9-1.9,4.5-3.5,7.6-7.3c1.1-1.4,0.2-2.5-3.9-4.7c-5.3-2.8-5.7-2.8-9.3,0.6l-2.9,2.9H530
	c-6.3,0-11.7-3.6-11.7-7.8v-1.3h15.9c19.4,0,18.1,0.5,18-7.1c-0.2-8-6.5-19.2-10.8-19.2c-0.5,0-1.2-0.4-1.7-0.9
	c-0.5-0.5-1.4-0.9-2.1-0.9c-0.7,0-2.3-0.4-3.5-0.8C531.1,677.9,527.6,678,523.1,679.2 M614.8,679c-1.1,0.4-2.4,0.8-3,0.8
	c-3.1,0.1-11.6,7.1-13.8,11.5c-4,7.8-4.3,17.9-0.8,24c0.3,0.5,0.7,1.4,1,2.1c3.7,8.5,20.2,15,29,11.3c1.1-0.5,2.4-0.9,2.8-0.9
	c3.2,0,13.6-10.4,11.9-11.9c-3.4-3.1-10.5-5.3-11.8-3.6c-3.2,4.3-12.9,6.8-15.3,3.8c-0.4-0.5-1-0.9-1.5-0.9c-1.2,0-4.3-4.3-4.3-5.9
	v-1.5h16c19.3,0,18,0.6,17.6-7.4c-0.4-8.3-4.7-16.1-10.4-18.6c-1-0.4-2.1-1-2.6-1.3C626.3,678.5,618.2,677.7,614.8,679 M666,679.3
	c-2.2,0.6-4.1,1.3-4.3,1.5c-0.2,0.3-1,0.8-1.9,1.2c-2.2,1-7.3,5.8-8.2,7.8c-0.4,0.9-1,2.1-1.3,2.6c-2.5,4-3.8,16.6-1.9,18.9
	c0.4,0.4,0.8,1.7,1.1,2.8c1,4.5,10.4,13.7,14.1,13.7c0.5,0,1.7,0.4,2.6,0.9c2.2,1.1,11.9,1.2,13.9,0c0.8-0.4,1.9-0.8,2.4-0.8
	c3-0.1,13.1-9.6,12.3-11.6c-0.4-1-8.1-5-9.7-5c-0.8,0-1.9,0.7-2.7,1.7c-3.1,3.8-12.6,5.8-14.8,3.1c-0.4-0.5-1-0.9-1.4-0.9
	c-1.1,0-3.8-3.8-3.9-5.6l-0.1-1.6l15.9-0.2c16.2-0.2,17.5-0.3,17.5-2.3c0-0.8-0.1-0.8-0.6,0.1c-0.5,0.9-2,1-16.8,1
	c-18.4,0-18-0.1-16.6,4c2.9,8.2,14.7,10,20.9,3.1c2.2-2.5,2.4-2.5,7.3,0.1c4.7,2.5,4.8,3,1.7,6.6c-16.7,19.2-48.7,2.6-42.5-22.1
	c6.3-25.3,41.8-25.5,46.1-0.3c0.2,0.9,0.3,0.5,0.3-1c0-1.3-0.2-2.5-0.5-2.7c-0.3-0.2-0.8-1.4-1.2-2.6c-0.3-1.2-0.9-2.3-1.2-2.3
	c-0.3,0-0.5-0.3-0.5-0.6c0-2.9-7.2-8.1-13.6-9.7C673.2,677.9,671.2,677.9,666,679.3 M726.2,679c-0.8,0.4-1.9,0.8-2.4,0.8
	c-0.5,0-2.1,0.9-3.4,1.9c-3.4,2.6-4.5,3-4.5,1.5c0-2.9-0.9-3.4-5.8-3.4c-7.5,0-6.8-2.5-6.8,24.2c0,20.5,0.1,23.1,0.9,23.4
	c1.3,0.5,11.2,0.4,12.1-0.1c0.5-0.3,0.7-4.5,0.9-14.6c0.1-8.6,0.4-14.3,0.8-14.6c0.3-0.2,1-1.2,1.4-2.1c1.7-3.2,3.5-4.1,9-4.1
	c5.8,0,6.1-0.1,6.6-3.1c0.2-1.2,0.7-3,1.2-3.9c1.7-3.3,1.1-4.7-2.6-6.1C730.6,677.9,728.2,677.9,726.2,679 M423.4,679.9
	c18.8,3.1,24.5,31.9,8.8,44.2c-7.6,5.9-18.5,6.3-24.1,0.8c-2.9-2.9-3.1-2.4-3,10.2c0.1,13.4,0.5,12.7-6.4,12.7
	c-6.1,0-5.6,3.1-5.6-33.7c0-36.7-0.5-33.7,5.4-33.7c4.7,0,5.4,0.4,5.9,2.8c0.4,2,0.3,2,5.2-1.2C413.4,679.5,417.4,678.9,423.4,679.9
	 M480.5,679.9c18.8,3.1,24.5,31.9,8.8,44.2c-7.6,5.9-18.5,6.3-24.1,0.8c-2.9-2.9-3.1-2.4-3,10.2c0.1,13.4,0.5,12.7-6.4,12.7
	c-6.1,0-5.6,3.1-5.6-33.7c0-36.7-0.5-33.7,5.4-33.7c4.7,0,5.4,0.4,5.9,2.8c0.4,2,0.3,2,5.2-1.2C470.6,679.5,474.5,678.9,480.5,679.9
	 M534.1,680c11.7,2,19.9,14.2,17.1,25.4l-0.4,1.4L518,707l-0.2,1.8c-0.9,8.9,15.5,12.5,21.5,4.8c1.7-2.2,2.2-2.2,6.8,0.3
	c5.1,2.7,5,2.6,2.9,5.4c-10.4,13.5-31.9,12.4-40.6-2.2c-2.2-3.7-4.2-12-3.5-15.1c1-5,1.7-7.7,2.4-8.5c0.4-0.5,0.8-1.3,0.8-1.9
	c0-1.5,7.4-8.6,10.4-10C523,679.5,528.2,678.9,534.1,680 M624.6,680c10.6,1.7,17.6,10.3,17.6,22c0,5,0.8,4.7-17.4,4.9
	c-18.3,0.2-18,0.1-15.8,4.6c3.5,7.3,13.7,8.9,19.6,3.1c3.4-3.3,3.4-3.3,8.3-0.7c5.1,2.7,5,2.4,2.5,5.6
	c-12.5,16.5-39.2,10.1-43.3-10.2C592.6,691.4,606.4,677.1,624.6,680 M735.4,680.5c1.3,0.7,1.4,1.8,0.3,3.9c-0.4,0.8-1,2.7-1.2,4
	c-0.5,2.8-1.9,3.7-4.3,2.8c-2.1-0.8-7.7,0.6-9.5,2.3c-3.6,3.4-3.8,4.3-4,19.5c-0.2,16,0.5,14.6-7.2,14.3l-4.6-0.2l-0.1-22.5
	c-0.2-25.9-0.6-24.1,5.4-24.1c4.6,0,5.3,0.6,5.3,4.3c0,1.8,0.6,1.8,2.8-0.2C723.2,679.8,730.8,678,735.4,680.5 M337.5,681.2
	c-1.4,2-1.2,28.9,0.2,34.1c1.8,6.7,6.1,12.5,9.1,12.6c0.5,0,1.4,0.4,2,0.9c3.5,2.6,15.3-0.1,18.8-4.3c1.8-2.2,2-2.1,2.2,0.7l0.2,2.4
	l5.3,0.2c7.6,0.2,6.9,2.6,6.9-23.8c0-26.3,0.6-24-6.6-24c-7.9,0-7.4-1.1-7.7,16.1c-0.3,14.1-0.3,14.5-1.7,16.5
	c-3.8,5.6-9.9,6.1-14.2,1.2c-1.2-1.4-1.3-1.8-1.3-16.5c0-9.2-0.2-15.5-0.6-16.1C349.4,679.2,338.8,679.4,337.5,681.2 M349,680.9
	c0.5,0.3,0.7,4.9,0.9,15.6c0.2,14.4,0.3,15.2,1.4,17.1c3.8,6.2,12.7,5.1,16.4-2c1.1-2.1,1.2-3.5,1.5-16.2c0.3-16-0.1-15,6.3-15
	c6.6,0,6-2.2,6.2,23.7l0.2,22.6l-1.3,0.3c-0.7,0.2-3.2,0.3-5.6,0.2l-4.3-0.2l-0.3-2.4c-0.4-3.3-0.6-3.3-3.5-0.6
	c-8.7,8.3-21.6,6.1-26.9-4.7l-1.8-3.7l-0.2-16.6c-0.2-19.7-0.6-18.5,6.1-18.5C346.4,680.5,348.6,680.7,349,680.9 M524.9,690.1
	c-3.4,1.1-7.7,5.9-6.5,7.3c1,1.2,20.1,1.1,21-0.1c0.9-1.1-0.8-4-3.4-5.9c-2.1-1.6-3.6-1.7-1.6-0.1c0.8,0.6,1.7,1.1,2.1,1.1
	c0.3,0,0.6,0.2,0.6,0.5c0,0.3,0.4,0.9,0.8,1.3c2.7,2.7,1.8,3-8.5,3.1c-11.5,0.2-11.7,0.1-10.1-2.1c2.4-3.3,5.1-4.9,9.5-5.3l4-0.4
	l-3.4,0C527.5,689.8,525.5,689.9,524.9,690.1 M615.4,690c-1.7,0.3-6.9,5.3-6.9,6.6c0,1.4,1.6,1.6,12,1.4l9.4-0.2l0.1-1.4
	c0.2-2-4.1-6.3-6.2-6.3c-0.4,0,0.2,0.6,1.3,1.3c2.4,1.5,4.5,3.8,4.5,5.2c0,0.9-19.3,1.5-20.1,0.6c-1.7-1.7,5-6.6,9.9-7.1l3.7-0.4
	l-3.1,0C618.2,689.8,616.2,689.9,615.4,690 M668.1,690.1c-2.7,0.8-6.5,4.7-6.3,6.3l0.2,1.5l10,0.1c11.6,0.2,12.2,0,10.6-3.1
	C680.2,690.8,673.3,688.5,668.1,690.1 M412.4,691.3c-12.4,5.8-9.2,26.2,4.1,26.3c14,0.1,17.8-19.9,4.9-26
	C418,690,415.5,689.9,412.4,691.3 M469.5,691.3c-12.4,5.8-9.2,26.2,4.1,26.3c14,0.1,17.8-19.9,4.9-26
	C475.1,690,472.6,689.9,469.5,691.3 M677,691.1c0.8,0.5,1.8,1,2.3,1.2c1,0.4,3.5,4.6,3,5.1c-1,1-20.1,0.3-20.1-0.7
	c0-1.1,2.1-3.7,3.4-4.3c0.8-0.4,1.5-0.8,2.3-1.2C669.8,690,675.2,690,677,691.1 M419.7,691.7c0.6,0.5,1.5,0.8,2,0.8
	c2.7,0,6.9,7,6.9,11.6c0,4.5-3.9,11.2-6.4,11.2c-0.5,0-1.2,0.4-1.5,0.9c-2,2.4-9,0.4-12.6-3.5c-2-2.2-3-8.5-2-13.4
	C406.9,694.1,416.2,689,419.7,691.7 M476.8,691.7c0.6,0.5,1.5,0.8,2,0.8c2.7,0,6.9,7,6.9,11.6c0,4.5-3.9,11.2-6.4,11.2
	c-0.5,0-1.2,0.4-1.5,0.9c-2,2.4-9,0.4-12.6-3.5c-2-2.2-3-8.5-2-13.4C464.1,694.1,473.3,689,476.8,691.7"/>
</svg>
