<?xml version="1.0" encoding="utf-8"?>
<!-- Generator: Adobe Illustrator 26.4.1, SVG Export Plug-In . SVG Version: 6.00 Build 0)  -->
<svg version="1.1" id="Layer_1" xmlns="http://www.w3.org/2000/svg" xmlns:xlink="http://www.w3.org/1999/xlink" x="0px" y="0px"
	 viewBox="0 0 1000 1000" style="enable-background:new 0 0 1000 1000;" xml:space="preserve">
<style type="text/css">
	.st0{fill:#1E2A5C;}
</style>
<g>
	<path class="st0" d="M886.5,402.6c-13.9-54.3-40.4-95.2-96.8-95.2h-72.6v83.3c0,64.6-56.6,119-121,119H402.6
		c-53,0-96.8,43.9-96.8,95.3v178.5c0,50.8,45.6,80.6,96.8,95.2c61.3,17.5,120.2,20.6,193.5,0c48.8-13.7,96.8-41.1,96.8-95.2l0,0
		v-71.4H499.4v-23.8h290.3c56.3,0,77.2-38.1,96.8-95.2C906.7,534.3,905.9,478,886.5,402.6z M608.3,759.7c20.1,0,36.3,16,36.3,35.7
		c0,19.8-16.2,35.7-36.3,35.7c-20,0-36.3-16-36.3-35.7C572,775.7,588.3,759.7,608.3,759.7z"/>
</g>
</svg>
