<?xml version="1.0" encoding="utf-8"?>
<!-- Generator: Adobe Illustrator 26.4.1, SVG Export Plug-In . SVG Version: 6.00 Build 0)  -->
<svg version="1.1" id="Layer_1" xmlns="http://www.w3.org/2000/svg" xmlns:xlink="http://www.w3.org/1999/xlink" x="0px" y="0px"
	 viewBox="0 0 1000 1000" style="enable-background:new 0 0 1000 1000;" xml:space="preserve">
<style type="text/css">
	.st0{fill:#1E2A5C;}
</style>
<g>
	<path class="st0" d="M390.5,164.6c-20.1,0-36.3,16-36.3,35.7c0,19.7,16.2,35.7,36.3,35.7c20,0,36.3-16,36.3-35.7
		C426.8,180.6,410.5,164.6,390.5,164.6z"/>
	<path class="st0" d="M608.3,831.1c20.1,0,36.3-16,36.3-35.7c0-19.7-16.2-35.7-36.3-35.7c-20,0-36.3,16-36.3,35.7
		C572,815.1,588.3,831.1,608.3,831.1z"/>
	<path class="st0" d="M850,0H150C67.2,0,0,67.2,0,150v700c0,82.8,67.2,150,150,150h700c82.8,0,150-67.2,150-150V150
		C1000,67.2,932.8,0,850,0z M281.6,688.3h-66.5c-56.3,0-89-39.7-102.8-95.2c-18.6-74.6-17.8-119,0-190.4
		c15.4-62.3,64.7-95.2,121-95.2h266.2v-23.8H305.9v-71.4l0,0c0-54.1,14.8-83.6,96.8-97.6c55.6-9.5,127-10.7,193.5,0
		c52.6,8.5,96.8,46.8,96.8,97.6v178.5c0,52.4-42.9,95.3-96.8,95.3H402.6c-65.7,0-121,54.7-121,116.6V688.3z M886.5,593.1
		c-19.6,57.1-40.5,95.2-96.8,95.2H499.4v23.8h193.5v71.4l0,0c0,54.1-48,81.5-96.8,95.2c-73.3,20.6-132.2,17.5-193.5,0
		c-51.2-14.6-96.8-44.4-96.8-95.2V605c0-51.4,43.8-95.3,96.8-95.3h193.5c64.5,0,121-54.5,121-119v-83.3h72.6
		c56.4,0,82.9,40.9,96.8,95.2C905.9,478,906.7,534.3,886.5,593.1z"/>
</g>
</svg>
