<?xml version="1.0" encoding="utf-8"?>
<!-- Generator: Adobe Illustrator 26.4.1, SVG Export Plug-In . SVG Version: 6.00 Build 0)  -->
<svg version="1.1" id="Layer_1" xmlns="http://www.w3.org/2000/svg" xmlns:xlink="http://www.w3.org/1999/xlink" x="0px" y="0px"
	 viewBox="0 0 1000 1000" style="enable-background:new 0 0 1000 1000;" xml:space="preserve">
<style type="text/css">
	.st0{fill:#1E2A5C;}
</style>
<g>
	<path class="st0" d="M402.6,486h193.5c53.8,0,96.8-42.9,96.8-95.3V212.2c0-50.8-44.2-89.1-96.8-97.6c-66.5-10.7-137.9-9.5-193.5,0
		c-81.9,14-96.8,43.5-96.8,97.6l0,0v71.4h193.6v23.8H233.2c-56.3,0-105.5,32.9-121,95.2c-17.8,71.4-18.6,115.9,0,190.4
		c13.8,55.5,46.5,95.2,102.8,95.2h66.5v-85.7C281.6,540.7,337,486,402.6,486z M390.5,236c-20.1,0-36.3-16-36.3-35.7
		c0-19.8,16.2-35.7,36.3-35.7c20,0,36.3,16,36.3,35.7C426.8,220,410.5,236,390.5,236z"/>
</g>
</svg>
