<?xml version="1.0" encoding="utf-8"?>
<!-- Generator: Adobe Illustrator 26.4.1, SVG Export Plug-In . SVG Version: 6.00 Build 0)  -->
<svg version="1.1" id="Layer_1" xmlns="http://www.w3.org/2000/svg" xmlns:xlink="http://www.w3.org/1999/xlink" x="0px" y="0px"
	 viewBox="0 0 1000 1000" style="enable-background:new 0 0 1000 1000;" xml:space="preserve">
<path d="M774.8,366.4c-9.2-3.1-18.3-5.9-27.5-8.6c1.5-6.3,2.9-12.5,4.2-18.8c20.8-101,7.1-182.2-39.1-208.9
	c-44.6-25.6-117.3,1-190.8,65.1c-7.3,6.3-14.4,12.9-21.2,19.5c-4.6-4.4-9.3-8.8-14.1-13c-77.1-68.5-154.4-97.3-200.6-70.3
	c-44.4,25.8-57.6,102.2-39,197.7c1.9,9.5,3.9,18.8,6.3,28.3c-10.8,3.1-21.5,6.4-31.5,10c-90.5,31.3-155.4,80.8-155.4,132
	c0,52.9,69.1,105.9,163.2,138.1c7.6,2.5,15.3,5.1,23,7.3c-2.5,10.2-4.7,20.2-6.8,30.5c-17.8,94-3.9,168.6,40.5,194.2
	c45.8,26.4,122.7-0.7,197.6-66.3c5.9-5.3,11.9-10.7,17.8-16.4c7.5,7.3,15.3,14.2,23,21c72.5,62.4,144.2,87.6,188.4,62
	c45.8-26.4,60.7-106.6,41.3-204.2c-1.5-7.5-3.2-15.1-5.1-22.9c5.4-1.5,10.7-3.2,15.9-4.9C863,605.4,933.8,553,933.8,499.3
	C933.8,447.9,867,398.1,774.8,366.4L774.8,366.4z M545.6,222.6c63-54.9,121.8-76.4,148.6-61c28.6,16.4,39.7,82.9,21.7,170.1
	c-1.2,5.8-2.4,11.4-3.9,16.9c-37.6-8.5-75.7-14.6-114-18c-22-31.5-46.1-61.7-72.2-90C532.4,234.4,538.8,228.5,545.6,222.6z
	 M325.3,543c7.8,14.9,15.8,29.7,24.2,44.2c8.6,14.7,17.5,29.5,26.8,43.9c-26.4-2.9-52.7-7.1-78.6-12.7
	C305.1,594,314.5,568.8,325.3,543L325.3,543z M325.3,457.3c-10.7-25.2-19.7-50-27.1-73.9c24.4-5.4,50.3-9.8,77.3-13.2
	c-9,14.1-17.8,28.5-26.1,43C341.1,427.6,332.9,442.3,325.3,457.3L325.3,457.3z M344.6,500.1c11.2-23.4,23.4-46.3,36.3-68.8
	c12.9-22.5,26.8-44.4,41.3-65.9c25.4-1.9,51.3-2.9,77.8-2.9c26.4,0,52.5,1,77.8,2.9c14.4,21.4,28.1,43.2,41.2,65.6
	s25.2,45.2,36.8,68.5c-11.4,23.4-23.6,46.4-36.6,69.1c-12.9,22.5-26.6,44.4-41,66.1c-25.2,1.9-51.5,2.7-78.1,2.7s-52.4-0.8-77.3-2.4
	c-14.7-21.5-28.6-43.5-41.7-66.1C368,546.4,356,523.5,344.6,500.1L344.6,500.1z M650.6,586.9c8.6-14.9,16.8-30,24.7-45.2
	c10.8,24.6,20.3,49.5,28.6,75.1c-26.3,5.9-52.9,10.5-79.6,13.6C633.5,616,642.2,601.5,650.6,586.9L650.6,586.9z M675,457.3
	c-8-14.9-16.1-29.8-24.6-44.4c-8.3-14.4-16.9-28.6-25.9-42.7c27.3,3.4,53.4,8,77.8,13.6C694.5,408.8,685.4,433.2,675,457.3z
	 M500.3,266.6c17.8,19.3,34.6,39.7,50.2,60.7c-33.6-1.5-67.3-1.5-100.8,0C466.3,305.4,483.4,285.1,500.3,266.6z M303.8,162.8
	c28.5-16.6,91.7,7.1,158.3,66.1c4.2,3.7,8.5,7.8,12.9,11.9c-26.3,28.3-50.5,58.5-72.7,90c-38.3,3.4-76.3,9.3-113.9,17.6
	c-2.2-8.6-4.1-17.5-5.9-26.3C266.5,240,277,178.2,303.8,162.8L303.8,162.8z M262.3,609.4c-7.1-2-14.1-4.2-21-6.6
	c-36.1-11.4-77.1-29.3-106.8-52.9c-17.1-11.9-28.6-30.2-31.9-50.7c0-31,53.5-70.7,130.8-97.6c9.7-3.4,19.5-6.4,29.3-9.3
	c11.5,36.8,25.4,72.9,41.5,107.8C288,535.5,274,572.1,262.3,609.4z M459.8,775.5c-28,25.6-60.3,45.9-95.6,59.8
	c-18.8,9-40.5,9.8-59.8,2.2c-26.9-15.6-38.1-75.4-22.9-155.9c1.9-9.5,3.9-19,6.3-28.3c38,8.1,76.3,13.7,115.1,16.6
	c22.4,31.7,46.9,62,73.2,90.5C470.7,765.7,465.3,770.7,459.8,775.5L459.8,775.5z M501.4,734.3c-17.3-18.6-34.6-39.3-51.3-61.5
	c16.3,0.7,33,1,50,1c17.5,0,34.6-0.3,51.5-1.2C535.9,694.1,519.1,714.7,501.4,734.3z M722.8,785.1c-1.5,20.7-11.7,40-28,53
	c-26.9,15.6-84.4-4.7-146.4-58c-7.1-6.1-14.2-12.7-21.5-19.5c25.9-28.6,49.8-59,71.5-90.8c38.8-3.2,77.4-9.2,115.6-17.8
	c1.7,6.9,3.2,13.9,4.6,20.7C726.9,709.4,728.3,747.5,722.8,785.1L722.8,785.1z M753.7,603c-4.7,1.5-9.5,3.1-14.4,4.4
	c-11.9-36.9-26.4-73-43.2-108.1c16.3-34.6,30-70.2,41.5-106.6c8.8,2.5,17.3,5.3,25.4,8c79,27.1,134.4,67.4,134.4,98.3
	C897.4,532.2,838.2,575,753.7,603z M500,422.3c42.9,0,77.6,34.7,77.6,77.6c0,42.9-34.7,77.6-77.6,77.6s-77.6-34.7-77.6-77.6
	S457.1,422.3,500,422.3"/>
</svg>
