<?xml version="1.0" encoding="utf-8"?>
<!-- Generator: Adobe Illustrator 26.4.1, SVG Export Plug-In . SVG Version: 6.00 Build 0)  -->
<svg version="1.1" id="Layer_1" xmlns="http://www.w3.org/2000/svg" xmlns:xlink="http://www.w3.org/1999/xlink" x="0px" y="0px"
	 viewBox="0 0 1000 1000" style="enable-background:new 0 0 1000 1000;" xml:space="preserve">
<g>
	<path d="M422.7,635c24.9,1.5,50.7,2.4,77.3,2.4c26.6,0,52.9-0.8,78.1-2.7c14.4-21.7,28.1-43.5,41-66.1c13-22.7,25.2-45.8,36.6-69.1
		C644.2,476.2,632,453.4,619,431c-13-22.4-26.8-44.2-41.2-65.6c-25.2-1.9-51.3-2.9-77.8-2.9s-52.4,1-77.8,2.9
		c-14.6,21.5-28.5,43.4-41.3,65.9c-12.9,22.5-25.1,45.4-36.3,68.8h0c11.4,23.4,23.4,46.3,36.4,68.8C394.1,591.5,408,613.5,422.7,635
		z M500,422.3L500,422.3c42.9,0,77.6,34.7,77.6,77.6s-34.7,77.6-77.6,77.6c-42.9,0-77.6-34.7-77.6-77.6S457.1,422.3,500,422.3z"/>
	<path d="M675.4,541.6c-8,15.3-16.1,30.3-24.7,45.2v0c-8.5,14.6-17.1,29.1-26.3,43.4c26.8-3.1,53.4-7.6,79.6-13.6
		C695.7,591.1,686.2,566.2,675.4,541.6z"/>
	<path d="M712,348.6c1.5-5.6,2.7-11.2,3.9-16.9c18-87.3,6.9-153.7-21.7-170.1c-26.8-15.4-85.6,6.1-148.6,61
		c-6.8,5.9-13.2,11.9-19.8,18.1c26.1,28.3,50.2,58.5,72.2,90C636.2,334.1,674.4,340.2,712,348.6z"/>
	<path d="M624.5,370.2c9,14.1,17.6,28.3,25.9,42.7c8.5,14.6,16.6,29.5,24.6,44.4c10.3-24.1,19.5-48.5,27.3-73.5
		C677.9,378.1,651.8,373.5,624.5,370.2z"/>
	<path d="M376.3,631.1c-9.3-14.4-18.1-29.1-26.8-43.9c-8.5-14.6-16.4-29.3-24.2-44.2c-10.8,25.8-20.2,51-27.6,75.4
		C323.6,624,349.9,628.2,376.3,631.1z"/>
	<path d="M550.5,327.3c-15.6-21-32.4-41.3-50.2-60.7c-16.9,18.5-34.1,38.8-50.7,60.7C483.2,325.8,516.9,325.8,550.5,327.3z"/>
	<path d="M349.4,413.2c8.3-14.6,17.1-29,26.1-43c-26.9,3.4-52.9,7.8-77.3,13.2c7.5,23.9,16.4,48.6,27.1,73.9v0
		C332.9,442.3,341.1,427.6,349.4,413.2z"/>
	<path d="M714,652.1c-38.1,8.6-76.8,14.6-115.6,17.8c-21.7,31.9-45.6,62.2-71.5,90.8c7.3,6.8,14.4,13.4,21.5,19.5
		c62,53.2,119.5,73.5,146.4,58c16.3-13,26.4-32.4,28-53c5.4-37.6,4.1-75.7-4.2-112.3C717.2,666,715.7,659.1,714,652.1z"/>
	<path d="M500,673.8c-16.9,0-33.7-0.3-50-1c16.8,22.2,34.1,42.9,51.3,61.5c17.8-19.7,34.6-40.2,50.2-61.7
		C534.6,673.5,517.5,673.8,500,673.8z"/>
	<path d="M763,400.7c-8.1-2.7-16.6-5.4-25.4-8c-11.5,36.4-25.2,72-41.5,106.6c16.8,35.1,31.3,71.2,43.2,108.1
		c4.9-1.4,9.7-2.9,14.4-4.4c84.6-28,143.7-70.8,143.7-104C897.4,468.1,842,427.8,763,400.7z"/>
	<path d="M288.4,348.3c37.6-8.3,75.6-14.2,113.9-17.6c22.2-31.5,46.4-61.7,72.7-90c-4.4-4.1-8.6-8.1-12.9-11.9
		c-66.6-59-129.8-82.7-158.3-66.1h0C277,178.2,266.5,240,282.4,322C284.3,330.8,286.2,339.7,288.4,348.3z"/>
	<path d="M850,0H150C67.2,0,0,67.2,0,150v700c0,82.8,67.2,150,150,150h700c82.8,0,150-67.2,150-150V150C1000,67.2,932.8,0,850,0z
		 M765.2,637.7c-5.3,1.7-10.5,3.4-15.9,4.9c1.9,7.8,3.6,15.4,5.1,22.9c19.3,97.6,4.4,177.8-41.3,204.2
		c-44.2,25.6-115.9,0.3-188.4-62c-7.8-6.8-15.6-13.7-23-21c-5.9,5.8-11.9,11.2-17.8,16.4c-74.9,65.6-151.8,92.7-197.6,66.3
		c-44.4-25.6-58.3-100.1-40.5-194.2c2-10.3,4.2-20.3,6.8-30.5c-7.8-2.2-15.4-4.7-23-7.3c-94-32.2-163.2-85.2-163.2-138.1
		c0-51.2,64.9-100.7,155.4-132c10-3.6,20.7-6.9,31.5-10c-2.4-9.5-4.4-18.8-6.3-28.3c-18.6-95.6-5.4-172,39-197.7
		c46.3-26.9,123.5,1.9,200.6,70.3c4.7,4.2,9.5,8.6,14.1,13c6.8-6.6,13.9-13.2,21.2-19.5c73.5-64.1,146.2-90.7,190.8-65.1
		c46.3,26.8,60,107.9,39.1,208.9c-1.4,6.3-2.7,12.5-4.2,18.8c9.2,2.7,18.3,5.6,27.5,8.6c92.2,31.7,158.9,81.5,158.9,132.8
		C933.8,553,863,605.4,765.2,637.7z"/>
	<path d="M262.8,392.4c-9.8,2.9-19.7,5.9-29.3,9.3c-77.3,26.9-130.8,66.6-130.8,97.6c3.2,20.5,14.7,38.8,31.9,50.7
		c29.7,23.6,70.7,41.5,106.8,52.9c6.9,2.4,13.9,4.6,21,6.6c11.7-37.3,25.8-73.9,42-109.3C288.2,465.2,274.3,429.1,262.8,392.4z"/>
	<path d="M287.8,653.3c-2.4,9.3-4.4,18.8-6.3,28.3c-15.3,80.5-4.1,140.3,22.9,155.9c19.3,7.6,41,6.8,59.8-2.2
		c35.2-13.9,67.6-34.2,95.6-59.8v0c5.4-4.7,10.8-9.8,16.3-15.1c-26.3-28.5-50.8-58.8-73.2-90.5C364.1,667,325.8,661.4,287.8,653.3z"
		/>
</g>
</svg>
