<?xml version="1.0" encoding="utf-8"?>
<!-- Generator: Adobe Illustrator 26.4.1, SVG Export Plug-In . SVG Version: 6.00 Build 0)  -->
<svg version="1.1" id="Layer_1" xmlns="http://www.w3.org/2000/svg" xmlns:xlink="http://www.w3.org/1999/xlink" x="0px" y="0px"
	 viewBox="0 0 1000 1000" style="enable-background:new 0 0 1000 1000;" xml:space="preserve">
<style type="text/css">
	.st0{fill:#010101;}
</style>
<g>
	<path class="st0" d="M396.3,214.3c-123.8,43.5-210.4,173.6-198.2,305.1c4.4,162,160.5,298.8,322,282.8
		C689.8,797,829,626.7,801,459.5C783.1,273.3,569.9,144.7,396.3,214.3z M353.3,708.9L479.5,517l107.3,0.5L353.3,708.9z M521.2,482.2
		c-35.8,0-71.5,0-107.3-0.5l0,0l0,0c0,0,0,0,0,0l233.5-191L521.2,482.2z"/>
	<path class="st0" d="M850,0H150C67.2,0,0,67.2,0,150v700c0,82.8,67.2,150,150,150h700c82.8,0,150-67.2,150-150V150
		C1000,67.2,932.8,0,850,0z M696,796c-111.6,75.3-266.8,78.2-380.9,6.7c-116.5-69.1-184.7-209.3-167.3-344.1
		c14-142.7,124.2-268,262.5-302.8c91.9-23.2,193.9-9.7,274.6,40.6C787.4,257.3,853.7,373,855.6,491.8l-0.1,0.1
		C858.9,611.7,796.5,730.8,696,796z"/>
</g>
</svg>
