<?xml version="1.0" encoding="utf-8"?>
<!-- Generator: Adobe Illustrator 26.4.1, SVG Export Plug-In . SVG Version: 6.00 Build 0)  -->
<svg version="1.1" id="Layer_1" xmlns="http://www.w3.org/2000/svg" xmlns:xlink="http://www.w3.org/1999/xlink" x="0px" y="0px"
	 viewBox="0 0 1000 1000" style="enable-background:new 0 0 1000 1000;" xml:space="preserve">
<style type="text/css">
	.st0{fill:#010101;}
</style>
<path class="st0" d="M855.6,491.8C853.7,373,787.4,257.3,685,196.4c-80.7-50.3-182.7-63.8-274.6-40.6
	c-138.3,34.8-248.5,160-262.5,302.8c-17.4,134.8,50.8,275,167.3,344.1c114.1,71.6,269.3,68.7,380.9-6.7
	c100.6-65.3,162.9-184.3,159.6-304.1L855.6,491.8z M520.1,802.2c-161.5,16-317.6-120.9-322-282.8
	c-12.2-131.5,74.5-261.6,198.2-305.1c173.6-69.6,386.8,59,404.7,245.1C829,626.7,689.8,797,520.1,802.2z M413.8,481.7l233.5-191
	L521.2,482.2C485.4,482.2,449.6,482.2,413.8,481.7L413.8,481.7z M479.5,517l107.3,0.5L353.3,708.9C353.3,708.9,479.5,517,479.5,517z
	"/>
</svg>
