<?xml version="1.0" encoding="utf-8"?>
<!-- Generator: Adobe Illustrator 26.4.1, SVG Export Plug-In . SVG Version: 6.00 Build 0)  -->
<svg version="1.1" id="Layer_1" xmlns="http://www.w3.org/2000/svg" xmlns:xlink="http://www.w3.org/1999/xlink" x="0px" y="0px"
	 viewBox="0 0 1000 1000" style="enable-background:new 0 0 1000 1000;" xml:space="preserve">
<path d="M850,0H150C67.2,0,0,67.2,0,150v700c0,82.8,67.2,150,150,150h700c82.8,0,150-67.2,150-150V150C1000,67.2,932.8,0,850,0z
	 M470.4,895.2c-82.9-0.2-164.7-17.2-240.8-50.1V646.8c73.9,40.2,168.1,70.3,241,70.3c49.2,0,84.5-13.2,84.5-53.9
	c0-105-334.6-65.5-334.6-309.3c0-155.8,119.1-249,297.5-249c73.1,0,145.9,11.1,218.8,40.2v207.2c-66.9-36-152.1-56.6-219-56.6
	c-46,0-74.6,13.3-74.6,47.8c0,99.1,336.5,52,336.3,314.5C779.5,816.5,653.4,895.2,470.4,895.2z"/>
</svg>
