<?xml version="1.0" encoding="utf-8"?>
<!-- Generator: Adobe Illustrator 26.4.1, SVG Export Plug-In . SVG Version: 6.00 Build 0)  -->
<svg version="1.1" id="Layer_1" xmlns="http://www.w3.org/2000/svg" xmlns:xlink="http://www.w3.org/1999/xlink" x="0px" y="0px"
	 viewBox="0 0 1000 1000" style="enable-background:new 0 0 1000 1000;" xml:space="preserve">
<g>
	<path d="M443.2,343.5c0-34.4,28.6-47.8,74.6-47.8c66.9,0,152.1,20.5,219,56.6V145.1c-72.9-29.2-145.8-40.2-218.8-40.2
		c-178.4,0-297.5,93.3-297.5,249c0,243.8,334.6,204.3,334.6,309.3c0,40.7-35.3,53.9-84.5,53.9c-72.9,0-167-30-241-70.3v198.3
		c76,32.8,157.9,49.9,240.8,50.1c183,0,309.1-78.7,309.1-237.1C779.7,395.5,443.2,442.6,443.2,343.5L443.2,343.5z"/>
</g>
</svg>
