<?xml version="1.0" encoding="utf-8"?>
<!-- Generator: Adobe Illustrator 26.4.1, SVG Export Plug-In . SVG Version: 6.00 Build 0)  -->
<svg version="1.1" id="Layer_1" xmlns="http://www.w3.org/2000/svg" xmlns:xlink="http://www.w3.org/1999/xlink" x="0px" y="0px"
	 viewBox="0 0 1000 1000" style="enable-background:new 0 0 1000 1000;" xml:space="preserve">
<path d="M850,0H150C67.2,0,0,67.2,0,150v700c0,82.8,67.2,150,150,150h700c82.8,0,150-67.2,150-150V150C1000,67.2,932.8,0,850,0z
	 M500,742.7c-161.4,0-181.6-121.3-262.2-141.6c-53.8-13.5-100.9,6.7-141.2,60.7C123.4,553.9,190.7,500,298.3,500
	c161.4,0,181.6,121.3,262.2,141.6c53.8,13.5,100.9-6.7,141.2-60.7C674.8,688.8,607.6,742.7,500,742.7z M701.7,500
	c-161.4,0-181.6-121.3-262.2-141.6c-53.8-13.5-100.9,6.7-141.2,60.7c26.9-107.9,94.1-161.8,201.7-161.8
	c161.4,0,181.6,121.3,262.2,141.6c53.8,13.5,100.9-6.7,141.2-60.7C876.6,446.1,809.3,500,701.7,500z"/>
</svg>
