<?xml version="1.0" encoding="utf-8"?>
<!-- Generator: Adobe Illustrator 26.4.1, SVG Export Plug-In . SVG Version: 6.00 Build 0)  -->
<svg version="1.1" id="Layer_1" xmlns="http://www.w3.org/2000/svg" xmlns:xlink="http://www.w3.org/1999/xlink" x="0px" y="0px"
	 viewBox="0 0 1000 1000" style="enable-background:new 0 0 1000 1000;" xml:space="preserve">
<path d="M298.3,419.1c26.9-107.9,94.1-161.8,201.7-161.8c161.4,0,181.6,121.3,262.2,141.6c53.8,13.5,100.9-6.7,141.2-60.7
	C876.6,446.1,809.3,500,701.7,500c-161.4,0-181.6-121.3-262.2-141.6C385.7,344.9,338.6,365.2,298.3,419.1z M96.6,661.8
	C123.4,553.9,190.7,500,298.3,500c161.4,0,181.6,121.3,262.2,141.6c53.8,13.5,100.9-6.7,141.2-60.7
	C674.8,688.8,607.6,742.7,500,742.7c-161.4,0-181.6-121.3-262.2-141.6C184,587.6,136.9,607.9,96.6,661.8z"/>
</svg>
