<?xml version="1.0" encoding="utf-8"?>
<!-- Generator: Adobe Illustrator 26.4.1, SVG Export Plug-In . SVG Version: 6.00 Build 0)  -->
<svg version="1.1" id="Layer_1" xmlns="http://www.w3.org/2000/svg" xmlns:xlink="http://www.w3.org/1999/xlink" x="0px" y="0px"
	 viewBox="0 0 1000 1000" style="enable-background:new 0 0 1000 1000;" xml:space="preserve">
<style type="text/css">
	.st0{fill:url(#SVGID_1_);}
</style>
<linearGradient id="SVGID_1_" gradientUnits="userSpaceOnUse" x1="519.4935" y1="877.7546" x2="600.681" y2="320.8174" gradientTransform="matrix(1 0 0 -1 0 1002)">
	<stop  offset="0" style="stop-color:#FFEA83"/>
	<stop  offset="8.333330e-02" style="stop-color:#FFDD35"/>
	<stop  offset="1" style="stop-color:#FFA800"/>
</linearGradient>
<path class="st0" d="M672.2,115.9l-266.9,52.3c-4.4,0.9-7.6,4.6-7.9,9L381,454.5c-0.4,6.5,5.6,11.6,12,10.1l74.3-17.1
	c7-1.6,13.2,4.5,11.8,11.5L457.1,567c-1.5,7.3,5.3,13.5,12.4,11.3l45.9-13.9c7.1-2.2,14,4.1,12.4,11.4l-35.1,169.8
	c-2.2,10.6,11.9,16.4,17.8,7.3l3.9-6.1l217.5-434c3.6-7.3-2.6-15.6-10.6-14l-76.5,14.8c-7.2,1.4-13.3-5.3-11.3-12.3l49.9-173
	C685.6,121.2,679.4,114.5,672.2,115.9z"/>
</svg>
