<?xml version="1.0" encoding="utf-8"?>
<!-- Generator: Adobe Illustrator 26.4.1, SVG Export Plug-In . SVG Version: 6.00 Build 0)  -->
<svg version="1.1" id="Layer_1" xmlns="http://www.w3.org/2000/svg" xmlns:xlink="http://www.w3.org/1999/xlink" x="0px" y="0px"
	 viewBox="0 0 1000 1000" style="enable-background:new 0 0 1000 1000;" xml:space="preserve">
<style type="text/css">
	.st0{fill:url(#SVGID_1_);}
</style>
<linearGradient id="SVGID_1_" gradientUnits="userSpaceOnUse" x1="417.5678" y1="1065.4756" x2="563.0231" y2="67.6684">
	<stop  offset="0" style="stop-color:#FFEA83"/>
	<stop  offset="8.333330e-02" style="stop-color:#FFDD35"/>
	<stop  offset="1" style="stop-color:#FFA800"/>
</linearGradient>
<path class="st0" d="M850,0H150C67.2,0,0,67.2,0,150v700c0,82.8,67.2,150,150,150h700c82.8,0,150-67.2,150-150V150
	C1000,67.2,932.8,0,850,0z M881.3,229.4L520.7,874.3c-7.4,13.3-26.6,13.4-34.1,0.1L118.8,229.5c-8.2-14.4,4.1-31.9,20.5-29
	l254.1,45.4l4.1-68.7c0.3-4.5,3.5-8.2,7.9-9l266.9-52.3c7.2-1.4,13.3,5.3,11.3,12.3l-31.9,110.5l209-38.1
	C877,197.6,889.4,215,881.3,229.4z"/>
</svg>
