<?xml version="1.0" encoding="utf-8"?>
<!-- Generator: Adobe Illustrator 26.4.1, SVG Export Plug-In . SVG Version: 6.00 Build 0)  -->
<svg version="1.1" id="Layer_1" xmlns="http://www.w3.org/2000/svg" xmlns:xlink="http://www.w3.org/1999/xlink" x="0px" y="0px"
	 viewBox="0 0 1000 1000" style="enable-background:new 0 0 1000 1000;" xml:space="preserve">
<style type="text/css">
	.st0{fill:#00749A;}
</style>
<g>
	<path class="st0" d="M500,115.6C287.8,115.9,115.9,287.8,115.6,500c0,213.4,172.5,385.9,384.4,385.9S884.4,713.4,884.4,500
		C884.1,287.8,712.2,115.9,500,115.6z M153.6,500c0-49.7,11.7-96.5,30.7-140.3l163.4,451.7C232.5,755.8,153.6,637.4,153.6,500z
		 M500,846.4c-33.6,0-67.2-5.8-97.9-14.6l103.8-301.1L612.6,823c1.5,1.5,1.5,2.9,2.9,4.4C578.9,838.9,540.9,846.4,500,846.4z
		 M546.8,337.8c20.4,0,39.5-2.9,39.5-2.9c17.5-3,16.1-30.7-2.9-29.2c0,0-55.5,4.4-92.1,4.4c-33.6,0-90.6-4.4-90.6-4.4
		c-17.5,0-20.5,27.8-1.5,29.2l36.6,2.9l54.1,147.6l-76,226.6L288.1,337.7c20.4,0,39.5-2.9,39.5-2.9c17.5-3,16.1-30.7-2.9-29.2
		c0,0-55.5,4.4-92.1,4.4h-21.9c64.6-96.8,173-155.4,289.4-156.4c90.6,0,172.5,33.6,233.9,90.6h-4.4c-33.6,0-58.5,29.2-58.5,61.4
		c0,29.2,16.1,52.6,33.6,81.8c13.2,21.9,29.2,52.6,29.2,95l0.2,0.1c0,30.7-11.7,64.3-26.3,112.6l-35.3,115.5L546.8,337.8z
		 M804,335.1l0-0.3l0,0.4c26.3,49.6,42.4,105.2,43.8,165c0,128.6-70.1,239.7-172.5,299.6l105.2-305.5c20.4-49.7,26.3-89,26.3-124.3
		l-2.9-34.9C804,335.2,804,335.1,804,335.1z"/>
	<path class="st0" d="M850,0H150C67.2,0,0,67.2,0,150v700c0,82.8,67.2,150,150,150h700c82.8,0,150-67.2,150-150V150
		C1000,67.2,932.8,0,850,0z M500,903.4C277.8,903.4,96.6,722.2,96.6,500S277.8,96.6,500,96.6S903.4,277.8,903.4,500
		S722.2,903.4,500,903.4z"/>
</g>
</svg>
