<?xml version="1.0" encoding="utf-8"?>
<!-- Generator: Adobe Illustrator 26.4.1, SVG Export Plug-In . SVG Version: 6.00 Build 0)  -->
<svg version="1.1" id="Layer_1" xmlns="http://www.w3.org/2000/svg" xmlns:xlink="http://www.w3.org/1999/xlink" x="0px" y="0px"
	 viewBox="0 0 1000 1000" style="enable-background:new 0 0 1000 1000;" xml:space="preserve">
<style type="text/css">
	.st0{fill:#00749A;}
</style>
<path class="st0" d="M153.6,500c0,137.4,78.9,255.8,194.2,311.3L184.3,359.7C165.3,403.5,153.6,450.3,153.6,500z M733.9,482.5
	c0-42.4-16.1-73.1-29.2-95c-17.5-29.2-33.6-52.6-33.6-81.8c0-32.1,24.9-61.4,58.5-61.4h4.4c-61.4-57-143.3-90.6-233.9-90.6
	c-116.4,1-224.8,59.6-289.4,156.4h21.9c36.6,0,92.1-4.4,92.1-4.4c19-1.5,20.5,26.3,2.9,29.2c0,0-19,2.9-39.5,2.9l125.7,374.2
	l76-226.6l-54.1-147.6l-36.6-2.9c-19-1.5-16.1-29.2,1.5-29.2c0,0,57,4.4,90.6,4.4c36.6,0,92.1-4.4,92.1-4.4
	c19-1.5,20.5,26.3,2.9,29.2c0,0-19,2.9-39.5,2.9l125.7,372.8l35.3-115.5c14.6-48.2,26.3-81.8,26.3-112.6L733.9,482.5z M505.8,530.7
	L402.1,831.8c30.7,8.8,64.3,14.6,97.9,14.6c40.9,0,78.9-7.6,115.5-19c-1.5-1.5-1.5-2.9-2.9-4.4L505.8,530.7z M804,334.8l2.9,35.3
	c0,35.3-5.8,74.6-26.3,124.3L675.4,799.9c102.3-59.9,172.5-171,172.5-299.6c-1.5-59.9-17.5-115.5-43.9-165.2L804,334.8z M500,96.6
	C277.8,96.6,96.6,277.8,96.6,500S277.8,903.4,500,903.4S903.4,722.2,903.4,500S722.2,96.6,500,96.6z M500,885.9
	c-212,0-384.4-172.5-384.4-385.9c0.3-212.2,172.2-384.1,384.4-384.4c212.2,0.3,384.1,172.2,384.4,384.4
	C884.4,713.4,712,885.9,500,885.9z"/>
</svg>
