<?xml version="1.0" encoding="utf-8"?>
<!-- Generator: Adobe Illustrator 26.4.1, SVG Export Plug-In . SVG Version: 6.00 Build 0)  -->
<svg version="1.1" id="Layer_1" xmlns="http://www.w3.org/2000/svg" xmlns:xlink="http://www.w3.org/1999/xlink" x="0px" y="0px"
	 viewBox="0 0 1000 1000" style="enable-background:new 0 0 1000 1000;" xml:space="preserve">
<style type="text/css">
	.st0{fill:#2C8EBB;}
	.st1{fill:#FFFFFF;}
</style>
<g transform="matrix(1.42678 0 0 1.42678 -14.267802 -10.8034)">
	<path class="st0" d="M360.4,75.5c156,0,282.5,126.5,282.5,282.5S516.4,640.5,360.4,640.5S77.9,514,77.9,358S204.5,75.5,360.4,75.5z
		"/>
	<path class="st1" d="M552.6,443.6c-2-15.5-15.1-26.2-31.9-25.9c-25.1,0.3-46.1,13.3-60.1,21.9c-4.6,2.9-9.3,5.5-14.2,7.7
		c0.9-12.7,0.1-29.2-6.4-47.4c-8-21.8-18.6-35.2-26.3-43c8.8-12.9,20.9-31.6,26.6-60.6c5-24.8,3.4-63.3-7.8-84.9
		c-2.3-4.4-6.1-7.5-10.9-8.8c-2-0.5-5.7-1.6-13,0.4c-11-22.7-14.8-25.2-17.8-27.2c-6.1-3.9-13.3-4.8-20.1-2.3
		c-9.1,3.3-16.8,12-24.1,27.5l-2.9,6.7c-13.9,1-35.7,6-54.1,25.9c-2.3,2.5-6.8,4.4-11.5,6.1h0.1c-9.6,3.4-14,11.2-19.3,25.4
		c-7.4,19.9,0.2,39.4,7.7,52c-10.3,9.2-23.9,23.8-31.1,40.9c-8.8,21.2-9.9,41.9-9.6,53.1c-7.6,8.1-19.4,23.2-20.7,40.2
		c-1.8,23.8,6.9,39.9,10.7,45.8c1.1,1.6,2.3,3.2,3.6,4.6c-0.4,2.9-0.5,6.1,0.1,9.4c1.4,7.6,6.2,13.9,13.5,17.8
		c14.4,7.6,34.5,10.9,50,3.1c5.6,5.9,15.7,11.6,34,11.6h1.1c4.7,0,64.2-3.1,81.6-7.4c6.1-1.4,11.8-4.1,16.6-8.1
		c11.1-3.5,41.9-14,70.9-32.7c20.5-13.3,27.6-16.1,42.9-19.9C545.2,472.1,554.4,458.5,552.6,443.6L552.6,443.6z M526.7,459.7
		c-17.5,4.2-26.3,8-47.9,22c-33.7,21.8-70.6,32-70.6,32s-3,4.6-11.9,6.7c-15.3,3.7-72.8,6.9-78,7c-14.1,0.1-22.7-3.6-25.1-9.4
		c-7.3-17.5,10.5-25.1,10.5-25.1s-3.9-2.4-6.2-4.6c-2.1-2.1-4.3-6.2-5-4.7c-2.7,6.7-4.2,22.9-11.5,30.2c-10,10.1-29,6.8-40.2,0.9
		c-12.3-6.5,0.9-21.9,0.9-21.9s-6.7,3.9-12-4.2c-4.8-7.4-9.3-20.1-8.1-35.7c1.3-17.8,21.2-35,21.2-35s-3.5-26.3,8-53.2
		c10.4-24.5,38.3-44.3,38.3-44.3s-23.5-25.9-14.7-49.3c5.7-15.3,8-15.2,9.8-15.8c6.5-2.5,12.9-5.2,17.6-10.4
		c23.5-25.3,53.3-20.5,53.3-20.5s14.2-43.1,27.3-34.7c4,2.6,18.5,34.9,18.5,34.9s15.5-9.1,17.2-5.7c9.4,18.2,10.5,53,6.3,74.2
		c-7,34.9-24.4,53.7-31.4,65.4c-1.6,2.7,18.8,11.3,31.6,47c11.9,32.6,1.3,60,3.1,63l0.4,0.8c0,0,13.6,1.1,41-15.8
		c14.6-9.1,32-19.2,51.7-19.4c19.1-0.3,20.1,22,5.7,25.5L526.7,459.7z"/>
</g>
</svg>
