<?xml version="1.0" encoding="utf-8"?>
<!-- Generator: Adobe Illustrator 26.4.1, SVG Export Plug-In . SVG Version: 6.00 Build 0)  -->
<svg version="1.1" id="Layer_1" xmlns="http://www.w3.org/2000/svg" xmlns:xlink="http://www.w3.org/1999/xlink" x="0px" y="0px"
	 viewBox="0 0 1000 1000" style="enable-background:new 0 0 1000 1000;" xml:space="preserve">
<style type="text/css">
	.st0{fill:#274CA0;}
</style>
<g>
	<path class="st0" d="M850,0H150C67.2,0,0,67.2,0,150v700c0,82.8,67.2,150,150,150h700c82.8,0,150-67.2,150-150V150
		C1000,67.2,932.8,0,850,0z M500,903.1C277.5,903.1,96.9,722.5,96.9,500S277.5,96.9,500,96.9c222.5,0,403.1,180.5,403.1,403.1
		S722.5,903.1,500,903.1z"/>
	<path class="st0" d="M774.2,622.2c-2.8-22.1-21.5-37.3-45.5-37c-35.8,0.5-65.8,19-85.7,31.3c-6.5,4.1-13.3,7.8-20.2,11.1
		c1.3-18.1,0.2-41.7-9.2-67.7c-11.4-31.1-26.6-50.3-37.5-61.3c12.6-18.4,29.9-45.1,38-86.5c7.2-35.3,4.8-90.3-11.2-121.1
		c-3.3-6.2-8.7-10.7-15.6-12.6c-2.8-0.8-8.1-2.3-18.5,0.6c-15.7-32.3-21.2-35.9-25.3-38.7c-8.7-5.6-19-6.8-28.6-3.3
		c-12.9,4.7-24,17.1-34.4,39.2l-4.2,9.5c-19.8,1.4-50.9,8.6-77.2,37c-3.3,3.6-9.7,6.2-16.4,8.7h0.2c-13.7,4.8-19.9,16-27.5,36.3
		c-10.6,28.3,0.3,56.2,11.1,74.2c-14.6,13.1-34.1,33.9-44.4,58.4c-12.6,30.2-14.2,59.8-13.7,75.8c-10.9,11.5-27.7,33.1-29.6,57.4
		c-2.5,33.9,9.8,57,15.3,65.4c1.5,2.3,3.2,4.5,5.1,6.5c-0.6,4.2-0.8,8.7,0.2,13.4c2,10.9,8.9,19.8,19.3,25.3
		c20.5,10.9,49.2,15.6,71.3,4.5c7.9,8.4,22.4,16.5,48.5,16.5h1.6c6.7,0,91.7-4.5,116.4-10.6c8.7-1.9,16.8-5.9,23.7-11.5
		c15.9-5,59.8-19.9,101.2-46.7c29.3-19,39.4-23,61.2-28.3C763.6,662.7,776.8,643.4,774.2,622.2L774.2,622.2z M736.9,645l0.3,0
		c-24.9,5.9-37.5,11.4-68.3,31.4c-48.1,31.1-100.7,45.6-100.7,45.6s-4.3,6.5-17,9.5c-21.8,5.3-103.8,9.8-111.3,10
		c-20.1,0.2-32.3-5.1-35.8-13.4c-10.4-24.9,14.9-35.8,14.9-35.8s-5.6-3.4-8.9-6.5c-3-3-6.1-8.9-7.2-6.7c-3.9,9.5-5.9,32.7-16.4,43.1
		c-14.3,14.5-41.4,9.7-57.4,1.3c-17.6-9.3,1.3-31.3,1.3-31.3s-9.5,5.6-17.1-5.9c-6.8-10.6-13.2-28.6-11.5-50.9
		c1.9-25.3,30.2-50,30.2-50s-5-37.5,11.4-75.9c14.8-35,54.6-63.2,54.6-63.2s-33.5-37-21-70.3c8.1-21.8,11.4-21.6,14-22.6
		c9.3-3.6,18.4-7.5,25.1-14.8c33.5-36.1,76.1-29.3,76.1-29.3s20.2-61.5,38.9-49.5c5.8,3.7,26.5,49.8,26.5,49.8s22.1-12.9,24.6-8.1
		c13.4,26,14.9,75.7,9,105.8c-10,49.8-34.9,76.6-44.8,93.4c-2.3,3.9,26.8,16.2,45.1,67.1c17,46.5,1.9,85.6,4.5,89.9l0.6,1.1
		c0,0,19.4,1.6,58.5-22.6c20.8-12.9,45.6-27.4,73.8-27.7C756.1,608.1,757.5,640,736.9,645z"/>
</g>
</svg>
